<svg xmlns="http://www.w3.org/2000/svg" width="1120" height="920" viewBox="0 0 1120 920">
<rect width="1120" height="920" fill="#f5f7fa"/>
<style>text{font-family:Arial,sans-serif;fill:#193247} .title{font-size:25px;font-weight:bold} .label{font-size:15px} .note{font-size:16px} .part{fill:#e0e9f2;stroke:#5c7791;stroke-width:2} .board{fill:#fff;stroke:#193247;stroke-width:3}</style>
<text x="45" y="38" class="title">Revision B · mechanical concept</text>
<text x="45" y="65" class="note">Provisional envelopes — LED centres, mounting holes and display pinout need dimensions</text>
<g transform="translate(55,125)">
<text x="170" y="-20" class="title">FRONT</text>
<rect width="450" height="630" class="board"/>
<rect x="42" y="50" width="72" height="56" rx="4" class="part"/><text x="53" y="82" class="label">74HCT595</text>
<rect x="333" y="50" width="72" height="56" rx="4" class="part"/><text x="342" y="82" class="label">74HCT595</text>
<circle cx="225" cy="104" r="63" class="part"/><text x="190" y="109" class="label">BUZZER</text>
<g fill="#fde7b2" stroke="#bd8517" stroke-width="2">
<circle cx="40.5" cy="261" r="22.5"/><circle cx="132.75" cy="261" r="22.5"/><circle cx="225" cy="261" r="22.5"/><circle cx="317.25" cy="261" r="22.5"/><circle cx="409.5" cy="261" r="22.5"/>
</g>
<text x="26" y="266" class="label">RGB</text><text x="118" y="266" class="label">RGB</text><text x="211" y="266" class="label">RGB</text><text x="303" y="266" class="label">RGB</text><text x="395" y="266" class="label">RGB</text>
<text x="96" y="307" class="note">LED row fixed by your sketch</text>
<rect x="-4.5" y="378" width="459" height="252" rx="5" fill="#cbe8e5" stroke="#258c83" stroke-width="3"/>
<text x="91" y="474" class="title">DISPLAY MODULE</text><text x="168" y="510" font-size="24">51 × 28 mm</text>
<text x="65" y="551" class="note">Bottom alignment provisional</text>
<text x="5" y="665" class="note">50 × 70 mm PCB option shown</text>
<text x="5" y="690" class="note">Display extends 0.5 mm beyond each side</text>
<path d="M455 328h38" stroke="#193247" stroke-width="3"/><path d="M481 320l12 8-12 8" fill="none" stroke="#193247" stroke-width="3"/>
</g>
<g transform="translate(610,125)">
<text x="168" y="-20" class="title">REAR</text>
<rect width="450" height="630" class="board"/>
<rect x="0" y="18" width="120" height="153" class="part"/><text x="31" y="100" class="label">USB-A</text>
<rect x="0" y="185" width="84" height="238" class="part"/><text transform="translate(48,392) rotate(-90)" class="label">10-PIN · SMALLER FOOTPRINT</text>
<rect x="0" y="441" width="189" height="180" class="part"/><text x="27" y="521" class="label">XIAO ESP32-C3</text><text x="20" y="548" class="label">USB-C faces edge</text>
<rect x="234" y="234" width="195" height="300" rx="5" fill="#f5e4d6" stroke="#ba7e4a" stroke-width="2" stroke-dasharray="8 5"/>
<text x="271" y="365" class="label">REGULATOR</text><text x="263" y="390" class="label">AND PASSIVES</text>
<text x="0" y="665" class="note">Rear is mirrored: connectors on the left</text>
<text x="0" y="690" class="note">All connector envelopes are provisional</text>
</g>
<text x="55" y="870" class="note">Concept only · not routed · not for fabrication · revision A files preserved</text>
</svg>
