%TF.GenerationSoftware,KiCad,Pcbnew,10.0.6*%
%TF.CreationDate,2026-09-26T15:22:29+07:00*%
%TF.ProjectId,dashboard,64617368-626f-4617-9264-2e6b69636164,rev?*%
%TF.SameCoordinates,Original*%
%TF.FileFunction,Legend,Bot*%
%TF.FilePolarity,Positive*%
%FSLAX46Y46*%
G04 Gerber Fmt 4.6, Leading zero omitted, Abs format (unit mm)*
G04 Created by KiCad (PCBNEW 10.0.6) date 2026-09-26 15:22:29*
%MOMM*%
%LPD*%
G01*
G04 APERTURE LIST*
G04 Aperture macros list*
%AMRoundRect*
0 Rectangle with rounded corners*
0 $1 Rounding radius*
0 $2 $3 $4 $5 $6 $7 $8 $9 X,Y pos of 4 corners*
0 Add a 4 corners polygon primitive as box body*
4,1,4,$2,$3,$4,$5,$6,$7,$8,$9,$2,$3,0*
0 Add four circle primitives for the rounded corners*
1,1,$1+$1,$2,$3*
1,1,$1+$1,$4,$5*
1,1,$1+$1,$6,$7*
1,1,$1+$1,$8,$9*
0 Add four rect primitives between the rounded corners*
20,1,$1+$1,$2,$3,$4,$5,0*
20,1,$1+$1,$4,$5,$6,$7,0*
20,1,$1+$1,$6,$7,$8,$9,0*
20,1,$1+$1,$8,$9,$2,$3,0*%
G04 Aperture macros list end*
%ADD10C,0.120000*%
%ADD11RoundRect,0.250001X0.949999X0.949999X-0.949999X0.949999X-0.949999X-0.949999X0.949999X-0.949999X0*%
%ADD12C,2.400000*%
%ADD13O,2.200000X4.400000*%
%ADD14C,1.879600*%
%ADD15RoundRect,0.250001X-0.949999X-0.949999X0.949999X-0.949999X0.949999X0.949999X-0.949999X0.949999X0*%
%ADD16C,3.327400*%
%ADD17R,2.000000X2.000000*%
%ADD18C,2.000000*%
%ADD19RoundRect,0.225000X-0.225000X-0.250000X0.225000X-0.250000X0.225000X0.250000X-0.225000X0.250000X0*%
%ADD20RoundRect,0.250000X-0.550000X-0.550000X0.550000X-0.550000X0.550000X0.550000X-0.550000X0.550000X0*%
%ADD21C,1.600000*%
%ADD22R,2.900000X5.400000*%
%ADD23RoundRect,0.135000X0.185000X-0.135000X0.185000X0.135000X-0.185000X0.135000X-0.185000X-0.135000X0*%
%ADD24RoundRect,0.250000X1.400000X1.000000X-1.400000X1.000000X-1.400000X-1.000000X1.400000X-1.000000X0*%
%ADD25RoundRect,0.125000X0.762500X0.125000X-0.762500X0.125000X-0.762500X-0.125000X0.762500X-0.125000X0*%
%ADD26RoundRect,0.250000X-2.050000X-0.300000X2.050000X-0.300000X2.050000X0.300000X-2.050000X0.300000X0*%
%ADD27RoundRect,0.250002X-4.449998X-5.149998X4.449998X-5.149998X4.449998X5.149998X-4.449998X5.149998X0*%
G04 APERTURE END LIST*
D10*
X92287664Y-59366667D02*
X92325760Y-59328571D01*
X92325760Y-59328571D02*
X92363855Y-59214286D01*
X92363855Y-59214286D02*
X92363855Y-59138095D01*
X92363855Y-59138095D02*
X92325760Y-59023809D01*
X92325760Y-59023809D02*
X92249569Y-58947619D01*
X92249569Y-58947619D02*
X92173379Y-58909524D01*
X92173379Y-58909524D02*
X92020998Y-58871428D01*
X92020998Y-58871428D02*
X91906712Y-58871428D01*
X91906712Y-58871428D02*
X91754331Y-58909524D01*
X91754331Y-58909524D02*
X91678140Y-58947619D01*
X91678140Y-58947619D02*
X91601950Y-59023809D01*
X91601950Y-59023809D02*
X91563855Y-59138095D01*
X91563855Y-59138095D02*
X91563855Y-59214286D01*
X91563855Y-59214286D02*
X91601950Y-59328571D01*
X91601950Y-59328571D02*
X91640045Y-59366667D01*
X92363855Y-60128571D02*
X92363855Y-59671428D01*
X92363855Y-59900000D02*
X91563855Y-59900000D01*
X91563855Y-59900000D02*
X91678140Y-59823809D01*
X91678140Y-59823809D02*
X91754331Y-59747619D01*
X91754331Y-59747619D02*
X91792426Y-59671428D01*
X60033332Y-62587664D02*
X60071428Y-62625760D01*
X60071428Y-62625760D02*
X60185713Y-62663855D01*
X60185713Y-62663855D02*
X60261904Y-62663855D01*
X60261904Y-62663855D02*
X60376190Y-62625760D01*
X60376190Y-62625760D02*
X60452380Y-62549569D01*
X60452380Y-62549569D02*
X60490475Y-62473379D01*
X60490475Y-62473379D02*
X60528571Y-62320998D01*
X60528571Y-62320998D02*
X60528571Y-62206712D01*
X60528571Y-62206712D02*
X60490475Y-62054331D01*
X60490475Y-62054331D02*
X60452380Y-61978140D01*
X60452380Y-61978140D02*
X60376190Y-61901950D01*
X60376190Y-61901950D02*
X60261904Y-61863855D01*
X60261904Y-61863855D02*
X60185713Y-61863855D01*
X60185713Y-61863855D02*
X60071428Y-61901950D01*
X60071428Y-61901950D02*
X60033332Y-61940045D01*
X59347618Y-62130521D02*
X59347618Y-62663855D01*
X59538094Y-61825760D02*
X59728571Y-62397188D01*
X59728571Y-62397188D02*
X59233332Y-62397188D01*
X60133333Y-78263855D02*
X60514285Y-78263855D01*
X60514285Y-78263855D02*
X60514285Y-77463855D01*
X59447619Y-78263855D02*
X59904762Y-78263855D01*
X59676190Y-78263855D02*
X59676190Y-77463855D01*
X59676190Y-77463855D02*
X59752381Y-77578140D01*
X59752381Y-77578140D02*
X59828571Y-77654331D01*
X59828571Y-77654331D02*
X59904762Y-77692426D01*
X88363855Y-86485714D02*
X87982902Y-86219047D01*
X88363855Y-86028571D02*
X87563855Y-86028571D01*
X87563855Y-86028571D02*
X87563855Y-86333333D01*
X87563855Y-86333333D02*
X87601950Y-86409523D01*
X87601950Y-86409523D02*
X87640045Y-86447618D01*
X87640045Y-86447618D02*
X87716236Y-86485714D01*
X87716236Y-86485714D02*
X87830521Y-86485714D01*
X87830521Y-86485714D02*
X87906712Y-86447618D01*
X87906712Y-86447618D02*
X87944807Y-86409523D01*
X87944807Y-86409523D02*
X87982902Y-86333333D01*
X87982902Y-86333333D02*
X87982902Y-86028571D01*
X88363855Y-87247618D02*
X88363855Y-86790475D01*
X88363855Y-87019047D02*
X87563855Y-87019047D01*
X87563855Y-87019047D02*
X87678140Y-86942856D01*
X87678140Y-86942856D02*
X87754331Y-86866666D01*
X87754331Y-86866666D02*
X87792426Y-86790475D01*
X87563855Y-87514285D02*
X87563855Y-88047619D01*
X87563855Y-88047619D02*
X88363855Y-87704761D01*
X70940475Y-80063855D02*
X70940475Y-79263855D01*
X70940475Y-79263855D02*
X70749999Y-79263855D01*
X70749999Y-79263855D02*
X70635713Y-79301950D01*
X70635713Y-79301950D02*
X70559523Y-79378140D01*
X70559523Y-79378140D02*
X70521428Y-79454331D01*
X70521428Y-79454331D02*
X70483332Y-79606712D01*
X70483332Y-79606712D02*
X70483332Y-79720998D01*
X70483332Y-79720998D02*
X70521428Y-79873379D01*
X70521428Y-79873379D02*
X70559523Y-79949569D01*
X70559523Y-79949569D02*
X70635713Y-80025760D01*
X70635713Y-80025760D02*
X70749999Y-80063855D01*
X70749999Y-80063855D02*
X70940475Y-80063855D01*
X70216666Y-79263855D02*
X69683332Y-79263855D01*
X69683332Y-79263855D02*
X70026190Y-80063855D01*
X94609523Y-87063855D02*
X94609523Y-87711474D01*
X94609523Y-87711474D02*
X94571428Y-87787664D01*
X94571428Y-87787664D02*
X94533333Y-87825760D01*
X94533333Y-87825760D02*
X94457142Y-87863855D01*
X94457142Y-87863855D02*
X94304761Y-87863855D01*
X94304761Y-87863855D02*
X94228571Y-87825760D01*
X94228571Y-87825760D02*
X94190476Y-87787664D01*
X94190476Y-87787664D02*
X94152380Y-87711474D01*
X94152380Y-87711474D02*
X94152380Y-87063855D01*
X93809524Y-87140045D02*
X93771428Y-87101950D01*
X93771428Y-87101950D02*
X93695238Y-87063855D01*
X93695238Y-87063855D02*
X93504762Y-87063855D01*
X93504762Y-87063855D02*
X93428571Y-87101950D01*
X93428571Y-87101950D02*
X93390476Y-87140045D01*
X93390476Y-87140045D02*
X93352381Y-87216236D01*
X93352381Y-87216236D02*
X93352381Y-87292426D01*
X93352381Y-87292426D02*
X93390476Y-87406712D01*
X93390476Y-87406712D02*
X93847619Y-87863855D01*
X93847619Y-87863855D02*
X93352381Y-87863855D01*
X93609523Y-66063855D02*
X93609523Y-66711474D01*
X93609523Y-66711474D02*
X93571428Y-66787664D01*
X93571428Y-66787664D02*
X93533333Y-66825760D01*
X93533333Y-66825760D02*
X93457142Y-66863855D01*
X93457142Y-66863855D02*
X93304761Y-66863855D01*
X93304761Y-66863855D02*
X93228571Y-66825760D01*
X93228571Y-66825760D02*
X93190476Y-66787664D01*
X93190476Y-66787664D02*
X93152380Y-66711474D01*
X93152380Y-66711474D02*
X93152380Y-66063855D01*
X92352381Y-66863855D02*
X92809524Y-66863855D01*
X92580952Y-66863855D02*
X92580952Y-66063855D01*
X92580952Y-66063855D02*
X92657143Y-66178140D01*
X92657143Y-66178140D02*
X92733333Y-66254331D01*
X92733333Y-66254331D02*
X92809524Y-66292426D01*
X80133332Y-85287664D02*
X80171428Y-85325760D01*
X80171428Y-85325760D02*
X80285713Y-85363855D01*
X80285713Y-85363855D02*
X80361904Y-85363855D01*
X80361904Y-85363855D02*
X80476190Y-85325760D01*
X80476190Y-85325760D02*
X80552380Y-85249569D01*
X80552380Y-85249569D02*
X80590475Y-85173379D01*
X80590475Y-85173379D02*
X80628571Y-85020998D01*
X80628571Y-85020998D02*
X80628571Y-84906712D01*
X80628571Y-84906712D02*
X80590475Y-84754331D01*
X80590475Y-84754331D02*
X80552380Y-84678140D01*
X80552380Y-84678140D02*
X80476190Y-84601950D01*
X80476190Y-84601950D02*
X80361904Y-84563855D01*
X80361904Y-84563855D02*
X80285713Y-84563855D01*
X80285713Y-84563855D02*
X80171428Y-84601950D01*
X80171428Y-84601950D02*
X80133332Y-84640045D01*
X79866666Y-84563855D02*
X79371428Y-84563855D01*
X79371428Y-84563855D02*
X79638094Y-84868617D01*
X79638094Y-84868617D02*
X79523809Y-84868617D01*
X79523809Y-84868617D02*
X79447618Y-84906712D01*
X79447618Y-84906712D02*
X79409523Y-84944807D01*
X79409523Y-84944807D02*
X79371428Y-85020998D01*
X79371428Y-85020998D02*
X79371428Y-85211474D01*
X79371428Y-85211474D02*
X79409523Y-85287664D01*
X79409523Y-85287664D02*
X79447618Y-85325760D01*
X79447618Y-85325760D02*
X79523809Y-85363855D01*
X79523809Y-85363855D02*
X79752380Y-85363855D01*
X79752380Y-85363855D02*
X79828571Y-85325760D01*
X79828571Y-85325760D02*
X79866666Y-85287664D01*
X80109523Y-61563855D02*
X80109523Y-62211474D01*
X80109523Y-62211474D02*
X80071428Y-62287664D01*
X80071428Y-62287664D02*
X80033333Y-62325760D01*
X80033333Y-62325760D02*
X79957142Y-62363855D01*
X79957142Y-62363855D02*
X79804761Y-62363855D01*
X79804761Y-62363855D02*
X79728571Y-62325760D01*
X79728571Y-62325760D02*
X79690476Y-62287664D01*
X79690476Y-62287664D02*
X79652380Y-62211474D01*
X79652380Y-62211474D02*
X79652380Y-61563855D01*
X78928571Y-61830521D02*
X78928571Y-62363855D01*
X79119047Y-61525760D02*
X79309524Y-62097188D01*
X79309524Y-62097188D02*
X78814285Y-62097188D01*
X93287664Y-80366667D02*
X93325760Y-80328571D01*
X93325760Y-80328571D02*
X93363855Y-80214286D01*
X93363855Y-80214286D02*
X93363855Y-80138095D01*
X93363855Y-80138095D02*
X93325760Y-80023809D01*
X93325760Y-80023809D02*
X93249569Y-79947619D01*
X93249569Y-79947619D02*
X93173379Y-79909524D01*
X93173379Y-79909524D02*
X93020998Y-79871428D01*
X93020998Y-79871428D02*
X92906712Y-79871428D01*
X92906712Y-79871428D02*
X92754331Y-79909524D01*
X92754331Y-79909524D02*
X92678140Y-79947619D01*
X92678140Y-79947619D02*
X92601950Y-80023809D01*
X92601950Y-80023809D02*
X92563855Y-80138095D01*
X92563855Y-80138095D02*
X92563855Y-80214286D01*
X92563855Y-80214286D02*
X92601950Y-80328571D01*
X92601950Y-80328571D02*
X92640045Y-80366667D01*
X92640045Y-80671428D02*
X92601950Y-80709524D01*
X92601950Y-80709524D02*
X92563855Y-80785714D01*
X92563855Y-80785714D02*
X92563855Y-80976190D01*
X92563855Y-80976190D02*
X92601950Y-81052381D01*
X92601950Y-81052381D02*
X92640045Y-81090476D01*
X92640045Y-81090476D02*
X92716236Y-81128571D01*
X92716236Y-81128571D02*
X92792426Y-81128571D01*
X92792426Y-81128571D02*
X92906712Y-81090476D01*
X92906712Y-81090476D02*
X93363855Y-80633333D01*
X93363855Y-80633333D02*
X93363855Y-81128571D01*
%TO.C,C1*%
X89859420Y-58990000D02*
X90140580Y-58990000D01*
X89859420Y-60010000D02*
X90140580Y-60010000D01*
%TO.C,C4*%
X51749759Y-62339000D02*
X52379759Y-62339000D01*
X52064759Y-62654000D02*
X52064759Y-62024000D01*
X55250000Y-63730000D02*
X55250000Y-57270000D01*
X55290000Y-63730000D02*
X55290000Y-57270000D01*
X55330000Y-63729000D02*
X55330000Y-57271000D01*
X55370000Y-63728000D02*
X55370000Y-57272000D01*
X55410000Y-63726000D02*
X55410000Y-57274000D01*
X55450000Y-63724000D02*
X55450000Y-57276000D01*
X55490000Y-59460000D02*
X55490000Y-57279000D01*
X55490000Y-63721000D02*
X55490000Y-61540000D01*
X55530000Y-59460000D02*
X55530000Y-57282000D01*
X55530000Y-63718000D02*
X55530000Y-61540000D01*
X55570000Y-59460000D02*
X55570000Y-57286000D01*
X55570000Y-63714000D02*
X55570000Y-61540000D01*
X55610000Y-59460000D02*
X55610000Y-57290000D01*
X55610000Y-63710000D02*
X55610000Y-61540000D01*
X55650000Y-59460000D02*
X55650000Y-57295000D01*
X55650000Y-63705000D02*
X55650000Y-61540000D01*
X55690000Y-59460000D02*
X55690000Y-57300000D01*
X55690000Y-63700000D02*
X55690000Y-61540000D01*
X55730000Y-59460000D02*
X55730000Y-57305000D01*
X55730000Y-63695000D02*
X55730000Y-61540000D01*
X55770000Y-59460000D02*
X55770000Y-57312000D01*
X55770000Y-63688000D02*
X55770000Y-61540000D01*
X55810000Y-59460000D02*
X55810000Y-57318000D01*
X55810000Y-63682000D02*
X55810000Y-61540000D01*
X55850000Y-59460000D02*
X55850000Y-57326000D01*
X55850000Y-63674000D02*
X55850000Y-61540000D01*
X55890000Y-59460000D02*
X55890000Y-57333000D01*
X55890000Y-63667000D02*
X55890000Y-61540000D01*
X55930000Y-59460000D02*
X55930000Y-57341000D01*
X55930000Y-63659000D02*
X55930000Y-61540000D01*
X55970000Y-59460000D02*
X55970000Y-57350000D01*
X55970000Y-63650000D02*
X55970000Y-61540000D01*
X56010000Y-59460000D02*
X56010000Y-57360000D01*
X56010000Y-63640000D02*
X56010000Y-61540000D01*
X56050000Y-59460000D02*
X56050000Y-57369000D01*
X56050000Y-63631000D02*
X56050000Y-61540000D01*
X56090000Y-59460000D02*
X56090000Y-57380000D01*
X56090000Y-63620000D02*
X56090000Y-61540000D01*
X56130000Y-59460000D02*
X56130000Y-57391000D01*
X56130000Y-63609000D02*
X56130000Y-61540000D01*
X56170000Y-59460000D02*
X56170000Y-57402000D01*
X56170000Y-63598000D02*
X56170000Y-61540000D01*
X56210000Y-59460000D02*
X56210000Y-57414000D01*
X56210000Y-63586000D02*
X56210000Y-61540000D01*
X56250000Y-59460000D02*
X56250000Y-57427000D01*
X56250000Y-63573000D02*
X56250000Y-61540000D01*
X56290000Y-59460000D02*
X56290000Y-57440000D01*
X56290000Y-63560000D02*
X56290000Y-61540000D01*
X56330000Y-59460000D02*
X56330000Y-57453000D01*
X56330000Y-63547000D02*
X56330000Y-61540000D01*
X56370000Y-59460000D02*
X56370000Y-57468000D01*
X56370000Y-63532000D02*
X56370000Y-61540000D01*
X56410000Y-59460000D02*
X56410000Y-57483000D01*
X56410000Y-63517000D02*
X56410000Y-61540000D01*
X56450000Y-59460000D02*
X56450000Y-57498000D01*
X56450000Y-63502000D02*
X56450000Y-61540000D01*
X56490000Y-59460000D02*
X56490000Y-57514000D01*
X56490000Y-63486000D02*
X56490000Y-61540000D01*
X56530000Y-59460000D02*
X56530000Y-57531000D01*
X56530000Y-63469000D02*
X56530000Y-61540000D01*
X56570000Y-59460000D02*
X56570000Y-57548000D01*
X56570000Y-63452000D02*
X56570000Y-61540000D01*
X56610000Y-59460000D02*
X56610000Y-57566000D01*
X56610000Y-63434000D02*
X56610000Y-61540000D01*
X56650000Y-59460000D02*
X56650000Y-57585000D01*
X56650000Y-63415000D02*
X56650000Y-61540000D01*
X56690000Y-59460000D02*
X56690000Y-57604000D01*
X56690000Y-63396000D02*
X56690000Y-61540000D01*
X56730000Y-59460000D02*
X56730000Y-57624000D01*
X56730000Y-63376000D02*
X56730000Y-61540000D01*
X56770000Y-59460000D02*
X56770000Y-57645000D01*
X56770000Y-63355000D02*
X56770000Y-61540000D01*
X56810000Y-59460000D02*
X56810000Y-57666000D01*
X56810000Y-63334000D02*
X56810000Y-61540000D01*
X56850000Y-59460000D02*
X56850000Y-57688000D01*
X56850000Y-63312000D02*
X56850000Y-61540000D01*
X56890000Y-59460000D02*
X56890000Y-57711000D01*
X56890000Y-63289000D02*
X56890000Y-61540000D01*
X56930000Y-59460000D02*
X56930000Y-57735000D01*
X56930000Y-63265000D02*
X56930000Y-61540000D01*
X56970000Y-59460000D02*
X56970000Y-57759000D01*
X56970000Y-63241000D02*
X56970000Y-61540000D01*
X57010000Y-59460000D02*
X57010000Y-57784000D01*
X57010000Y-63216000D02*
X57010000Y-61540000D01*
X57050000Y-59460000D02*
X57050000Y-57810000D01*
X57050000Y-63190000D02*
X57050000Y-61540000D01*
X57090000Y-59460000D02*
X57090000Y-57837000D01*
X57090000Y-63163000D02*
X57090000Y-61540000D01*
X57130000Y-59460000D02*
X57130000Y-57864000D01*
X57130000Y-63136000D02*
X57130000Y-61540000D01*
X57170000Y-59460000D02*
X57170000Y-57893000D01*
X57170000Y-63107000D02*
X57170000Y-61540000D01*
X57210000Y-59460000D02*
X57210000Y-57923000D01*
X57210000Y-63077000D02*
X57210000Y-61540000D01*
X57250000Y-59460000D02*
X57250000Y-57953000D01*
X57250000Y-63047000D02*
X57250000Y-61540000D01*
X57290000Y-59460000D02*
X57290000Y-57984000D01*
X57290000Y-63016000D02*
X57290000Y-61540000D01*
X57330000Y-59460000D02*
X57330000Y-58017000D01*
X57330000Y-62983000D02*
X57330000Y-61540000D01*
X57370000Y-59460000D02*
X57370000Y-58050000D01*
X57370000Y-62950000D02*
X57370000Y-61540000D01*
X57410000Y-59460000D02*
X57410000Y-58085000D01*
X57410000Y-62915000D02*
X57410000Y-61540000D01*
X57450000Y-59460000D02*
X57450000Y-58121000D01*
X57450000Y-62879000D02*
X57450000Y-61540000D01*
X57490000Y-59460000D02*
X57490000Y-58158000D01*
X57490000Y-62842000D02*
X57490000Y-61540000D01*
X57530000Y-59460000D02*
X57530000Y-58196000D01*
X57530000Y-62804000D02*
X57530000Y-61540000D01*
X57570000Y-62764000D02*
X57570000Y-58236000D01*
X57610000Y-62723000D02*
X57610000Y-58277000D01*
X57650000Y-62681000D02*
X57650000Y-58319000D01*
X57690000Y-62637000D02*
X57690000Y-58363000D01*
X57730000Y-62591000D02*
X57730000Y-58409000D01*
X57770000Y-62544000D02*
X57770000Y-58456000D01*
X57810000Y-62495000D02*
X57810000Y-58505000D01*
X57850000Y-62443000D02*
X57850000Y-58557000D01*
X57890000Y-62390000D02*
X57890000Y-58610000D01*
X57930000Y-62334000D02*
X57930000Y-58666000D01*
X57970000Y-62275000D02*
X57970000Y-58725000D01*
X58010000Y-62214000D02*
X58010000Y-58786000D01*
X58050000Y-62149000D02*
X58050000Y-58851000D01*
X58090000Y-62081000D02*
X58090000Y-58919000D01*
X58130000Y-62009000D02*
X58130000Y-58991000D01*
X58170000Y-61932000D02*
X58170000Y-59068000D01*
X58210000Y-61850000D02*
X58210000Y-59150000D01*
X58250000Y-61761000D02*
X58250000Y-59239000D01*
X58290000Y-61665000D02*
X58290000Y-59335000D01*
X58330000Y-61558000D02*
X58330000Y-59442000D01*
X58370000Y-61439000D02*
X58370000Y-59561000D01*
X58410000Y-61301000D02*
X58410000Y-59699000D01*
X58450000Y-61133000D02*
X58450000Y-59867000D01*
X58490000Y-60902000D02*
X58490000Y-60098000D01*
X58520000Y-60500000D02*
G75*
G02*
X51980000Y-60500000I-3270000J0D01*
G01*
X51980000Y-60500000D02*
G75*
G02*
X58520000Y-60500000I3270000J0D01*
G01*
%TO.C,L1*%
X53600000Y-64950000D02*
X53600000Y-67700000D01*
X53600000Y-73700000D02*
X53600000Y-76450000D01*
X54250000Y-77100000D02*
X65750000Y-77100000D01*
X65750000Y-64300000D02*
X54250000Y-64300000D01*
X66400000Y-64950000D02*
X66400000Y-67700000D01*
X66400000Y-73700000D02*
X66400000Y-76450000D01*
X53600000Y-64950000D02*
G75*
G02*
X54250000Y-64300000I650000J0D01*
G01*
X54250000Y-77100000D02*
G75*
G02*
X53600000Y-76450000I0J650000D01*
G01*
X65750000Y-64300000D02*
G75*
G02*
X66400000Y-64950000I-1J-650001D01*
G01*
X66400000Y-76450000D02*
G75*
G02*
X65750000Y-77100000I-650001J1D01*
G01*
%TO.C,R17*%
X85620000Y-87153641D02*
X85620000Y-86846359D01*
X86380000Y-87153641D02*
X86380000Y-86846359D01*
%TO.C,D7*%
X67100000Y-74790000D02*
X67100000Y-83300000D01*
X73600000Y-74790000D02*
X67100000Y-74790000D01*
X73600000Y-74790000D02*
X73600000Y-83300000D01*
%TO.C,U2*%
X91240000Y-82290000D02*
X91240000Y-82715000D01*
X91240000Y-88285000D02*
X91240000Y-88710000D01*
X91240000Y-88710000D02*
X96760000Y-88710000D01*
X96760000Y-82290000D02*
X91240000Y-82290000D01*
X96760000Y-82715000D02*
X96760000Y-82290000D01*
X96760000Y-88710000D02*
X96760000Y-88285000D01*
X97420000Y-82710000D02*
X97760000Y-82240000D01*
X97080000Y-82240000D01*
X97420000Y-82710000D01*
G36*
X97420000Y-82710000D02*
G01*
X97080000Y-82240000D01*
X97760000Y-82240000D01*
X97420000Y-82710000D01*
G37*
%TO.C,U1*%
X90240000Y-61290000D02*
X90240000Y-61715000D01*
X90240000Y-67285000D02*
X90240000Y-67710000D01*
X90240000Y-67710000D02*
X95760000Y-67710000D01*
X95760000Y-61290000D02*
X90240000Y-61290000D01*
X95760000Y-61715000D02*
X95760000Y-61290000D01*
X95760000Y-67710000D02*
X95760000Y-67285000D01*
X96420000Y-61710000D02*
X96760000Y-61240000D01*
X96080000Y-61240000D01*
X96420000Y-61710000D01*
G36*
X96420000Y-61710000D02*
G01*
X96080000Y-61240000D01*
X96760000Y-61240000D01*
X96420000Y-61710000D01*
G37*
%TO.C,C3*%
X74340302Y-81815000D02*
X75140302Y-81815000D01*
X74740302Y-82215000D02*
X74740302Y-81415000D01*
X78750000Y-83580000D02*
X78750000Y-75420000D01*
X78790000Y-83580000D02*
X78790000Y-75420000D01*
X78830000Y-83579000D02*
X78830000Y-75421000D01*
X78870000Y-83578000D02*
X78870000Y-75422000D01*
X78910000Y-83577000D02*
X78910000Y-75423000D01*
X78950000Y-83575000D02*
X78950000Y-75425000D01*
X78990000Y-83573000D02*
X78990000Y-75427000D01*
X79030000Y-83570000D02*
X79030000Y-75430000D01*
X79070000Y-83568000D02*
X79070000Y-75432000D01*
X79110000Y-83564000D02*
X79110000Y-75436000D01*
X79150000Y-83561000D02*
X79150000Y-75439000D01*
X79190000Y-83556000D02*
X79190000Y-75444000D01*
X79230000Y-83552000D02*
X79230000Y-75448000D01*
X79270000Y-83547000D02*
X79270000Y-75453000D01*
X79310000Y-83542000D02*
X79310000Y-75458000D01*
X79350000Y-83536000D02*
X79350000Y-75464000D01*
X79390000Y-83530000D02*
X79390000Y-75470000D01*
X79430000Y-83523000D02*
X79430000Y-75477000D01*
X79470000Y-78460000D02*
X79470000Y-75483000D01*
X79470000Y-83517000D02*
X79470000Y-80540000D01*
X79510000Y-78460000D02*
X79510000Y-75491000D01*
X79510000Y-83509000D02*
X79510000Y-80540000D01*
X79550000Y-78460000D02*
X79550000Y-75498000D01*
X79550000Y-83502000D02*
X79550000Y-80540000D01*
X79590000Y-78460000D02*
X79590000Y-75507000D01*
X79590000Y-83493000D02*
X79590000Y-80540000D01*
X79630000Y-78460000D02*
X79630000Y-75515000D01*
X79630000Y-83485000D02*
X79630000Y-80540000D01*
X79670000Y-78460000D02*
X79670000Y-75524000D01*
X79670000Y-83476000D02*
X79670000Y-80540000D01*
X79710000Y-78460000D02*
X79710000Y-75533000D01*
X79710000Y-83467000D02*
X79710000Y-80540000D01*
X79750000Y-78460000D02*
X79750000Y-75543000D01*
X79750000Y-83457000D02*
X79750000Y-80540000D01*
X79790000Y-78460000D02*
X79790000Y-75553000D01*
X79790000Y-83447000D02*
X79790000Y-80540000D01*
X79830000Y-78460000D02*
X79830000Y-75564000D01*
X79830000Y-83436000D02*
X79830000Y-80540000D01*
X79870000Y-78460000D02*
X79870000Y-75575000D01*
X79870000Y-83425000D02*
X79870000Y-80540000D01*
X79910000Y-78460000D02*
X79910000Y-75587000D01*
X79910000Y-83413000D02*
X79910000Y-80540000D01*
X79950000Y-78460000D02*
X79950000Y-75599000D01*
X79950000Y-83401000D02*
X79950000Y-80540000D01*
X79990000Y-78460000D02*
X79990000Y-75611000D01*
X79990000Y-83389000D02*
X79990000Y-80540000D01*
X80030000Y-78460000D02*
X80030000Y-75624000D01*
X80030000Y-83376000D02*
X80030000Y-80540000D01*
X80070000Y-78460000D02*
X80070000Y-75637000D01*
X80070000Y-83363000D02*
X80070000Y-80540000D01*
X80110000Y-78460000D02*
X80110000Y-75651000D01*
X80110000Y-83349000D02*
X80110000Y-80540000D01*
X80150000Y-78460000D02*
X80150000Y-75665000D01*
X80150000Y-83335000D02*
X80150000Y-80540000D01*
X80190000Y-78460000D02*
X80190000Y-75680000D01*
X80190000Y-83320000D02*
X80190000Y-80540000D01*
X80230000Y-78460000D02*
X80230000Y-75695000D01*
X80230000Y-83305000D02*
X80230000Y-80540000D01*
X80270000Y-78460000D02*
X80270000Y-75711000D01*
X80270000Y-83289000D02*
X80270000Y-80540000D01*
X80310000Y-78460000D02*
X80310000Y-75727000D01*
X80310000Y-83273000D02*
X80310000Y-80540000D01*
X80350000Y-78460000D02*
X80350000Y-75743000D01*
X80350000Y-83257000D02*
X80350000Y-80540000D01*
X80390000Y-78460000D02*
X80390000Y-75760000D01*
X80390000Y-83240000D02*
X80390000Y-80540000D01*
X80430000Y-78460000D02*
X80430000Y-75778000D01*
X80430000Y-83222000D02*
X80430000Y-80540000D01*
X80470000Y-78460000D02*
X80470000Y-75796000D01*
X80470000Y-83204000D02*
X80470000Y-80540000D01*
X80510000Y-78460000D02*
X80510000Y-75815000D01*
X80510000Y-83185000D02*
X80510000Y-80540000D01*
X80550000Y-78460000D02*
X80550000Y-75834000D01*
X80550000Y-83166000D02*
X80550000Y-80540000D01*
X80590000Y-78460000D02*
X80590000Y-75854000D01*
X80590000Y-83146000D02*
X80590000Y-80540000D01*
X80630000Y-78460000D02*
X80630000Y-75874000D01*
X80630000Y-83126000D02*
X80630000Y-80540000D01*
X80670000Y-78460000D02*
X80670000Y-75895000D01*
X80670000Y-83105000D02*
X80670000Y-80540000D01*
X80710000Y-78460000D02*
X80710000Y-75916000D01*
X80710000Y-83084000D02*
X80710000Y-80540000D01*
X80750000Y-78460000D02*
X80750000Y-75938000D01*
X80750000Y-83062000D02*
X80750000Y-80540000D01*
X80790000Y-78460000D02*
X80790000Y-75961000D01*
X80790000Y-83039000D02*
X80790000Y-80540000D01*
X80830000Y-78460000D02*
X80830000Y-75984000D01*
X80830000Y-83016000D02*
X80830000Y-80540000D01*
X80870000Y-78460000D02*
X80870000Y-76007000D01*
X80870000Y-82993000D02*
X80870000Y-80540000D01*
X80910000Y-78460000D02*
X80910000Y-76032000D01*
X80910000Y-82968000D02*
X80910000Y-80540000D01*
X80950000Y-78460000D02*
X80950000Y-76057000D01*
X80950000Y-82943000D02*
X80950000Y-80540000D01*
X80990000Y-78460000D02*
X80990000Y-76082000D01*
X80990000Y-82918000D02*
X80990000Y-80540000D01*
X81030000Y-78460000D02*
X81030000Y-76108000D01*
X81030000Y-82892000D02*
X81030000Y-80540000D01*
X81070000Y-78460000D02*
X81070000Y-76135000D01*
X81070000Y-82865000D02*
X81070000Y-80540000D01*
X81110000Y-78460000D02*
X81110000Y-76163000D01*
X81110000Y-82837000D02*
X81110000Y-80540000D01*
X81150000Y-78460000D02*
X81150000Y-76191000D01*
X81150000Y-82809000D02*
X81150000Y-80540000D01*
X81190000Y-78460000D02*
X81190000Y-76220000D01*
X81190000Y-82780000D02*
X81190000Y-80540000D01*
X81230000Y-78460000D02*
X81230000Y-76250000D01*
X81230000Y-82750000D02*
X81230000Y-80540000D01*
X81270000Y-78460000D02*
X81270000Y-76281000D01*
X81270000Y-82719000D02*
X81270000Y-80540000D01*
X81310000Y-78460000D02*
X81310000Y-76312000D01*
X81310000Y-82688000D02*
X81310000Y-80540000D01*
X81350000Y-78460000D02*
X81350000Y-76344000D01*
X81350000Y-82656000D02*
X81350000Y-80540000D01*
X81390000Y-78460000D02*
X81390000Y-76377000D01*
X81390000Y-82623000D02*
X81390000Y-80540000D01*
X81430000Y-78460000D02*
X81430000Y-76411000D01*
X81430000Y-82589000D02*
X81430000Y-80540000D01*
X81470000Y-78460000D02*
X81470000Y-76445000D01*
X81470000Y-82555000D02*
X81470000Y-80540000D01*
X81510000Y-78460000D02*
X81510000Y-76481000D01*
X81510000Y-82519000D02*
X81510000Y-80540000D01*
X81550000Y-82482000D02*
X81550000Y-76518000D01*
X81590000Y-82445000D02*
X81590000Y-76555000D01*
X81630000Y-82406000D02*
X81630000Y-76594000D01*
X81670000Y-82367000D02*
X81670000Y-76633000D01*
X81710000Y-82326000D02*
X81710000Y-76674000D01*
X81750000Y-82284000D02*
X81750000Y-76716000D01*
X81790000Y-82241000D02*
X81790000Y-76759000D01*
X81830000Y-82196000D02*
X81830000Y-76804000D01*
X81870000Y-82151000D02*
X81870000Y-76849000D01*
X81910000Y-82104000D02*
X81910000Y-76896000D01*
X81950000Y-82055000D02*
X81950000Y-76945000D01*
X81990000Y-82005000D02*
X81990000Y-76995000D01*
X82030000Y-81953000D02*
X82030000Y-77047000D01*
X82070000Y-81900000D02*
X82070000Y-77100000D01*
X82110000Y-81844000D02*
X82110000Y-77156000D01*
X82150000Y-81787000D02*
X82150000Y-77213000D01*
X82190000Y-81727000D02*
X82190000Y-77273000D01*
X82230000Y-81665000D02*
X82230000Y-77335000D01*
X82270000Y-81601000D02*
X82270000Y-77399000D01*
X82310000Y-81534000D02*
X82310000Y-77466000D01*
X82350000Y-81464000D02*
X82350000Y-77536000D01*
X82390000Y-81390000D02*
X82390000Y-77610000D01*
X82430000Y-81313000D02*
X82430000Y-77687000D01*
X82470000Y-81231000D02*
X82470000Y-77769000D01*
X82510000Y-81144000D02*
X82510000Y-77856000D01*
X82550000Y-81052000D02*
X82550000Y-77948000D01*
X82590000Y-80953000D02*
X82590000Y-78047000D01*
X82630000Y-80846000D02*
X82630000Y-78154000D01*
X82670000Y-80728000D02*
X82670000Y-78272000D01*
X82710000Y-80597000D02*
X82710000Y-78403000D01*
X82750000Y-80447000D02*
X82750000Y-78553000D01*
X82790000Y-80268000D02*
X82790000Y-78732000D01*
X82830000Y-80033000D02*
X82830000Y-78967000D01*
X82870000Y-79500000D02*
G75*
G02*
X74630000Y-79500000I-4120000J0D01*
G01*
X74630000Y-79500000D02*
G75*
G02*
X82870000Y-79500000I4120000J0D01*
G01*
%TO.C,U4*%
X73175000Y-63800000D02*
X73175000Y-64750000D01*
X73175000Y-74200000D02*
X73175000Y-73250000D01*
X74540000Y-63800000D02*
X73175000Y-63800000D01*
X74540000Y-74200000D02*
X73175000Y-74200000D01*
X70350000Y-73210000D02*
X70010000Y-73680000D01*
X70690000Y-73680000D01*
X70350000Y-73210000D01*
G36*
X70690000Y-73680000D02*
G01*
X70010000Y-73680000D01*
X70350000Y-73210000D01*
X70690000Y-73680000D01*
G37*
%TO.C,C2*%
X90859420Y-79990000D02*
X91140580Y-79990000D01*
X90859420Y-81010000D02*
X91140580Y-81010000D01*
%TD*%
%LPC*%
D11*
%TO.C,D2*%
X79500000Y-55300000D03*
D12*
X76000000Y-55300000D03*
X72500000Y-55300000D03*
X69000000Y-55300000D03*
%TD*%
D13*
%TO.C,J3*%
X82750000Y-91900000D03*
X86250000Y-91900000D03*
X89750000Y-91900000D03*
X93250000Y-91900000D03*
X96750000Y-91900000D03*
X100250000Y-91900000D03*
X103750000Y-91900000D03*
X107250000Y-91900000D03*
X110750000Y-91900000D03*
X114250000Y-91900000D03*
%TD*%
D11*
%TO.C,D4*%
X110500000Y-55300000D03*
D12*
X107000000Y-55300000D03*
X103500000Y-55300000D03*
X100000000Y-55300000D03*
%TD*%
D11*
%TO.C,D3*%
X95000000Y-55300000D03*
D12*
X91500000Y-55300000D03*
X88000000Y-55300000D03*
X84500000Y-55300000D03*
%TD*%
D14*
%TO.C,J1*%
X56000000Y-85800000D03*
X58540000Y-85800000D03*
X61080000Y-85800000D03*
X63620000Y-85800000D03*
%TD*%
D15*
%TO.C,D5*%
X53000000Y-94700000D03*
D12*
X56500000Y-94700000D03*
X60000000Y-94700000D03*
X63500000Y-94700000D03*
%TD*%
D16*
%TO.C,J2*%
X109600000Y-77065900D03*
X109600000Y-63934100D03*
%TD*%
D15*
%TO.C,D6*%
X69000000Y-94700000D03*
D12*
X72500000Y-94700000D03*
%TD*%
D17*
%TO.C,BZ1*%
X85000000Y-80000000D03*
D18*
X95000000Y-80000000D03*
%TD*%
D11*
%TO.C,D1*%
X64000000Y-55300000D03*
D12*
X60500000Y-55300000D03*
X57000000Y-55300000D03*
X53500000Y-55300000D03*
%TD*%
D19*
%TO.C,C1*%
X89225000Y-59500000D03*
X90775000Y-59500000D03*
%TD*%
D20*
%TO.C,C4*%
X54000000Y-60500000D03*
D21*
X56500000Y-60500000D03*
%TD*%
D22*
%TO.C,L1*%
X64850000Y-70700000D03*
X55150000Y-70700000D03*
%TD*%
D23*
%TO.C,R17*%
X86000000Y-87510000D03*
X86000000Y-86490000D03*
%TD*%
D24*
%TO.C,D7*%
X70350000Y-76300000D03*
X70350000Y-83100000D03*
%TD*%
D25*
%TO.C,U2*%
X97412500Y-83225000D03*
X97412500Y-83875000D03*
X97412500Y-84525000D03*
X97412500Y-85175000D03*
X97412500Y-85825000D03*
X97412500Y-86475000D03*
X97412500Y-87125000D03*
X97412500Y-87775000D03*
X90587500Y-87775000D03*
X90587500Y-87125000D03*
X90587500Y-86475000D03*
X90587500Y-85825000D03*
X90587500Y-85175000D03*
X90587500Y-84525000D03*
X90587500Y-83875000D03*
X90587500Y-83225000D03*
%TD*%
%TO.C,U1*%
X96412500Y-62225000D03*
X96412500Y-62875000D03*
X96412500Y-63525000D03*
X96412500Y-64175000D03*
X96412500Y-64825000D03*
X96412500Y-65475000D03*
X96412500Y-66125000D03*
X96412500Y-66775000D03*
X89587500Y-66775000D03*
X89587500Y-66125000D03*
X89587500Y-65475000D03*
X89587500Y-64825000D03*
X89587500Y-64175000D03*
X89587500Y-63525000D03*
X89587500Y-62875000D03*
X89587500Y-62225000D03*
%TD*%
D20*
%TO.C,C3*%
X77000000Y-79500000D03*
D21*
X80500000Y-79500000D03*
%TD*%
D26*
%TO.C,U4*%
X70350000Y-72400000D03*
X70350000Y-70700000D03*
X70350000Y-69000000D03*
D27*
X79500000Y-69000000D03*
D26*
X70350000Y-67300000D03*
X70350000Y-65600000D03*
%TD*%
D19*
%TO.C,C2*%
X90225000Y-80500000D03*
X91775000Y-80500000D03*
%TD*%
%LPD*%
M02*
