%TF.GenerationSoftware,KiCad,Pcbnew,10.0.6*%
%TF.CreationDate,2026-09-26T15:22:29+07:00*%
%TF.ProjectId,dashboard,64617368-626f-4617-9264-2e6b69636164,rev?*%
%TF.SameCoordinates,Original*%
%TF.FileFunction,Soldermask,Bot*%
%TF.FilePolarity,Negative*%
%FSLAX46Y46*%
G04 Gerber Fmt 4.6, Leading zero omitted, Abs format (unit mm)*
G04 Created by KiCad (PCBNEW 10.0.6) date 2026-09-26 15:22:29*
%MOMM*%
%LPD*%
G01*
G04 APERTURE LIST*
G04 Aperture macros list*
%AMRoundRect*
0 Rectangle with rounded corners*
0 $1 Rounding radius*
0 $2 $3 $4 $5 $6 $7 $8 $9 X,Y pos of 4 corners*
0 Add a 4 corners polygon primitive as box body*
4,1,4,$2,$3,$4,$5,$6,$7,$8,$9,$2,$3,0*
0 Add four circle primitives for the rounded corners*
1,1,$1+$1,$2,$3*
1,1,$1+$1,$4,$5*
1,1,$1+$1,$6,$7*
1,1,$1+$1,$8,$9*
0 Add four rect primitives between the rounded corners*
20,1,$1+$1,$2,$3,$4,$5,0*
20,1,$1+$1,$4,$5,$6,$7,0*
20,1,$1+$1,$6,$7,$8,$9,0*
20,1,$1+$1,$8,$9,$2,$3,0*%
G04 Aperture macros list end*
%ADD10RoundRect,0.250001X0.949999X0.949999X-0.949999X0.949999X-0.949999X-0.949999X0.949999X-0.949999X0*%
%ADD11C,2.400000*%
%ADD12O,2.200000X4.400000*%
%ADD13C,1.879600*%
%ADD14RoundRect,0.250001X-0.949999X-0.949999X0.949999X-0.949999X0.949999X0.949999X-0.949999X0.949999X0*%
%ADD15C,3.327400*%
%ADD16R,2.000000X2.000000*%
%ADD17C,2.000000*%
%ADD18RoundRect,0.225000X-0.225000X-0.250000X0.225000X-0.250000X0.225000X0.250000X-0.225000X0.250000X0*%
%ADD19RoundRect,0.250000X-0.550000X-0.550000X0.550000X-0.550000X0.550000X0.550000X-0.550000X0.550000X0*%
%ADD20C,1.600000*%
%ADD21R,2.900000X5.400000*%
%ADD22RoundRect,0.135000X0.185000X-0.135000X0.185000X0.135000X-0.185000X0.135000X-0.185000X-0.135000X0*%
%ADD23RoundRect,0.250000X1.400000X1.000000X-1.400000X1.000000X-1.400000X-1.000000X1.400000X-1.000000X0*%
%ADD24RoundRect,0.125000X0.762500X0.125000X-0.762500X0.125000X-0.762500X-0.125000X0.762500X-0.125000X0*%
%ADD25RoundRect,0.250000X-2.050000X-0.300000X2.050000X-0.300000X2.050000X0.300000X-2.050000X0.300000X0*%
%ADD26RoundRect,0.250002X-4.449998X-5.149998X4.449998X-5.149998X4.449998X5.149998X-4.449998X5.149998X0*%
G04 APERTURE END LIST*
D10*
%TO.C,D2*%
X79500000Y-55300000D03*
D11*
X76000000Y-55300000D03*
X72500000Y-55300000D03*
X69000000Y-55300000D03*
%TD*%
D12*
%TO.C,J3*%
X82750000Y-91900000D03*
X86250000Y-91900000D03*
X89750000Y-91900000D03*
X93250000Y-91900000D03*
X96750000Y-91900000D03*
X100250000Y-91900000D03*
X103750000Y-91900000D03*
X107250000Y-91900000D03*
X110750000Y-91900000D03*
X114250000Y-91900000D03*
%TD*%
D10*
%TO.C,D4*%
X110500000Y-55300000D03*
D11*
X107000000Y-55300000D03*
X103500000Y-55300000D03*
X100000000Y-55300000D03*
%TD*%
D10*
%TO.C,D3*%
X95000000Y-55300000D03*
D11*
X91500000Y-55300000D03*
X88000000Y-55300000D03*
X84500000Y-55300000D03*
%TD*%
D13*
%TO.C,J1*%
X56000000Y-85800000D03*
X58540000Y-85800000D03*
X61080000Y-85800000D03*
X63620000Y-85800000D03*
%TD*%
D14*
%TO.C,D5*%
X53000000Y-94700000D03*
D11*
X56500000Y-94700000D03*
X60000000Y-94700000D03*
X63500000Y-94700000D03*
%TD*%
D15*
%TO.C,J2*%
X109600000Y-77065900D03*
X109600000Y-63934100D03*
%TD*%
D14*
%TO.C,D6*%
X69000000Y-94700000D03*
D11*
X72500000Y-94700000D03*
%TD*%
D16*
%TO.C,BZ1*%
X85000000Y-80000000D03*
D17*
X95000000Y-80000000D03*
%TD*%
D10*
%TO.C,D1*%
X64000000Y-55300000D03*
D11*
X60500000Y-55300000D03*
X57000000Y-55300000D03*
X53500000Y-55300000D03*
%TD*%
D18*
%TO.C,C1*%
X89225000Y-59500000D03*
X90775000Y-59500000D03*
%TD*%
D19*
%TO.C,C4*%
X54000000Y-60500000D03*
D20*
X56500000Y-60500000D03*
%TD*%
D21*
%TO.C,L1*%
X64850000Y-70700000D03*
X55150000Y-70700000D03*
%TD*%
D22*
%TO.C,R17*%
X86000000Y-87510000D03*
X86000000Y-86490000D03*
%TD*%
D23*
%TO.C,D7*%
X70350000Y-76300000D03*
X70350000Y-83100000D03*
%TD*%
D24*
%TO.C,U2*%
X97412500Y-83225000D03*
X97412500Y-83875000D03*
X97412500Y-84525000D03*
X97412500Y-85175000D03*
X97412500Y-85825000D03*
X97412500Y-86475000D03*
X97412500Y-87125000D03*
X97412500Y-87775000D03*
X90587500Y-87775000D03*
X90587500Y-87125000D03*
X90587500Y-86475000D03*
X90587500Y-85825000D03*
X90587500Y-85175000D03*
X90587500Y-84525000D03*
X90587500Y-83875000D03*
X90587500Y-83225000D03*
%TD*%
%TO.C,U1*%
X96412500Y-62225000D03*
X96412500Y-62875000D03*
X96412500Y-63525000D03*
X96412500Y-64175000D03*
X96412500Y-64825000D03*
X96412500Y-65475000D03*
X96412500Y-66125000D03*
X96412500Y-66775000D03*
X89587500Y-66775000D03*
X89587500Y-66125000D03*
X89587500Y-65475000D03*
X89587500Y-64825000D03*
X89587500Y-64175000D03*
X89587500Y-63525000D03*
X89587500Y-62875000D03*
X89587500Y-62225000D03*
%TD*%
D19*
%TO.C,C3*%
X77000000Y-79500000D03*
D20*
X80500000Y-79500000D03*
%TD*%
D25*
%TO.C,U4*%
X70350000Y-72400000D03*
X70350000Y-70700000D03*
X70350000Y-69000000D03*
D26*
X79500000Y-69000000D03*
D25*
X70350000Y-67300000D03*
X70350000Y-65600000D03*
%TD*%
D18*
%TO.C,C2*%
X90225000Y-80500000D03*
X91775000Y-80500000D03*
%TD*%
M02*
