%TF.GenerationSoftware,KiCad,Pcbnew,10.0.6*%
%TF.CreationDate,2026-09-26T15:22:29+07:00*%
%TF.ProjectId,dashboard,64617368-626f-4617-9264-2e6b69636164,rev?*%
%TF.SameCoordinates,Original*%
%TF.FileFunction,Paste,Bot*%
%TF.FilePolarity,Positive*%
%FSLAX46Y46*%
G04 Gerber Fmt 4.6, Leading zero omitted, Abs format (unit mm)*
G04 Created by KiCad (PCBNEW 10.0.6) date 2026-09-26 15:22:29*
%MOMM*%
%LPD*%
G01*
G04 APERTURE LIST*
G04 Aperture macros list*
%AMRoundRect*
0 Rectangle with rounded corners*
0 $1 Rounding radius*
0 $2 $3 $4 $5 $6 $7 $8 $9 X,Y pos of 4 corners*
0 Add a 4 corners polygon primitive as box body*
4,1,4,$2,$3,$4,$5,$6,$7,$8,$9,$2,$3,0*
0 Add four circle primitives for the rounded corners*
1,1,$1+$1,$2,$3*
1,1,$1+$1,$4,$5*
1,1,$1+$1,$6,$7*
1,1,$1+$1,$8,$9*
0 Add four rect primitives between the rounded corners*
20,1,$1+$1,$2,$3,$4,$5,0*
20,1,$1+$1,$4,$5,$6,$7,0*
20,1,$1+$1,$6,$7,$8,$9,0*
20,1,$1+$1,$8,$9,$2,$3,0*%
G04 Aperture macros list end*
%ADD10RoundRect,0.225000X-0.225000X-0.250000X0.225000X-0.250000X0.225000X0.250000X-0.225000X0.250000X0*%
%ADD11R,2.900000X5.400000*%
%ADD12RoundRect,0.135000X0.185000X-0.135000X0.185000X0.135000X-0.185000X0.135000X-0.185000X-0.135000X0*%
%ADD13RoundRect,0.250000X1.400000X1.000000X-1.400000X1.000000X-1.400000X-1.000000X1.400000X-1.000000X0*%
%ADD14RoundRect,0.125000X0.762500X0.125000X-0.762500X0.125000X-0.762500X-0.125000X0.762500X-0.125000X0*%
%ADD15RoundRect,0.250000X-2.025000X-2.375000X2.025000X-2.375000X2.025000X2.375000X-2.025000X2.375000X0*%
%ADD16RoundRect,0.250000X-2.050000X-0.300000X2.050000X-0.300000X2.050000X0.300000X-2.050000X0.300000X0*%
G04 APERTURE END LIST*
D10*
%TO.C,C1*%
X89225000Y-59500000D03*
X90775000Y-59500000D03*
%TD*%
D11*
%TO.C,L1*%
X64850000Y-70700000D03*
X55150000Y-70700000D03*
%TD*%
D12*
%TO.C,R17*%
X86000000Y-87510000D03*
X86000000Y-86490000D03*
%TD*%
D13*
%TO.C,D7*%
X70350000Y-76300000D03*
X70350000Y-83100000D03*
%TD*%
D14*
%TO.C,U2*%
X97412500Y-83225000D03*
X97412500Y-83875000D03*
X97412500Y-84525000D03*
X97412500Y-85175000D03*
X97412500Y-85825000D03*
X97412500Y-86475000D03*
X97412500Y-87125000D03*
X97412500Y-87775000D03*
X90587500Y-87775000D03*
X90587500Y-87125000D03*
X90587500Y-86475000D03*
X90587500Y-85825000D03*
X90587500Y-85175000D03*
X90587500Y-84525000D03*
X90587500Y-83875000D03*
X90587500Y-83225000D03*
%TD*%
%TO.C,U1*%
X96412500Y-62225000D03*
X96412500Y-62875000D03*
X96412500Y-63525000D03*
X96412500Y-64175000D03*
X96412500Y-64825000D03*
X96412500Y-65475000D03*
X96412500Y-66125000D03*
X96412500Y-66775000D03*
X89587500Y-66775000D03*
X89587500Y-66125000D03*
X89587500Y-65475000D03*
X89587500Y-64825000D03*
X89587500Y-64175000D03*
X89587500Y-63525000D03*
X89587500Y-62875000D03*
X89587500Y-62225000D03*
%TD*%
D15*
%TO.C,U4*%
X77075000Y-66225000D03*
X77075000Y-71775000D03*
X81925000Y-66225000D03*
X81925000Y-71775000D03*
D16*
X70350000Y-72400000D03*
X70350000Y-70700000D03*
X70350000Y-69000000D03*
X70350000Y-67300000D03*
X70350000Y-65600000D03*
%TD*%
D10*
%TO.C,C2*%
X90225000Y-80500000D03*
X91775000Y-80500000D03*
%TD*%
M02*
