%TF.GenerationSoftware,KiCad,Pcbnew,10.0.6*%
%TF.CreationDate,2026-09-26T15:22:29+07:00*%
%TF.ProjectId,dashboard,64617368-626f-4617-9264-2e6b69636164,rev?*%
%TF.SameCoordinates,Original*%
%TF.FileFunction,Copper,L1,Top*%
%TF.FilePolarity,Positive*%
%FSLAX46Y46*%
G04 Gerber Fmt 4.6, Leading zero omitted, Abs format (unit mm)*
G04 Created by KiCad (PCBNEW 10.0.6) date 2026-09-26 15:22:29*
%MOMM*%
%LPD*%
G01*
G04 APERTURE LIST*
G04 Aperture macros list*
%AMRoundRect*
0 Rectangle with rounded corners*
0 $1 Rounding radius*
0 $2 $3 $4 $5 $6 $7 $8 $9 X,Y pos of 4 corners*
0 Add a 4 corners polygon primitive as box body*
4,1,4,$2,$3,$4,$5,$6,$7,$8,$9,$2,$3,0*
0 Add four circle primitives for the rounded corners*
1,1,$1+$1,$2,$3*
1,1,$1+$1,$4,$5*
1,1,$1+$1,$6,$7*
1,1,$1+$1,$8,$9*
0 Add four rect primitives between the rounded corners*
20,1,$1+$1,$2,$3,$4,$5,0*
20,1,$1+$1,$4,$5,$6,$7,0*
20,1,$1+$1,$6,$7,$8,$9,0*
20,1,$1+$1,$8,$9,$2,$3,0*%
G04 Aperture macros list end*
%TA.AperFunction,ComponentPad*%
%ADD10RoundRect,0.250001X0.949999X0.949999X-0.949999X0.949999X-0.949999X-0.949999X0.949999X-0.949999X0*%
%TD*%
%TA.AperFunction,ComponentPad*%
%ADD11C,2.400000*%
%TD*%
%TA.AperFunction,SMDPad,CuDef*%
%ADD12RoundRect,0.200000X0.275000X-0.200000X0.275000X0.200000X-0.275000X0.200000X-0.275000X-0.200000X0*%
%TD*%
%TA.AperFunction,ComponentPad*%
%ADD13O,2.200000X4.400000*%
%TD*%
%TA.AperFunction,SMDPad,CuDef*%
%ADD14RoundRect,0.135000X0.185000X-0.135000X0.185000X0.135000X-0.185000X0.135000X-0.185000X-0.135000X0*%
%TD*%
%TA.AperFunction,ComponentPad*%
%ADD15C,1.879600*%
%TD*%
%TA.AperFunction,ComponentPad*%
%ADD16RoundRect,0.250001X-0.949999X-0.949999X0.949999X-0.949999X0.949999X0.949999X-0.949999X0.949999X0*%
%TD*%
%TA.AperFunction,SMDPad,CuDef*%
%ADD17R,3.000000X0.900000*%
%TD*%
%TA.AperFunction,ComponentPad*%
%ADD18C,3.327400*%
%TD*%
%TA.AperFunction,SMDPad,CuDef*%
%ADD19RoundRect,0.500000X0.500000X-0.875000X0.500000X0.875000X-0.500000X0.875000X-0.500000X-0.875000X0*%
%TD*%
%TA.AperFunction,SMDPad,CuDef*%
%ADD20C,1.700000*%
%TD*%
%TA.AperFunction,SMDPad,CuDef*%
%ADD21RoundRect,0.275000X-0.275000X0.975000X-0.275000X-0.975000X0.275000X-0.975000X0.275000X0.975000X0*%
%TD*%
%TA.AperFunction,ComponentPad*%
%ADD22R,2.000000X2.000000*%
%TD*%
%TA.AperFunction,ComponentPad*%
%ADD23C,2.000000*%
%TD*%
%TA.AperFunction,ComponentPad*%
%ADD24RoundRect,0.250000X-0.550000X-0.550000X0.550000X-0.550000X0.550000X0.550000X-0.550000X0.550000X0*%
%TD*%
%TA.AperFunction,ComponentPad*%
%ADD25C,1.600000*%
%TD*%
%TA.AperFunction,ViaPad*%
%ADD26C,0.600000*%
%TD*%
%TA.AperFunction,Conductor*%
%ADD27C,0.500000*%
%TD*%
%TA.AperFunction,Conductor*%
%ADD28C,0.300000*%
%TD*%
%TA.AperFunction,Conductor*%
%ADD29C,0.800000*%
%TD*%
%TA.AperFunction,Conductor*%
%ADD30C,0.200000*%
%TD*%
%TA.AperFunction,Conductor*%
%ADD31C,0.150000*%
%TD*%
%TA.AperFunction,Conductor*%
%ADD32C,0.400000*%
%TD*%
G04 APERTURE END LIST*
D10*
%TO.P,D2,1*%
%TO.N,5V*%
X79500000Y-55300000D03*
D11*
%TO.P,D2,2*%
%TO.N,Net-(D2-BK)*%
X76000000Y-55300000D03*
%TO.P,D2,3*%
%TO.N,Net-(D2-GK)*%
X72500000Y-55300000D03*
%TO.P,D2,4*%
%TO.N,Net-(D2-RK)*%
X69000000Y-55300000D03*
%TD*%
D12*
%TO.P,R13,1*%
%TO.N,Net-(U1-QH)*%
X95500000Y-61325000D03*
%TO.P,R13,2*%
%TO.N,Net-(D3-GK)*%
X95500000Y-59675000D03*
%TD*%
%TO.P,R12,1*%
%TO.N,Net-(U1-QE)*%
X80000000Y-61325000D03*
%TO.P,R12,2*%
%TO.N,Net-(D2-GK)*%
X80000000Y-59675000D03*
%TD*%
D13*
%TO.P,J3,1*%
%TO.N,5V*%
X82750000Y-91900000D03*
%TO.P,J3,2*%
%TO.N,Net-(J2-D+)*%
X86250000Y-91900000D03*
%TO.P,J3,3*%
%TO.N,Net-(J2-D-)*%
X89750000Y-91900000D03*
%TO.P,J3,4*%
%TO.N,GND*%
X93250000Y-91900000D03*
%TO.P,J3,5*%
%TO.N,unconnected-(J3-Pin_3-Pad5)*%
X96750000Y-91900000D03*
%TO.P,J3,6*%
%TO.N,unconnected-(J3-Pin_4-Pad6)*%
X100250000Y-91900000D03*
%TO.P,J3,7*%
%TO.N,unconnected-(J3-Pin_2-Pad7)*%
X103750000Y-91900000D03*
%TO.P,J3,8*%
%TO.N,unconnected-(J3-Pin_1-Pad8)*%
X107250000Y-91900000D03*
%TO.P,J3,9*%
%TO.N,Net-(U3-D7)*%
X110750000Y-91900000D03*
%TO.P,J3,10*%
%TO.N,Net-(U3-D6)*%
X114250000Y-91900000D03*
%TD*%
D14*
%TO.P,R10,1*%
%TO.N,Net-(U2-QG)*%
X59000000Y-89910000D03*
%TO.P,R10,2*%
%TO.N,Net-(D5-BK)*%
X59000000Y-88890000D03*
%TD*%
D12*
%TO.P,R16,1*%
%TO.N,Net-(U2-QH)*%
X69500000Y-90225000D03*
%TO.P,R16,2*%
%TO.N,Net-(D6-K)*%
X69500000Y-88575000D03*
%TD*%
D10*
%TO.P,D4,1*%
%TO.N,5V*%
X110500000Y-55300000D03*
D11*
%TO.P,D4,2*%
%TO.N,Net-(D4-BK)*%
X107000000Y-55300000D03*
%TO.P,D4,3*%
%TO.N,Net-(D4-GK)*%
X103500000Y-55300000D03*
%TO.P,D4,4*%
%TO.N,Net-(D4-RK)*%
X100000000Y-55300000D03*
%TD*%
D10*
%TO.P,D3,1*%
%TO.N,5V*%
X95000000Y-55300000D03*
D11*
%TO.P,D3,2*%
%TO.N,Net-(D3-BK)*%
X91500000Y-55300000D03*
%TO.P,D3,3*%
%TO.N,Net-(D3-GK)*%
X88000000Y-55300000D03*
%TO.P,D3,4*%
%TO.N,Net-(D3-RK)*%
X84500000Y-55300000D03*
%TD*%
D15*
%TO.P,J1,1*%
%TO.N,GND*%
X56000000Y-85800000D03*
%TO.P,J1,2*%
%TO.N,Net-(J1-Pin_2)*%
X58540000Y-85800000D03*
%TO.P,J1,3*%
%TO.N,Net-(J1-Pin_3)*%
X61080000Y-85800000D03*
%TO.P,J1,4*%
%TO.N,Net-(J1-Pin_4)*%
X63620000Y-85800000D03*
%TD*%
D14*
%TO.P,R9,1*%
%TO.N,Net-(U2-QD)*%
X107500000Y-61010000D03*
%TO.P,R9,2*%
%TO.N,Net-(D4-BK)*%
X107500000Y-59990000D03*
%TD*%
D16*
%TO.P,D5,1*%
%TO.N,5V*%
X53000000Y-94700000D03*
D11*
%TO.P,D5,2*%
%TO.N,Net-(D5-BK)*%
X56500000Y-94700000D03*
%TO.P,D5,3*%
%TO.N,Net-(D5-GK)*%
X60000000Y-94700000D03*
%TO.P,D5,4*%
%TO.N,Net-(D5-RK)*%
X63500000Y-94700000D03*
%TD*%
D14*
%TO.P,R5,1*%
%TO.N,Net-(U2-QE)*%
X55500000Y-89910000D03*
%TO.P,R5,2*%
%TO.N,Net-(D5-RK)*%
X55500000Y-88890000D03*
%TD*%
D17*
%TO.P,J2,1*%
%TO.N,3.3V*%
X105388000Y-74000000D03*
%TO.P,J2,2*%
%TO.N,Net-(J2-D-)*%
X105388000Y-71500000D03*
%TO.P,J2,3*%
%TO.N,Net-(J2-D+)*%
X105388000Y-69500000D03*
%TO.P,J2,4*%
%TO.N,GND*%
X105388000Y-67000000D03*
D18*
%TO.P,J2,SH*%
%TO.N,unconnected-(J2-Shield-PadSH)*%
X109600000Y-77065900D03*
X109600000Y-63934100D03*
%TD*%
D19*
%TO.P,U3,1*%
%TO.N,unconnected-(U3-D0-Pad1)*%
X54980000Y-80165000D03*
%TO.P,U3,2*%
%TO.N,unconnected-(U3-D1-Pad2)*%
X57520000Y-80165000D03*
%TO.P,U3,3*%
%TO.N,Net-(U3-D2)*%
X60060000Y-80165000D03*
%TO.P,U3,4*%
%TO.N,Net-(U1-RCLK)*%
X62600000Y-80165000D03*
%TO.P,U3,5*%
%TO.N,Net-(J1-Pin_3)*%
X65140000Y-80165000D03*
%TO.P,U3,6*%
%TO.N,Net-(J1-Pin_4)*%
X67680000Y-80165000D03*
%TO.P,U3,7*%
%TO.N,Net-(U3-D6)*%
X70220000Y-80165000D03*
%TO.P,U3,8*%
%TO.N,Net-(U3-D7)*%
X70220000Y-64000000D03*
%TO.P,U3,9*%
%TO.N,Net-(U1-SRCLK)*%
X67680000Y-64000000D03*
%TO.P,U3,10*%
%TO.N,unconnected-(U3-D9-Pad10)*%
X65140000Y-64000000D03*
%TO.P,U3,11*%
%TO.N,Net-(U1-SER)*%
X62600000Y-64000000D03*
%TO.P,U3,12*%
%TO.N,Net-(J1-Pin_2)*%
X60060000Y-64000000D03*
%TO.P,U3,13*%
%TO.N,GND*%
X57520000Y-64000000D03*
%TO.P,U3,14*%
%TO.N,unconnected-(U3-VBUS-Pad14)*%
X54980000Y-64000000D03*
D20*
%TO.P,U3,15*%
%TO.N,N/C*%
X53968000Y-73380000D03*
%TO.P,U3,16*%
X53968000Y-70840000D03*
%TO.P,U3,17*%
X56508000Y-73380000D03*
%TO.P,U3,18*%
X56508000Y-70840000D03*
%TO.P,U3,19*%
X59048000Y-73380000D03*
%TO.P,U3,20*%
X59048000Y-70840000D03*
D21*
%TO.P,U3,21*%
X62218000Y-76555000D03*
%TO.P,U3,22*%
X60313000Y-76555000D03*
%TD*%
D14*
%TO.P,R3,1*%
%TO.N,Net-(U1-QG)*%
X88500000Y-61010000D03*
%TO.P,R3,2*%
%TO.N,Net-(D3-RK)*%
X88500000Y-59990000D03*
%TD*%
%TO.P,R2,1*%
%TO.N,Net-(U1-QD)*%
X73000000Y-61010000D03*
%TO.P,R2,2*%
%TO.N,Net-(D2-RK)*%
X73000000Y-59990000D03*
%TD*%
D12*
%TO.P,R15,1*%
%TO.N,Net-(U2-QF)*%
X62500000Y-90225000D03*
%TO.P,R15,2*%
%TO.N,Net-(D5-GK)*%
X62500000Y-88575000D03*
%TD*%
D14*
%TO.P,R8,1*%
%TO.N,Net-(U2-QA)*%
X92000000Y-61010000D03*
%TO.P,R8,2*%
%TO.N,Net-(D3-BK)*%
X92000000Y-59990000D03*
%TD*%
%TO.P,R1,1*%
%TO.N,Net-(U1-QA)*%
X58500000Y-61010000D03*
%TO.P,R1,2*%
%TO.N,Net-(D1-RK)*%
X58500000Y-59990000D03*
%TD*%
D16*
%TO.P,D6,1*%
%TO.N,Net-(D6-K)*%
X69000000Y-94700000D03*
D11*
%TO.P,D6,2*%
%TO.N,5V*%
X72500000Y-94700000D03*
%TD*%
D22*
%TO.P,BZ1,1*%
%TO.N,Net-(BZ1-+)*%
X85000000Y-80000000D03*
D23*
%TO.P,BZ1,2*%
%TO.N,GND*%
X95000000Y-80000000D03*
%TD*%
D14*
%TO.P,R7,1*%
%TO.N,Net-(U1-QF)*%
X76500000Y-61010000D03*
%TO.P,R7,2*%
%TO.N,Net-(D2-BK)*%
X76500000Y-59990000D03*
%TD*%
D10*
%TO.P,D1,1*%
%TO.N,5V*%
X64000000Y-55300000D03*
D11*
%TO.P,D1,2*%
%TO.N,Net-(D1-BK)*%
X60500000Y-55300000D03*
%TO.P,D1,3*%
%TO.N,Net-(D1-GK)*%
X57000000Y-55300000D03*
%TO.P,D1,4*%
%TO.N,Net-(D1-RK)*%
X53500000Y-55300000D03*
%TD*%
D12*
%TO.P,R11,1*%
%TO.N,Net-(U1-QB)*%
X65500000Y-61325000D03*
%TO.P,R11,2*%
%TO.N,Net-(D1-GK)*%
X65500000Y-59675000D03*
%TD*%
D14*
%TO.P,R6,1*%
%TO.N,Net-(U1-QC)*%
X62000000Y-61010000D03*
%TO.P,R6,2*%
%TO.N,Net-(D1-BK)*%
X62000000Y-59990000D03*
%TD*%
%TO.P,R4,1*%
%TO.N,Net-(U2-QB)*%
X104000000Y-61010000D03*
%TO.P,R4,2*%
%TO.N,Net-(D4-RK)*%
X104000000Y-59990000D03*
%TD*%
D12*
%TO.P,R14,1*%
%TO.N,Net-(U2-QC)*%
X111000000Y-61325000D03*
%TO.P,R14,2*%
%TO.N,Net-(D4-GK)*%
X111000000Y-59675000D03*
%TD*%
D24*
%TO.P,C4,1*%
%TO.N,3.3V*%
X54000000Y-60500000D03*
D25*
%TO.P,C4,2*%
%TO.N,GND*%
X56500000Y-60500000D03*
%TD*%
D24*
%TO.P,C3,1*%
%TO.N,5V*%
X77000000Y-79500000D03*
D25*
%TO.P,C3,2*%
%TO.N,GND*%
X80500000Y-79500000D03*
%TD*%
D26*
%TO.N,5V*%
X87694700Y-60327700D03*
X90225000Y-79567300D03*
%TO.N,Net-(D2-GK)*%
X76697300Y-56948200D03*
%TO.N,Net-(U1-QH)*%
X94928200Y-62158800D03*
%TO.N,Net-(U1-QE)*%
X98120600Y-63750600D03*
%TO.N,Net-(J2-D+)*%
X88416800Y-77032400D03*
%TO.N,Net-(J2-D-)*%
X88697800Y-77806800D03*
%TO.N,GND*%
X85000000Y-65000000D03*
X56500000Y-59000000D03*
X69000000Y-83100000D03*
X94512500Y-70092000D03*
X91774999Y-79500000D03*
X71700000Y-83100000D03*
X85000000Y-73000000D03*
X57520000Y-65700000D03*
X90774999Y-60500000D03*
X99976700Y-66140500D03*
X85000000Y-69000000D03*
%TO.N,Net-(U3-D7)*%
X107748000Y-74665000D03*
%TO.N,Net-(U2-QG)*%
X96056000Y-86742600D03*
%TO.N,Net-(U2-QH)*%
X93904500Y-88120000D03*
%TO.N,Net-(D4-GK)*%
X107580000Y-58953200D03*
%TO.N,Net-(J1-Pin_2)*%
X59071800Y-65794100D03*
%TO.N,Net-(U2-QD)*%
X106922000Y-61588400D03*
%TO.N,Net-(D5-RK)*%
X57077700Y-89017500D03*
%TO.N,Net-(U2-QE)*%
X96035200Y-85324400D03*
%TO.N,3.3V*%
X103800000Y-74000000D03*
%TO.N,Net-(U3-D2)*%
X61347000Y-81638100D03*
%TO.N,Net-(U1-RCLK)*%
X85900000Y-64825000D03*
X78387200Y-83933200D03*
X68823300Y-78296200D03*
X88100000Y-64825000D03*
X89182700Y-86806600D03*
%TO.N,Net-(U1-SRCLK)*%
X92455700Y-87774700D03*
X95987500Y-69495100D03*
X92218300Y-66616400D03*
X93917500Y-87047100D03*
%TO.N,Net-(U1-SER)*%
X88210900Y-63865700D03*
%TO.N,Net-(U1-QG)*%
X98749100Y-64185500D03*
%TO.N,Net-(U1-QD)*%
X73577700Y-61586100D03*
%TO.N,Net-(U2-QF)*%
X63213000Y-89512000D03*
X95608400Y-85974300D03*
X79796600Y-87699200D03*
%TO.N,Net-(U2-QA)*%
X93800200Y-67418300D03*
%TO.N,Net-(U1-QA)*%
X63537300Y-61260700D03*
X87450000Y-65565200D03*
X72057300Y-63777300D03*
%TO.N,Net-(U1-QF)*%
X97754100Y-64473000D03*
%TO.N,Net-(U1-QB)*%
X93450400Y-65510100D03*
%TO.N,Net-(U1-QC)*%
X92570200Y-64654000D03*
%TO.N,Net-(U2-QB)*%
X101135000Y-62468300D03*
%TO.N,Net-(U2-QC)*%
X108518000Y-62020200D03*
%TD*%
%TO.N,5V*%
D27*
X108867000Y-53667300D02*
X96632700Y-53667300D01*
X64000000Y-55300000D02*
X65628000Y-53672000D01*
X93035600Y-53335600D02*
X81464400Y-53335600D01*
X79500000Y-55300000D02*
X84527700Y-60327700D01*
X81464400Y-53335600D02*
X79500000Y-55300000D01*
D28*
X90225000Y-79567300D02*
X88465900Y-81326400D01*
D27*
X95000000Y-55300000D02*
X93035600Y-53335600D01*
D28*
X78826400Y-81326400D02*
X77000000Y-79500000D01*
X88465900Y-81326400D02*
X78826400Y-81326400D01*
D27*
X84527700Y-60327700D02*
X87694700Y-60327700D01*
D29*
X77000000Y-86150000D02*
X82750000Y-91900000D01*
D27*
X96632700Y-53667300D02*
X95000000Y-55300000D01*
D29*
X77000000Y-79500000D02*
X77000000Y-86150000D01*
D27*
X65628000Y-53672000D02*
X77872000Y-53672000D01*
X110500000Y-55300000D02*
X108867000Y-53667300D01*
X77872000Y-53672000D02*
X79500000Y-55300000D01*
%TO.N,Net-(D2-BK)*%
D30*
X76000000Y-55300000D02*
X76000000Y-59490000D01*
X76000000Y-59490000D02*
X76500000Y-59990000D01*
%TO.N,Net-(D2-GK)*%
X80000000Y-59675000D02*
X77273200Y-56948200D01*
X77273200Y-56948200D02*
X76697300Y-56948200D01*
%TO.N,Net-(D2-RK)*%
X69000000Y-55990000D02*
X73000000Y-59990000D01*
X69000000Y-55300000D02*
X69000000Y-55990000D01*
%TO.N,Net-(U1-QH)*%
X95500000Y-61587000D02*
X94928200Y-62158800D01*
X95500000Y-61325000D02*
X95500000Y-61587000D01*
%TO.N,Net-(D3-GK)*%
X92971100Y-57146100D02*
X95500000Y-59675000D01*
X92971100Y-54644100D02*
X92971100Y-57146100D01*
X89462200Y-53837800D02*
X92164800Y-53837800D01*
X92164800Y-53837800D02*
X92971100Y-54644100D01*
X88000000Y-55300000D02*
X89462200Y-53837800D01*
%TO.N,Net-(U1-QE)*%
X80700400Y-62025400D02*
X80000000Y-61325000D01*
X88805100Y-62025400D02*
X80700400Y-62025400D01*
X98120600Y-63750600D02*
X90530300Y-63750600D01*
X90530300Y-63750600D02*
X88805100Y-62025400D01*
%TO.N,Net-(J2-D+)*%
D31*
X105388000Y-69500000D02*
X103661000Y-69500000D01*
X103661000Y-70068700D02*
X103661000Y-69500000D01*
X103501000Y-70228600D02*
X103661000Y-70068700D01*
D30*
X95220600Y-70228600D02*
X88416800Y-77032400D01*
X103501000Y-70228600D02*
X95220600Y-70228600D01*
%TO.N,Net-(J2-D-)*%
X103636000Y-71500000D02*
X95004600Y-71500000D01*
X95004600Y-71500000D02*
X88697800Y-77806800D01*
X105388000Y-71500000D02*
X103636000Y-71500000D01*
%TO.N,GND*%
D32*
X91775000Y-79500000D02*
X94500000Y-79500000D01*
X103536000Y-67000000D02*
X102677000Y-66140500D01*
X86092000Y-70092000D02*
X94512500Y-70092000D01*
X94500000Y-79500000D02*
X95000000Y-80000000D01*
X105388000Y-67000000D02*
X103536000Y-67000000D01*
X57295600Y-87095600D02*
X65004400Y-87095600D01*
X65004400Y-87095600D02*
X69000000Y-83100000D01*
X102677000Y-66140500D02*
X99976700Y-66140500D01*
X56500000Y-62980000D02*
X57520000Y-64000000D01*
X56500000Y-60500000D02*
X56500000Y-62980000D01*
D27*
X57520000Y-64000000D02*
X57520000Y-65700000D01*
D32*
X85000000Y-69000000D02*
X86092000Y-70092000D01*
X56000000Y-85800000D02*
X57295600Y-87095600D01*
%TO.N,Net-(U3-D7)*%
D30*
X72741600Y-66521600D02*
X70220000Y-64000000D01*
X92826700Y-66419400D02*
X92426800Y-66019500D01*
X92426800Y-66019500D02*
X91916100Y-66019500D01*
X72941400Y-66521600D02*
X72741600Y-66521600D01*
X73171500Y-66751700D02*
X72941400Y-66521600D01*
X107009000Y-68760200D02*
X94359800Y-68760200D01*
X94359800Y-68760200D02*
X92826700Y-67227100D01*
X107748000Y-74665000D02*
X107748000Y-69499600D01*
X91183900Y-66751700D02*
X73171500Y-66751700D01*
X92826700Y-67227100D02*
X92826700Y-66419400D01*
X107748000Y-69499600D02*
X107009000Y-68760200D01*
X91916100Y-66019500D02*
X91183900Y-66751700D01*
%TO.N,Net-(U3-D6)*%
X71984200Y-78400800D02*
X89889900Y-78400800D01*
X96820700Y-83646400D02*
X102623000Y-89448300D01*
X70220000Y-80165000D02*
X71984200Y-78400800D01*
X114250000Y-91900000D02*
X114250000Y-89448300D01*
X95135500Y-83646400D02*
X96820700Y-83646400D01*
X89889900Y-78400800D02*
X95135500Y-83646400D01*
X102623000Y-89448300D02*
X114250000Y-89448300D01*
%TO.N,Net-(U2-QG)*%
X92892300Y-89244400D02*
X93593600Y-89244400D01*
X91875100Y-92862900D02*
X91875100Y-90261600D01*
X91875100Y-90261600D02*
X92892300Y-89244400D01*
X58516300Y-95341900D02*
X59336300Y-96161900D01*
X58516300Y-90393700D02*
X58516300Y-95341900D01*
X96056000Y-86782000D02*
X96056000Y-86742600D01*
X59000000Y-89910000D02*
X58516300Y-90393700D01*
X59336300Y-96161900D02*
X88576100Y-96161900D01*
X88576100Y-96161900D02*
X91875100Y-92862900D01*
X93593600Y-89244400D02*
X96056000Y-86782000D01*
%TO.N,Net-(D5-BK)*%
X56500000Y-91390000D02*
X59000000Y-88890000D01*
X56500000Y-94700000D02*
X56500000Y-91390000D01*
%TO.N,Net-(U2-QH)*%
X76107900Y-94776900D02*
X83388500Y-94776900D01*
X71556000Y-90225000D02*
X76107900Y-94776900D01*
X84851600Y-90255300D02*
X86449400Y-88657500D01*
X84851600Y-93313800D02*
X84851600Y-90255300D01*
X86449400Y-88657500D02*
X93367000Y-88657500D01*
X69500000Y-90225000D02*
X71556000Y-90225000D01*
X93367000Y-88657500D02*
X93904500Y-88120000D01*
X83388500Y-94776900D02*
X84851600Y-93313800D01*
%TO.N,Net-(D6-K)*%
X69000000Y-94700000D02*
X68750500Y-94450500D01*
X68750500Y-94450500D02*
X68750500Y-89324500D01*
X68750500Y-89324500D02*
X69500000Y-88575000D01*
%TO.N,Net-(D4-BK)*%
X107000000Y-55300000D02*
X107000000Y-59490000D01*
X107000000Y-59490000D02*
X107500000Y-59990000D01*
%TO.N,Net-(D4-GK)*%
X111000000Y-59675000D02*
X110278000Y-58953200D01*
X110278000Y-58953200D02*
X107580000Y-58953200D01*
%TO.N,Net-(D4-RK)*%
X100000000Y-55300000D02*
X100000000Y-55990000D01*
X100000000Y-55990000D02*
X104000000Y-59990000D01*
%TO.N,Net-(D3-BK)*%
X91500000Y-55300000D02*
X91500000Y-59490000D01*
X91500000Y-59490000D02*
X92000000Y-59990000D01*
%TO.N,Net-(D3-RK)*%
X88500000Y-59300000D02*
X88500000Y-59990000D01*
X84500000Y-55300000D02*
X88500000Y-59300000D01*
%TO.N,Net-(J1-Pin_2)*%
X59071800Y-65794100D02*
X60060000Y-64805900D01*
X60060000Y-64805900D02*
X60060000Y-64000000D01*
%TO.N,Net-(J1-Pin_3)*%
X61080000Y-85800000D02*
X61080000Y-84225000D01*
X61080000Y-84225000D02*
X65140000Y-80165000D01*
%TO.N,Net-(J1-Pin_4)*%
X63620000Y-85800000D02*
X67680000Y-81740000D01*
X67680000Y-81740000D02*
X67680000Y-80165000D01*
%TO.N,Net-(U2-QD)*%
X106922000Y-61588400D02*
X107500000Y-61010000D01*
%TO.N,Net-(D5-GK)*%
X60000000Y-91075000D02*
X62500000Y-88575000D01*
X60000000Y-94700000D02*
X60000000Y-91075000D01*
%TO.N,Net-(D5-RK)*%
X55627500Y-89017500D02*
X57077700Y-89017500D01*
X55500000Y-88890000D02*
X55627500Y-89017500D01*
%TO.N,Net-(U2-QE)*%
X92322900Y-85324400D02*
X96035200Y-85324400D01*
X76611300Y-94365300D02*
X83302800Y-94365300D01*
X70167700Y-87921700D02*
X76611300Y-94365300D01*
X83302800Y-94365300D02*
X84128000Y-93540100D01*
X86375700Y-88225700D02*
X89421600Y-88225700D01*
X84128000Y-93540100D02*
X84128000Y-90473400D01*
X57009700Y-89910000D02*
X58998000Y-87921700D01*
X55500000Y-89910000D02*
X57009700Y-89910000D01*
X89421600Y-88225700D02*
X92322900Y-85324400D01*
X84128000Y-90473400D02*
X86375700Y-88225700D01*
X58998000Y-87921700D02*
X70167700Y-87921700D01*
%TO.N,3.3V*%
D29*
X103800000Y-74000000D02*
X105388000Y-74000000D01*
%TO.N,Net-(U3-D2)*%
D30*
X60060000Y-80351100D02*
X61347000Y-81638100D01*
X60060000Y-80165000D02*
X60060000Y-80351100D01*
%TO.N,Net-(U1-RCLK)*%
X64468800Y-78296200D02*
X62600000Y-80165000D01*
X88100000Y-64825000D02*
X85900000Y-64825000D01*
X89182700Y-86806600D02*
X86309300Y-83933200D01*
X86309300Y-83933200D02*
X78387200Y-83933200D01*
X68823300Y-78296200D02*
X64468800Y-78296200D01*
%TO.N,Net-(U1-SRCLK)*%
X91963700Y-66871000D02*
X94587700Y-69495100D01*
X93183300Y-87047100D02*
X92455700Y-87774700D01*
X91709000Y-67125700D02*
X92218300Y-66616400D01*
X67783700Y-66521600D02*
X67680000Y-66417900D01*
X67783700Y-66521600D02*
X68387800Y-67125700D01*
X93917500Y-87047100D02*
X93183300Y-87047100D01*
X94587700Y-69495100D02*
X95987500Y-69495100D01*
X68387800Y-67125700D02*
X91709000Y-67125700D01*
X67680000Y-66417900D02*
X67680000Y-64000000D01*
%TO.N,Net-(U1-SER)*%
X73329800Y-63865600D02*
X88210900Y-63865600D01*
X64239500Y-62360500D02*
X71824700Y-62360500D01*
X62600000Y-64000000D02*
X64239500Y-62360500D01*
X88210900Y-63865600D02*
X88210900Y-63865700D01*
X71824700Y-62360500D02*
X73329800Y-63865600D01*
%TO.N,Net-(U1-QG)*%
X98749100Y-63564000D02*
X98749100Y-64185500D01*
X90527300Y-63037300D02*
X98222400Y-63037300D01*
X88500000Y-61010000D02*
X90527300Y-63037300D01*
X98222400Y-63037300D02*
X98749100Y-63564000D01*
%TO.N,Net-(U1-QD)*%
X73576100Y-61586100D02*
X73577700Y-61586100D01*
X73000000Y-61010000D02*
X73576100Y-61586100D01*
%TO.N,Net-(U2-QF)*%
X96168900Y-85974300D02*
X96619000Y-85524200D01*
X95608400Y-85974300D02*
X96168900Y-85974300D01*
X63213000Y-89512000D02*
X62500000Y-90225000D01*
X89450800Y-87699200D02*
X79796600Y-87699200D01*
X96275400Y-84711700D02*
X92438300Y-84711700D01*
X96619000Y-85055300D02*
X96275400Y-84711700D01*
X96619000Y-85524200D02*
X96619000Y-85055300D01*
X92438300Y-84711700D02*
X89450800Y-87699200D01*
%TO.N,Net-(U2-QA)*%
X99340900Y-63564900D02*
X96388300Y-60612300D01*
X93800200Y-67418300D02*
X96300700Y-67418300D01*
X96300700Y-67418300D02*
X99340900Y-64378100D01*
X92397700Y-60612300D02*
X92000000Y-61010000D01*
X96388300Y-60612300D02*
X92397700Y-60612300D01*
X99340900Y-64378100D02*
X99340900Y-63564900D01*
%TO.N,Net-(U1-QA)*%
X63537300Y-61260700D02*
X63212100Y-61585900D01*
X59075900Y-61585900D02*
X58500000Y-61010000D01*
X63212100Y-61585900D02*
X59075900Y-61585900D01*
X73845200Y-65565200D02*
X72057300Y-63777300D01*
X87450000Y-65565200D02*
X73845200Y-65565200D01*
%TO.N,Net-(D1-RK)*%
X53810000Y-55300000D02*
X58500000Y-59990000D01*
X53500000Y-55300000D02*
X53810000Y-55300000D01*
%TO.N,Net-(U1-QF)*%
X90384600Y-64102300D02*
X88892900Y-62610600D01*
X88892900Y-62610600D02*
X78100600Y-62610600D01*
X78100600Y-62610600D02*
X76500000Y-61010000D01*
X97754100Y-64473000D02*
X97383400Y-64102300D01*
X97383400Y-64102300D02*
X90384600Y-64102300D01*
%TO.N,Net-(D1-BK)*%
X60500000Y-58490000D02*
X62000000Y-59990000D01*
X60500000Y-55300000D02*
X60500000Y-58490000D01*
%TO.N,Net-(D1-GK)*%
X61164800Y-53837800D02*
X58462200Y-53837800D01*
X65500000Y-59675000D02*
X61971100Y-56146100D01*
X61971100Y-56146100D02*
X61971100Y-54644100D01*
X61971100Y-54644100D02*
X61164800Y-53837800D01*
X58462200Y-53837800D02*
X57000000Y-55300000D01*
%TO.N,Net-(U1-QB)*%
X73347900Y-63314000D02*
X71358900Y-61325000D01*
X90641600Y-65510100D02*
X88445500Y-63314000D01*
X88445500Y-63314000D02*
X73347900Y-63314000D01*
X93450400Y-65510100D02*
X90641600Y-65510100D01*
X71358900Y-61325000D02*
X65500000Y-61325000D01*
%TO.N,Net-(U1-QC)*%
X90285300Y-64654000D02*
X88593600Y-62962300D01*
X73598200Y-62962300D02*
X71271400Y-60635500D01*
X92570200Y-64654000D02*
X90285300Y-64654000D01*
X71271400Y-60635500D02*
X62374500Y-60635500D01*
X88593600Y-62962300D02*
X73598200Y-62962300D01*
X62374500Y-60635500D02*
X62000000Y-61010000D01*
%TO.N,Net-(U2-QB)*%
X101135000Y-62468300D02*
X102542000Y-62468300D01*
X102542000Y-62468300D02*
X104000000Y-61010000D01*
%TO.N,Net-(U2-QC)*%
D31*
X110305000Y-62020200D02*
X111000000Y-61325000D01*
X108518000Y-62020200D02*
X110305000Y-62020200D01*
%TD*%
%TA.AperFunction,Conductor*%
%TO.N,GND*%
G36*
X83831422Y-78720207D02*
G01*
X83867386Y-78769707D01*
X83867386Y-78830893D01*
X83855546Y-78855302D01*
X83855448Y-78855447D01*
X83855448Y-78855448D01*
X83848862Y-78865305D01*
X83811134Y-78921766D01*
X83811132Y-78921772D01*
X83799501Y-78980241D01*
X83799500Y-78980253D01*
X83799500Y-80876900D01*
X83780593Y-80935091D01*
X83731093Y-80971055D01*
X83700500Y-80975900D01*
X79012590Y-80975900D01*
X78954399Y-80956993D01*
X78942586Y-80946904D01*
X78029496Y-80033814D01*
X78001719Y-79979297D01*
X78000500Y-79963810D01*
X78000500Y-78895727D01*
X78000499Y-78895725D01*
X77997646Y-78865305D01*
X77997646Y-78865301D01*
X77987028Y-78834955D01*
X77986343Y-78832998D01*
X77984970Y-78771828D01*
X78019814Y-78721533D01*
X78077565Y-78701325D01*
X78079787Y-78701300D01*
X83773231Y-78701300D01*
X83831422Y-78720207D01*
G37*
%TD.AperFunction*%
%TA.AperFunction,Conductor*%
G36*
X72726804Y-63687575D02*
G01*
X73089340Y-64050111D01*
X73089339Y-64050111D01*
X73145289Y-64106060D01*
X73213807Y-64145619D01*
X73213811Y-64145621D01*
X73290235Y-64166099D01*
X73290237Y-64166100D01*
X73290238Y-64166100D01*
X73369362Y-64166100D01*
X85673863Y-64166100D01*
X85732054Y-64185007D01*
X85768018Y-64234507D01*
X85768018Y-64295693D01*
X85732054Y-64345193D01*
X85711746Y-64356565D01*
X85706810Y-64358609D01*
X85592690Y-64424496D01*
X85499496Y-64517690D01*
X85433609Y-64631809D01*
X85433608Y-64631814D01*
X85399500Y-64759108D01*
X85399500Y-64890892D01*
X85419435Y-64965290D01*
X85433609Y-65018190D01*
X85490196Y-65116200D01*
X85502918Y-65176048D01*
X85478032Y-65231944D01*
X85425044Y-65262537D01*
X85404460Y-65264700D01*
X74010679Y-65264700D01*
X73952488Y-65245793D01*
X73940675Y-65235704D01*
X72586796Y-63881825D01*
X72559019Y-63827308D01*
X72557800Y-63811821D01*
X72557800Y-63757579D01*
X72576707Y-63699388D01*
X72626207Y-63663424D01*
X72687393Y-63663424D01*
X72726804Y-63687575D01*
G37*
%TD.AperFunction*%
%TA.AperFunction,Conductor*%
G36*
X87560319Y-53805007D02*
G01*
X87596283Y-53854507D01*
X87596283Y-53915693D01*
X87560319Y-53965193D01*
X87532720Y-53979255D01*
X87462400Y-54002102D01*
X87265980Y-54102183D01*
X87214592Y-54139519D01*
X87087635Y-54231758D01*
X86931758Y-54387635D01*
X86920130Y-54403640D01*
X86802183Y-54565980D01*
X86702102Y-54762400D01*
X86633984Y-54972051D01*
X86599500Y-55189774D01*
X86599500Y-55410225D01*
X86633984Y-55627948D01*
X86702102Y-55837599D01*
X86702104Y-55837602D01*
X86702105Y-55837606D01*
X86756736Y-55944825D01*
X86782866Y-55996108D01*
X86802185Y-56034022D01*
X86931758Y-56212365D01*
X87087635Y-56368242D01*
X87265978Y-56497815D01*
X87462394Y-56597895D01*
X87672049Y-56666015D01*
X87738438Y-56676530D01*
X87889775Y-56700500D01*
X87889778Y-56700500D01*
X88110225Y-56700500D01*
X88219086Y-56683257D01*
X88327951Y-56666015D01*
X88537606Y-56597895D01*
X88734022Y-56497815D01*
X88912365Y-56368242D01*
X89068242Y-56212365D01*
X89197815Y-56034022D01*
X89297895Y-55837606D01*
X89366015Y-55627951D01*
X89400500Y-55410222D01*
X89400500Y-55189778D01*
X89400500Y-55189774D01*
X89366015Y-54972051D01*
X89366015Y-54972049D01*
X89297895Y-54762394D01*
X89217364Y-54604346D01*
X89207794Y-54543915D01*
X89235569Y-54489400D01*
X89557675Y-54167296D01*
X89612191Y-54139519D01*
X89627678Y-54138300D01*
X90442086Y-54138300D01*
X90500277Y-54157207D01*
X90536241Y-54206707D01*
X90536241Y-54267893D01*
X90512091Y-54307301D01*
X90431758Y-54387635D01*
X90420130Y-54403640D01*
X90302183Y-54565980D01*
X90202102Y-54762400D01*
X90133984Y-54972051D01*
X90099500Y-55189774D01*
X90099500Y-55410225D01*
X90133984Y-55627948D01*
X90202102Y-55837599D01*
X90202104Y-55837602D01*
X90202105Y-55837606D01*
X90256736Y-55944825D01*
X90282866Y-55996108D01*
X90302185Y-56034022D01*
X90431758Y-56212365D01*
X90587635Y-56368242D01*
X90765978Y-56497815D01*
X90962394Y-56597895D01*
X91131093Y-56652707D01*
X91180592Y-56688671D01*
X91199500Y-56746861D01*
X91199500Y-59529564D01*
X91219978Y-59605987D01*
X91232597Y-59627845D01*
X91250929Y-59659596D01*
X91259540Y-59674511D01*
X91450505Y-59865476D01*
X91478281Y-59919991D01*
X91479500Y-59935478D01*
X91479500Y-60164314D01*
X91485932Y-60213174D01*
X91485932Y-60213175D01*
X91535933Y-60320401D01*
X91535934Y-60320402D01*
X91535935Y-60320404D01*
X91619596Y-60404065D01*
X91619597Y-60404065D01*
X91619598Y-60404066D01*
X91632915Y-60410276D01*
X91677663Y-60452005D01*
X91689337Y-60512066D01*
X91663478Y-60567518D01*
X91632915Y-60589724D01*
X91619598Y-60595933D01*
X91535933Y-60679598D01*
X91485932Y-60786824D01*
X91485932Y-60786825D01*
X91483372Y-60806272D01*
X91479500Y-60835684D01*
X91479500Y-61184316D01*
X91480882Y-61194812D01*
X91485932Y-61233174D01*
X91485932Y-61233175D01*
X91535933Y-61340401D01*
X91535934Y-61340402D01*
X91535935Y-61340404D01*
X91619596Y-61424065D01*
X91619597Y-61424065D01*
X91619598Y-61424066D01*
X91726824Y-61474067D01*
X91726825Y-61474067D01*
X91726827Y-61474068D01*
X91775684Y-61480500D01*
X91775685Y-61480500D01*
X92224314Y-61480500D01*
X92224316Y-61480500D01*
X92273173Y-61474068D01*
X92380404Y-61424065D01*
X92464065Y-61340404D01*
X92514068Y-61233173D01*
X92520500Y-61184316D01*
X92520500Y-61011800D01*
X92539407Y-60953609D01*
X92588907Y-60917645D01*
X92619500Y-60912800D01*
X94737203Y-60912800D01*
X94795394Y-60931707D01*
X94831358Y-60981207D01*
X94834984Y-61027288D01*
X94824500Y-61093479D01*
X94824500Y-61556516D01*
X94827560Y-61575833D01*
X94817987Y-61636265D01*
X94774721Y-61679529D01*
X94755404Y-61686944D01*
X94735011Y-61692408D01*
X94735010Y-61692409D01*
X94620890Y-61758296D01*
X94527696Y-61851490D01*
X94461809Y-61965609D01*
X94455568Y-61988903D01*
X94427700Y-62092908D01*
X94427700Y-62224692D01*
X94455251Y-62327514D01*
X94461809Y-62351990D01*
X94527696Y-62466109D01*
X94527698Y-62466111D01*
X94527700Y-62466114D01*
X94620886Y-62559300D01*
X94620888Y-62559301D01*
X94625475Y-62563888D01*
X94624608Y-62564754D01*
X94655487Y-62609683D01*
X94653885Y-62670847D01*
X94616638Y-62719389D01*
X94560564Y-62736800D01*
X90692779Y-62736800D01*
X90634588Y-62717893D01*
X90622775Y-62707804D01*
X89049496Y-61134525D01*
X89021719Y-61080008D01*
X89020500Y-61064521D01*
X89020500Y-60835685D01*
X89019515Y-60828200D01*
X89014068Y-60786827D01*
X89012210Y-60782843D01*
X88964066Y-60679598D01*
X88964065Y-60679597D01*
X88964065Y-60679596D01*
X88880404Y-60595935D01*
X88867085Y-60589724D01*
X88822337Y-60547997D01*
X88810662Y-60487936D01*
X88836519Y-60432483D01*
X88867084Y-60410275D01*
X88880404Y-60404065D01*
X88964065Y-60320404D01*
X89014068Y-60213173D01*
X89020500Y-60164316D01*
X89020500Y-59815684D01*
X89014068Y-59766827D01*
X89000214Y-59737118D01*
X88964066Y-59659598D01*
X88964065Y-59659597D01*
X88964065Y-59659596D01*
X88880404Y-59575935D01*
X88880402Y-59575934D01*
X88880401Y-59575933D01*
X88857659Y-59565328D01*
X88812912Y-59523598D01*
X88800500Y-59475604D01*
X88800500Y-59260437D01*
X88800499Y-59260435D01*
X88798694Y-59253700D01*
X88780021Y-59184011D01*
X88740460Y-59115489D01*
X88714325Y-59089354D01*
X88684511Y-59059539D01*
X88684511Y-59059540D01*
X85735571Y-56110600D01*
X85707794Y-56056083D01*
X85717364Y-55995654D01*
X85797895Y-55837606D01*
X85866015Y-55627951D01*
X85900500Y-55410222D01*
X85900500Y-55189778D01*
X85900500Y-55189774D01*
X85866015Y-54972051D01*
X85866015Y-54972049D01*
X85797895Y-54762394D01*
X85697815Y-54565978D01*
X85568242Y-54387635D01*
X85412365Y-54231758D01*
X85234022Y-54102185D01*
X85234021Y-54102184D01*
X85234019Y-54102183D01*
X85144825Y-54056736D01*
X85037606Y-54002105D01*
X85037602Y-54002104D01*
X85037599Y-54002102D01*
X84967280Y-53979255D01*
X84917780Y-53943291D01*
X84898872Y-53885101D01*
X84917779Y-53826910D01*
X84967279Y-53790946D01*
X84997872Y-53786100D01*
X87502128Y-53786100D01*
X87560319Y-53805007D01*
G37*
%TD.AperFunction*%
%TA.AperFunction,Conductor*%
G36*
X119658691Y-50319407D02*
G01*
X119694655Y-50368907D01*
X119699500Y-50399500D01*
X119699500Y-99600500D01*
X119680593Y-99658691D01*
X119631093Y-99694655D01*
X119600500Y-99699500D01*
X50399500Y-99699500D01*
X50341309Y-99680593D01*
X50305345Y-99631093D01*
X50300500Y-99600500D01*
X50300500Y-93695726D01*
X51599500Y-93695726D01*
X51599500Y-95704265D01*
X51602353Y-95734694D01*
X51602353Y-95734696D01*
X51602354Y-95734698D01*
X51622016Y-95790890D01*
X51647208Y-95862885D01*
X51727845Y-95972144D01*
X51727847Y-95972146D01*
X51727850Y-95972150D01*
X51727853Y-95972152D01*
X51727855Y-95972154D01*
X51837114Y-96052791D01*
X51837116Y-96052791D01*
X51837118Y-96052793D01*
X51965302Y-96097646D01*
X51995735Y-96100500D01*
X54004264Y-96100499D01*
X54004265Y-96100499D01*
X54010350Y-96099928D01*
X54034698Y-96097646D01*
X54162882Y-96052793D01*
X54272150Y-95972150D01*
X54352793Y-95862882D01*
X54397646Y-95734698D01*
X54400500Y-95704265D01*
X54400499Y-93695736D01*
X54397646Y-93665302D01*
X54352793Y-93537118D01*
X54352791Y-93537116D01*
X54352791Y-93537114D01*
X54272154Y-93427855D01*
X54272152Y-93427853D01*
X54272150Y-93427850D01*
X54272146Y-93427847D01*
X54272144Y-93427845D01*
X54162885Y-93347208D01*
X54074042Y-93316121D01*
X54034698Y-93302354D01*
X54034696Y-93302353D01*
X54034694Y-93302353D01*
X54004272Y-93299500D01*
X51995734Y-93299500D01*
X51965305Y-93302353D01*
X51837114Y-93347208D01*
X51727855Y-93427845D01*
X51727845Y-93427855D01*
X51647208Y-93537114D01*
X51602353Y-93665305D01*
X51599500Y-93695726D01*
X50300500Y-93695726D01*
X50300500Y-85600000D01*
X54827046Y-85600000D01*
X55528882Y-85600000D01*
X55526619Y-85603919D01*
X55492000Y-85733120D01*
X55492000Y-85866880D01*
X55526619Y-85996081D01*
X55528882Y-86000000D01*
X54827046Y-86000000D01*
X54839496Y-86078609D01*
X54897366Y-86256718D01*
X54982391Y-86423590D01*
X54982393Y-86423594D01*
X55092466Y-86575097D01*
X55224902Y-86707533D01*
X55376405Y-86817606D01*
X55376409Y-86817608D01*
X55543281Y-86902633D01*
X55721390Y-86960504D01*
X55799999Y-86972953D01*
X55800000Y-86972952D01*
X55800000Y-86271118D01*
X55803919Y-86273381D01*
X55933120Y-86308000D01*
X56066880Y-86308000D01*
X56196081Y-86273381D01*
X56200000Y-86271118D01*
X56200000Y-86972953D01*
X56278608Y-86960504D01*
X56278609Y-86960504D01*
X56456718Y-86902633D01*
X56623590Y-86817608D01*
X56623594Y-86817606D01*
X56775097Y-86707533D01*
X56907533Y-86575097D01*
X57017606Y-86423594D01*
X57017608Y-86423590D01*
X57102633Y-86256718D01*
X57160503Y-86078609D01*
X57172954Y-86000000D01*
X56471118Y-86000000D01*
X56473381Y-85996081D01*
X56508000Y-85866880D01*
X56508000Y-85733120D01*
X56501873Y-85710252D01*
X57399700Y-85710252D01*
X57399700Y-85889747D01*
X57427777Y-86067022D01*
X57427778Y-86067026D01*
X57483239Y-86237716D01*
X57483241Y-86237719D01*
X57537129Y-86343482D01*
X57564728Y-86397647D01*
X57670228Y-86542856D01*
X57797144Y-86669772D01*
X57942353Y-86775272D01*
X58102277Y-86856757D01*
X58102279Y-86856757D01*
X58102280Y-86856758D01*
X58102283Y-86856760D01*
X58272973Y-86912221D01*
X58272977Y-86912222D01*
X58450253Y-86940300D01*
X58450256Y-86940300D01*
X58629747Y-86940300D01*
X58807022Y-86912222D01*
X58807026Y-86912221D01*
X58977716Y-86856760D01*
X58977718Y-86856758D01*
X58977723Y-86856757D01*
X59137647Y-86775272D01*
X59282856Y-86669772D01*
X59409772Y-86542856D01*
X59515272Y-86397647D01*
X59596757Y-86237723D01*
X59596758Y-86237718D01*
X59596760Y-86237716D01*
X59652221Y-86067026D01*
X59652222Y-86067022D01*
X59680300Y-85889747D01*
X59680300Y-85710252D01*
X59652222Y-85532977D01*
X59652221Y-85532973D01*
X59596760Y-85362283D01*
X59596758Y-85362280D01*
X59596757Y-85362279D01*
X59596757Y-85362277D01*
X59515272Y-85202353D01*
X59409772Y-85057144D01*
X59282856Y-84930228D01*
X59137647Y-84824728D01*
X59137646Y-84824727D01*
X59137644Y-84824726D01*
X58977719Y-84743241D01*
X58977716Y-84743239D01*
X58807026Y-84687778D01*
X58807022Y-84687777D01*
X58629747Y-84659700D01*
X58629744Y-84659700D01*
X58450256Y-84659700D01*
X58450253Y-84659700D01*
X58272977Y-84687777D01*
X58272973Y-84687778D01*
X58102283Y-84743239D01*
X58102280Y-84743241D01*
X57942355Y-84824726D01*
X57878955Y-84870789D01*
X57797144Y-84930228D01*
X57670228Y-85057144D01*
X57617478Y-85129748D01*
X57564726Y-85202355D01*
X57483241Y-85362280D01*
X57483239Y-85362283D01*
X57427778Y-85532973D01*
X57427777Y-85532977D01*
X57399700Y-85710252D01*
X56501873Y-85710252D01*
X56473381Y-85603919D01*
X56471118Y-85600000D01*
X57172954Y-85600000D01*
X57160503Y-85521390D01*
X57102633Y-85343281D01*
X57017608Y-85176409D01*
X57017606Y-85176405D01*
X56907533Y-85024902D01*
X56775097Y-84892466D01*
X56623594Y-84782393D01*
X56623590Y-84782391D01*
X56456718Y-84697366D01*
X56278609Y-84639496D01*
X56200000Y-84627045D01*
X56200000Y-85328881D01*
X56196081Y-85326619D01*
X56066880Y-85292000D01*
X55933120Y-85292000D01*
X55803919Y-85326619D01*
X55800000Y-85328881D01*
X55800000Y-84627045D01*
X55721390Y-84639496D01*
X55543281Y-84697366D01*
X55376409Y-84782391D01*
X55376405Y-84782393D01*
X55224902Y-84892466D01*
X55092466Y-85024902D01*
X54982393Y-85176405D01*
X54982391Y-85176409D01*
X54897366Y-85343281D01*
X54839496Y-85521390D01*
X54827046Y-85600000D01*
X50300500Y-85600000D01*
X50300500Y-75534518D01*
X59562500Y-75534518D01*
X59562500Y-77575478D01*
X59562501Y-77575484D01*
X59568587Y-77632111D01*
X59568587Y-77632112D01*
X59568588Y-77632114D01*
X59616372Y-77760226D01*
X59698313Y-77869687D01*
X59807774Y-77951628D01*
X59935886Y-77999412D01*
X59992515Y-78005500D01*
X60633484Y-78005499D01*
X60690114Y-77999412D01*
X60818226Y-77951628D01*
X60927687Y-77869687D01*
X61009628Y-77760226D01*
X61057412Y-77632114D01*
X61063500Y-77575485D01*
X61063499Y-75534518D01*
X61467500Y-75534518D01*
X61467500Y-77575478D01*
X61467501Y-77575484D01*
X61473587Y-77632111D01*
X61473587Y-77632112D01*
X61473588Y-77632114D01*
X61521372Y-77760226D01*
X61603313Y-77869687D01*
X61712774Y-77951628D01*
X61840886Y-77999412D01*
X61897515Y-78005500D01*
X62538484Y-78005499D01*
X62595114Y-77999412D01*
X62723226Y-77951628D01*
X62832687Y-77869687D01*
X62914628Y-77760226D01*
X62962412Y-77632114D01*
X62968500Y-77575485D01*
X62968499Y-75534516D01*
X62962412Y-75477886D01*
X62914628Y-75349774D01*
X62832687Y-75240313D01*
X62781106Y-75201700D01*
X62723228Y-75158373D01*
X62723226Y-75158372D01*
X62595114Y-75110588D01*
X62595113Y-75110587D01*
X62556895Y-75106479D01*
X62538485Y-75104500D01*
X62538481Y-75104500D01*
X61897521Y-75104500D01*
X61897515Y-75104501D01*
X61840888Y-75110587D01*
X61840886Y-75110588D01*
X61712774Y-75158372D01*
X61712773Y-75158372D01*
X61712772Y-75158373D01*
X61603315Y-75240311D01*
X61603311Y-75240315D01*
X61521373Y-75349771D01*
X61473587Y-75477887D01*
X61467500Y-75534518D01*
X61063499Y-75534518D01*
X61063499Y-75534516D01*
X61057412Y-75477886D01*
X61009628Y-75349774D01*
X60927687Y-75240313D01*
X60876106Y-75201700D01*
X60818228Y-75158373D01*
X60818226Y-75158372D01*
X60690114Y-75110588D01*
X60690113Y-75110587D01*
X60651895Y-75106479D01*
X60633485Y-75104500D01*
X60633481Y-75104500D01*
X59992521Y-75104500D01*
X59992515Y-75104501D01*
X59935888Y-75110587D01*
X59935886Y-75110588D01*
X59807774Y-75158372D01*
X59807773Y-75158372D01*
X59807772Y-75158373D01*
X59698315Y-75240311D01*
X59698311Y-75240315D01*
X59616373Y-75349771D01*
X59568587Y-75477887D01*
X59562500Y-75534518D01*
X50300500Y-75534518D01*
X50300500Y-73276532D01*
X52917500Y-73276532D01*
X52917500Y-73483467D01*
X52957869Y-73686418D01*
X53037058Y-73877597D01*
X53152020Y-74049651D01*
X53152023Y-74049655D01*
X53298345Y-74195977D01*
X53470402Y-74310941D01*
X53661580Y-74390130D01*
X53864535Y-74430500D01*
X53864536Y-74430500D01*
X54071464Y-74430500D01*
X54071465Y-74430500D01*
X54274420Y-74390130D01*
X54465598Y-74310941D01*
X54637655Y-74195977D01*
X54783977Y-74049655D01*
X54898941Y-73877598D01*
X54978130Y-73686420D01*
X55018500Y-73483465D01*
X55018500Y-73276535D01*
X55018499Y-73276532D01*
X55457500Y-73276532D01*
X55457500Y-73483467D01*
X55497869Y-73686418D01*
X55577058Y-73877597D01*
X55692020Y-74049651D01*
X55692023Y-74049655D01*
X55838345Y-74195977D01*
X56010402Y-74310941D01*
X56201580Y-74390130D01*
X56404535Y-74430500D01*
X56404536Y-74430500D01*
X56611464Y-74430500D01*
X56611465Y-74430500D01*
X56814420Y-74390130D01*
X57005598Y-74310941D01*
X57177655Y-74195977D01*
X57323977Y-74049655D01*
X57438941Y-73877598D01*
X57518130Y-73686420D01*
X57558500Y-73483465D01*
X57558500Y-73276535D01*
X57558499Y-73276532D01*
X57997500Y-73276532D01*
X57997500Y-73483467D01*
X58037869Y-73686418D01*
X58117058Y-73877597D01*
X58232020Y-74049651D01*
X58232023Y-74049655D01*
X58378345Y-74195977D01*
X58550402Y-74310941D01*
X58741580Y-74390130D01*
X58944535Y-74430500D01*
X58944536Y-74430500D01*
X59151464Y-74430500D01*
X59151465Y-74430500D01*
X59354420Y-74390130D01*
X59545598Y-74310941D01*
X59717655Y-74195977D01*
X59863977Y-74049655D01*
X59978941Y-73877598D01*
X60058130Y-73686420D01*
X60098500Y-73483465D01*
X60098500Y-73276535D01*
X60058130Y-73073580D01*
X59978941Y-72882402D01*
X59863977Y-72710345D01*
X59717655Y-72564023D01*
X59545598Y-72449059D01*
X59545599Y-72449059D01*
X59545597Y-72449058D01*
X59354418Y-72369869D01*
X59151467Y-72329500D01*
X59151465Y-72329500D01*
X58944535Y-72329500D01*
X58944532Y-72329500D01*
X58741581Y-72369869D01*
X58550402Y-72449058D01*
X58378348Y-72564020D01*
X58232020Y-72710348D01*
X58117058Y-72882402D01*
X58037869Y-73073581D01*
X57997500Y-73276532D01*
X57558499Y-73276532D01*
X57518130Y-73073580D01*
X57438941Y-72882402D01*
X57323977Y-72710345D01*
X57177655Y-72564023D01*
X57005598Y-72449059D01*
X57005599Y-72449059D01*
X57005597Y-72449058D01*
X56814418Y-72369869D01*
X56611467Y-72329500D01*
X56611465Y-72329500D01*
X56404535Y-72329500D01*
X56404532Y-72329500D01*
X56201581Y-72369869D01*
X56010402Y-72449058D01*
X55838348Y-72564020D01*
X55692020Y-72710348D01*
X55577058Y-72882402D01*
X55497869Y-73073581D01*
X55457500Y-73276532D01*
X55018499Y-73276532D01*
X54978130Y-73073580D01*
X54898941Y-72882402D01*
X54783977Y-72710345D01*
X54637655Y-72564023D01*
X54465598Y-72449059D01*
X54465599Y-72449059D01*
X54465597Y-72449058D01*
X54274418Y-72369869D01*
X54071467Y-72329500D01*
X54071465Y-72329500D01*
X53864535Y-72329500D01*
X53864532Y-72329500D01*
X53661581Y-72369869D01*
X53470402Y-72449058D01*
X53298348Y-72564020D01*
X53152020Y-72710348D01*
X53037058Y-72882402D01*
X52957869Y-73073581D01*
X52917500Y-73276532D01*
X50300500Y-73276532D01*
X50300500Y-70736532D01*
X52917500Y-70736532D01*
X52917500Y-70943467D01*
X52957869Y-71146418D01*
X53037058Y-71337597D01*
X53037059Y-71337598D01*
X53152023Y-71509655D01*
X53298345Y-71655977D01*
X53470402Y-71770941D01*
X53661580Y-71850130D01*
X53864535Y-71890500D01*
X53864536Y-71890500D01*
X54071464Y-71890500D01*
X54071465Y-71890500D01*
X54274420Y-71850130D01*
X54465598Y-71770941D01*
X54637655Y-71655977D01*
X54783977Y-71509655D01*
X54898941Y-71337598D01*
X54978130Y-71146420D01*
X55018500Y-70943465D01*
X55018500Y-70736535D01*
X55018499Y-70736532D01*
X55457500Y-70736532D01*
X55457500Y-70943467D01*
X55497869Y-71146418D01*
X55577058Y-71337597D01*
X55577059Y-71337598D01*
X55692023Y-71509655D01*
X55838345Y-71655977D01*
X56010402Y-71770941D01*
X56201580Y-71850130D01*
X56404535Y-71890500D01*
X56404536Y-71890500D01*
X56611464Y-71890500D01*
X56611465Y-71890500D01*
X56814420Y-71850130D01*
X57005598Y-71770941D01*
X57177655Y-71655977D01*
X57323977Y-71509655D01*
X57438941Y-71337598D01*
X57518130Y-71146420D01*
X57558500Y-70943465D01*
X57558500Y-70736535D01*
X57558499Y-70736532D01*
X57997500Y-70736532D01*
X57997500Y-70943467D01*
X58037869Y-71146418D01*
X58117058Y-71337597D01*
X58117059Y-71337598D01*
X58232023Y-71509655D01*
X58378345Y-71655977D01*
X58550402Y-71770941D01*
X58741580Y-71850130D01*
X58944535Y-71890500D01*
X58944536Y-71890500D01*
X59151464Y-71890500D01*
X59151465Y-71890500D01*
X59354420Y-71850130D01*
X59545598Y-71770941D01*
X59717655Y-71655977D01*
X59863977Y-71509655D01*
X59978941Y-71337598D01*
X60058130Y-71146420D01*
X60098500Y-70943465D01*
X60098500Y-70736535D01*
X60058130Y-70533580D01*
X59978941Y-70342402D01*
X59863977Y-70170345D01*
X59717655Y-70024023D01*
X59663952Y-69988140D01*
X59545597Y-69909058D01*
X59354418Y-69829869D01*
X59151467Y-69789500D01*
X59151465Y-69789500D01*
X58944535Y-69789500D01*
X58944532Y-69789500D01*
X58741581Y-69829869D01*
X58550402Y-69909058D01*
X58378348Y-70024020D01*
X58232020Y-70170348D01*
X58117058Y-70342402D01*
X58037869Y-70533581D01*
X57997500Y-70736532D01*
X57558499Y-70736532D01*
X57518130Y-70533580D01*
X57438941Y-70342402D01*
X57323977Y-70170345D01*
X57177655Y-70024023D01*
X57123952Y-69988140D01*
X57005597Y-69909058D01*
X56814418Y-69829869D01*
X56611467Y-69789500D01*
X56611465Y-69789500D01*
X56404535Y-69789500D01*
X56404532Y-69789500D01*
X56201581Y-69829869D01*
X56010402Y-69909058D01*
X55838348Y-70024020D01*
X55692020Y-70170348D01*
X55577058Y-70342402D01*
X55497869Y-70533581D01*
X55457500Y-70736532D01*
X55018499Y-70736532D01*
X54978130Y-70533580D01*
X54898941Y-70342402D01*
X54783977Y-70170345D01*
X54637655Y-70024023D01*
X54583952Y-69988140D01*
X54465597Y-69909058D01*
X54274418Y-69829869D01*
X54071467Y-69789500D01*
X54071465Y-69789500D01*
X53864535Y-69789500D01*
X53864532Y-69789500D01*
X53661581Y-69829869D01*
X53470402Y-69909058D01*
X53298348Y-70024020D01*
X53152020Y-70170348D01*
X53037058Y-70342402D01*
X52957869Y-70533581D01*
X52917500Y-70736532D01*
X50300500Y-70736532D01*
X50300500Y-63068379D01*
X53779500Y-63068379D01*
X53779500Y-64931620D01*
X53785913Y-65002194D01*
X53836521Y-65164605D01*
X53836522Y-65164607D01*
X53877229Y-65231944D01*
X53924528Y-65310185D01*
X54044815Y-65430472D01*
X54190394Y-65518478D01*
X54352804Y-65569086D01*
X54423384Y-65575500D01*
X54423389Y-65575500D01*
X55536611Y-65575500D01*
X55536616Y-65575500D01*
X55607196Y-65569086D01*
X55769606Y-65518478D01*
X55915185Y-65430472D01*
X56035472Y-65310185D01*
X56123478Y-65164606D01*
X56174086Y-65002196D01*
X56180500Y-64931616D01*
X56180500Y-63068384D01*
X56174086Y-62997804D01*
X56123478Y-62835394D01*
X56123477Y-62835392D01*
X56100749Y-62797796D01*
X56035472Y-62689815D01*
X55915185Y-62569528D01*
X55868285Y-62541176D01*
X55769607Y-62481522D01*
X55769605Y-62481521D01*
X55607194Y-62430913D01*
X55536620Y-62424500D01*
X55536616Y-62424500D01*
X54423384Y-62424500D01*
X54423379Y-62424500D01*
X54352805Y-62430913D01*
X54190394Y-62481521D01*
X54190392Y-62481522D01*
X54044816Y-62569527D01*
X53924527Y-62689816D01*
X53836522Y-62835392D01*
X53836521Y-62835394D01*
X53785913Y-62997805D01*
X53779500Y-63068379D01*
X50300500Y-63068379D01*
X50300500Y-59895725D01*
X52999500Y-59895725D01*
X52999500Y-61104274D01*
X53002353Y-61134694D01*
X53002355Y-61134703D01*
X53047207Y-61262883D01*
X53127845Y-61372144D01*
X53127847Y-61372146D01*
X53127850Y-61372150D01*
X53127853Y-61372152D01*
X53127855Y-61372154D01*
X53237116Y-61452792D01*
X53237117Y-61452792D01*
X53237118Y-61452793D01*
X53365301Y-61497646D01*
X53395725Y-61500499D01*
X53395727Y-61500500D01*
X53395734Y-61500500D01*
X54604273Y-61500500D01*
X54604273Y-61500499D01*
X54634699Y-61497646D01*
X54762882Y-61452793D01*
X54872150Y-61372150D01*
X54905775Y-61326590D01*
X54944133Y-61274617D01*
X54952792Y-61262883D01*
X54952791Y-61262883D01*
X54952793Y-61262882D01*
X54997646Y-61134699D01*
X55000499Y-61104273D01*
X55000500Y-61104273D01*
X55000500Y-60396581D01*
X55450000Y-60396581D01*
X55450000Y-60603418D01*
X55490349Y-60806272D01*
X55569501Y-60997361D01*
X55629699Y-61087455D01*
X56113628Y-60603525D01*
X56127259Y-60654394D01*
X56179920Y-60745606D01*
X56254394Y-60820080D01*
X56345606Y-60872741D01*
X56396471Y-60886370D01*
X55912543Y-61370299D01*
X56002638Y-61430498D01*
X56193727Y-61509650D01*
X56396581Y-61549999D01*
X56396586Y-61550000D01*
X56603414Y-61550000D01*
X56603418Y-61549999D01*
X56806272Y-61509650D01*
X56997360Y-61430498D01*
X57087455Y-61370299D01*
X56603526Y-60886370D01*
X56654394Y-60872741D01*
X56745606Y-60820080D01*
X56820080Y-60745606D01*
X56872741Y-60654394D01*
X56886370Y-60603526D01*
X57370299Y-61087455D01*
X57430498Y-60997360D01*
X57509650Y-60806272D01*
X57549999Y-60603418D01*
X57550000Y-60603413D01*
X57550000Y-60396586D01*
X57549999Y-60396581D01*
X57509650Y-60193727D01*
X57430498Y-60002638D01*
X57370299Y-59912543D01*
X56886370Y-60396471D01*
X56872741Y-60345606D01*
X56820080Y-60254394D01*
X56745606Y-60179920D01*
X56654394Y-60127259D01*
X56603525Y-60113628D01*
X57087455Y-59629699D01*
X56997361Y-59569501D01*
X56806272Y-59490349D01*
X56603418Y-59450000D01*
X56396581Y-59450000D01*
X56193727Y-59490349D01*
X56002638Y-59569501D01*
X55912543Y-59629699D01*
X56396473Y-60113629D01*
X56345606Y-60127259D01*
X56254394Y-60179920D01*
X56179920Y-60254394D01*
X56127259Y-60345606D01*
X56113629Y-60396473D01*
X55629699Y-59912543D01*
X55569501Y-60002638D01*
X55490349Y-60193727D01*
X55450000Y-60396581D01*
X55000500Y-60396581D01*
X55000500Y-59895727D01*
X55000499Y-59895725D01*
X54997646Y-59865301D01*
X54952793Y-59737118D01*
X54895581Y-59659598D01*
X54872154Y-59627855D01*
X54872152Y-59627853D01*
X54872150Y-59627850D01*
X54872146Y-59627847D01*
X54872144Y-59627845D01*
X54762883Y-59547207D01*
X54634703Y-59502355D01*
X54634694Y-59502353D01*
X54604274Y-59499500D01*
X54604266Y-59499500D01*
X53395734Y-59499500D01*
X53395725Y-59499500D01*
X53365305Y-59502353D01*
X53365296Y-59502355D01*
X53237116Y-59547207D01*
X53127855Y-59627845D01*
X53127845Y-59627855D01*
X53047207Y-59737116D01*
X53002355Y-59865296D01*
X53002353Y-59865305D01*
X52999500Y-59895725D01*
X50300500Y-59895725D01*
X50300500Y-55189774D01*
X52099500Y-55189774D01*
X52099500Y-55410225D01*
X52133984Y-55627948D01*
X52202102Y-55837599D01*
X52202104Y-55837602D01*
X52202105Y-55837606D01*
X52256736Y-55944825D01*
X52282866Y-55996108D01*
X52302185Y-56034022D01*
X52431758Y-56212365D01*
X52587635Y-56368242D01*
X52765978Y-56497815D01*
X52962394Y-56597895D01*
X53172049Y-56666015D01*
X53238438Y-56676530D01*
X53389775Y-56700500D01*
X53389778Y-56700500D01*
X53610225Y-56700500D01*
X53719086Y-56683257D01*
X53827951Y-56666015D01*
X54037606Y-56597895D01*
X54234022Y-56497815D01*
X54367652Y-56400727D01*
X54425840Y-56381820D01*
X54484031Y-56400727D01*
X54495845Y-56410816D01*
X57950504Y-59865475D01*
X57978281Y-59919992D01*
X57979500Y-59935479D01*
X57979500Y-60164314D01*
X57985932Y-60213174D01*
X57985932Y-60213175D01*
X58035933Y-60320401D01*
X58035934Y-60320402D01*
X58035935Y-60320404D01*
X58119596Y-60404065D01*
X58119597Y-60404065D01*
X58119598Y-60404066D01*
X58132915Y-60410276D01*
X58177663Y-60452005D01*
X58189337Y-60512066D01*
X58163478Y-60567518D01*
X58132915Y-60589724D01*
X58119598Y-60595933D01*
X58035933Y-60679598D01*
X57985932Y-60786824D01*
X57985932Y-60786825D01*
X57983372Y-60806272D01*
X57979500Y-60835684D01*
X57979500Y-61184316D01*
X57980882Y-61194812D01*
X57985932Y-61233174D01*
X57985932Y-61233175D01*
X58035933Y-61340401D01*
X58035934Y-61340402D01*
X58035935Y-61340404D01*
X58119596Y-61424065D01*
X58119597Y-61424065D01*
X58119598Y-61424066D01*
X58226824Y-61474067D01*
X58226825Y-61474067D01*
X58226827Y-61474068D01*
X58275684Y-61480500D01*
X58504521Y-61480500D01*
X58562712Y-61499407D01*
X58574524Y-61509496D01*
X58891388Y-61826359D01*
X58891393Y-61826363D01*
X58959908Y-61865920D01*
X58959906Y-61865920D01*
X58959910Y-61865921D01*
X58959912Y-61865922D01*
X59036338Y-61886400D01*
X59036340Y-61886400D01*
X63251663Y-61886400D01*
X63251663Y-61886399D01*
X63328089Y-61865921D01*
X63396611Y-61826360D01*
X63432776Y-61790194D01*
X63487291Y-61762419D01*
X63502778Y-61761200D01*
X63603190Y-61761200D01*
X63603192Y-61761200D01*
X63730486Y-61727092D01*
X63730488Y-61727090D01*
X63730490Y-61727090D01*
X63844609Y-61661203D01*
X63844609Y-61661202D01*
X63844614Y-61661200D01*
X63937800Y-61568014D01*
X63944437Y-61556518D01*
X64003690Y-61453890D01*
X64003690Y-61453888D01*
X64003692Y-61453886D01*
X64037800Y-61326592D01*
X64037800Y-61194808D01*
X64003692Y-61067514D01*
X64003691Y-61067512D01*
X64002012Y-61061246D01*
X64004937Y-61060462D01*
X64001118Y-61011882D01*
X64033091Y-60959715D01*
X64089621Y-60936305D01*
X64097381Y-60936000D01*
X64733528Y-60936000D01*
X64791719Y-60954907D01*
X64827683Y-61004407D01*
X64831309Y-61050487D01*
X64824500Y-61093477D01*
X64824500Y-61556520D01*
X64824501Y-61556523D01*
X64839352Y-61650299D01*
X64839354Y-61650304D01*
X64896950Y-61763342D01*
X64986658Y-61853050D01*
X65011915Y-61865919D01*
X65025402Y-61872791D01*
X65068666Y-61916055D01*
X65078237Y-61976488D01*
X65050459Y-62031004D01*
X64995942Y-62058781D01*
X64980456Y-62060000D01*
X64199935Y-62060000D01*
X64123512Y-62080478D01*
X64098199Y-62095093D01*
X64098198Y-62095092D01*
X64054988Y-62120040D01*
X63633851Y-62541176D01*
X63579335Y-62568953D01*
X63518903Y-62559382D01*
X63512639Y-62555898D01*
X63418760Y-62499146D01*
X63389607Y-62481522D01*
X63389605Y-62481521D01*
X63227194Y-62430913D01*
X63156620Y-62424500D01*
X63156616Y-62424500D01*
X62043384Y-62424500D01*
X62043379Y-62424500D01*
X61972805Y-62430913D01*
X61810394Y-62481521D01*
X61810392Y-62481522D01*
X61664816Y-62569527D01*
X61544527Y-62689816D01*
X61456522Y-62835392D01*
X61456521Y-62835394D01*
X61424518Y-62938101D01*
X61389155Y-62988032D01*
X61331197Y-63007642D01*
X61272782Y-62989439D01*
X61236222Y-62940378D01*
X61235482Y-62938101D01*
X61222420Y-62896184D01*
X61203478Y-62835394D01*
X61203477Y-62835392D01*
X61180749Y-62797796D01*
X61115472Y-62689815D01*
X60995185Y-62569528D01*
X60948285Y-62541176D01*
X60849607Y-62481522D01*
X60849605Y-62481521D01*
X60687194Y-62430913D01*
X60616620Y-62424500D01*
X60616616Y-62424500D01*
X59503384Y-62424500D01*
X59503379Y-62424500D01*
X59432805Y-62430913D01*
X59270394Y-62481521D01*
X59270392Y-62481522D01*
X59124816Y-62569527D01*
X59004527Y-62689816D01*
X58916522Y-62835392D01*
X58916521Y-62835394D01*
X58865913Y-62997805D01*
X58859500Y-63068379D01*
X58859500Y-64931620D01*
X58865913Y-65002194D01*
X58890160Y-65080007D01*
X58909226Y-65141193D01*
X58916522Y-65164605D01*
X58916524Y-65164611D01*
X58928183Y-65183897D01*
X58942106Y-65243477D01*
X58918350Y-65299862D01*
X58881347Y-65326575D01*
X58878614Y-65327706D01*
X58764490Y-65393596D01*
X58671296Y-65486790D01*
X58605409Y-65600909D01*
X58601283Y-65616309D01*
X58571300Y-65728208D01*
X58571300Y-65859992D01*
X58584861Y-65910603D01*
X58605409Y-65987290D01*
X58671296Y-66101409D01*
X58671298Y-66101411D01*
X58671300Y-66101414D01*
X58764486Y-66194600D01*
X58764488Y-66194601D01*
X58764490Y-66194603D01*
X58878610Y-66260490D01*
X58878608Y-66260490D01*
X58878612Y-66260491D01*
X58878614Y-66260492D01*
X59005908Y-66294600D01*
X59005910Y-66294600D01*
X59137690Y-66294600D01*
X59137692Y-66294600D01*
X59264986Y-66260492D01*
X59264988Y-66260490D01*
X59264989Y-66260490D01*
X59309332Y-66234889D01*
X59379114Y-66194600D01*
X59472300Y-66101414D01*
X59538192Y-65987286D01*
X59572300Y-65859992D01*
X59572300Y-65759577D01*
X59591207Y-65701386D01*
X59601297Y-65689573D01*
X59686375Y-65604496D01*
X59740892Y-65576719D01*
X59756378Y-65575500D01*
X60616611Y-65575500D01*
X60616616Y-65575500D01*
X60687196Y-65569086D01*
X60849606Y-65518478D01*
X60995185Y-65430472D01*
X61115472Y-65310185D01*
X61203478Y-65164606D01*
X61235482Y-65061896D01*
X61270845Y-65011967D01*
X61328803Y-64992357D01*
X61387218Y-65010560D01*
X61423778Y-65059621D01*
X61424506Y-65061862D01*
X61453373Y-65154500D01*
X61456522Y-65164605D01*
X61456522Y-65164607D01*
X61497229Y-65231944D01*
X61544528Y-65310185D01*
X61664815Y-65430472D01*
X61810394Y-65518478D01*
X61972804Y-65569086D01*
X62043384Y-65575500D01*
X62043389Y-65575500D01*
X63156611Y-65575500D01*
X63156616Y-65575500D01*
X63227196Y-65569086D01*
X63389606Y-65518478D01*
X63535185Y-65430472D01*
X63655472Y-65310185D01*
X63743478Y-65164606D01*
X63775482Y-65061896D01*
X63810845Y-65011967D01*
X63868803Y-64992357D01*
X63927218Y-65010560D01*
X63963778Y-65059621D01*
X63964506Y-65061862D01*
X63993373Y-65154500D01*
X63996522Y-65164605D01*
X63996522Y-65164607D01*
X64037229Y-65231944D01*
X64084528Y-65310185D01*
X64204815Y-65430472D01*
X64350394Y-65518478D01*
X64512804Y-65569086D01*
X64583384Y-65575500D01*
X64583389Y-65575500D01*
X65696611Y-65575500D01*
X65696616Y-65575500D01*
X65767196Y-65569086D01*
X65929606Y-65518478D01*
X66075185Y-65430472D01*
X66195472Y-65310185D01*
X66283478Y-65164606D01*
X66315482Y-65061896D01*
X66350845Y-65011967D01*
X66408803Y-64992357D01*
X66467218Y-65010560D01*
X66503778Y-65059621D01*
X66504506Y-65061862D01*
X66533373Y-65154500D01*
X66536522Y-65164605D01*
X66536522Y-65164607D01*
X66577229Y-65231944D01*
X66624528Y-65310185D01*
X66744815Y-65430472D01*
X66890394Y-65518478D01*
X67052804Y-65569086D01*
X67123384Y-65575500D01*
X67280500Y-65575500D01*
X67338691Y-65594407D01*
X67374655Y-65643907D01*
X67379500Y-65674500D01*
X67379500Y-66457464D01*
X67399977Y-66533885D01*
X67399979Y-66533889D01*
X67432936Y-66590973D01*
X67439540Y-66602411D01*
X67543239Y-66706111D01*
X67543240Y-66706111D01*
X68147340Y-67310211D01*
X68147339Y-67310211D01*
X68203289Y-67366160D01*
X68271807Y-67405719D01*
X68271811Y-67405721D01*
X68348235Y-67426199D01*
X68348237Y-67426200D01*
X68348238Y-67426200D01*
X91748563Y-67426200D01*
X91748563Y-67426199D01*
X91824989Y-67405721D01*
X91893511Y-67366160D01*
X91893685Y-67365985D01*
X91893844Y-67365904D01*
X91898661Y-67362209D01*
X91899345Y-67363101D01*
X91948197Y-67338203D01*
X92008630Y-67347769D01*
X92033696Y-67365979D01*
X92570166Y-67902469D01*
X94403178Y-69735552D01*
X94403181Y-69735554D01*
X94403184Y-69735557D01*
X94468990Y-69773550D01*
X94471371Y-69775030D01*
X94511494Y-69785780D01*
X94511501Y-69785784D01*
X94511502Y-69785783D01*
X94548132Y-69795600D01*
X94587694Y-69795600D01*
X94627256Y-69795601D01*
X94627260Y-69795600D01*
X95000105Y-69795600D01*
X95058296Y-69814507D01*
X95094260Y-69864007D01*
X95094260Y-69925193D01*
X95058296Y-69974693D01*
X95049606Y-69980336D01*
X95036090Y-69988139D01*
X88521324Y-76502904D01*
X88466807Y-76530681D01*
X88451320Y-76531900D01*
X88350908Y-76531900D01*
X88273000Y-76552775D01*
X88223609Y-76566009D01*
X88109490Y-76631896D01*
X88016296Y-76725090D01*
X87950409Y-76839209D01*
X87950408Y-76839214D01*
X87916300Y-76966508D01*
X87916300Y-77098292D01*
X87939739Y-77185767D01*
X87950409Y-77225590D01*
X88016296Y-77339709D01*
X88016298Y-77339711D01*
X88016300Y-77339714D01*
X88109486Y-77432900D01*
X88193442Y-77481372D01*
X88234383Y-77526841D01*
X88240779Y-77587691D01*
X88233236Y-77607348D01*
X88233891Y-77607620D01*
X88231409Y-77613611D01*
X88231408Y-77613613D01*
X88231408Y-77613614D01*
X88197300Y-77740908D01*
X88197300Y-77872692D01*
X88224894Y-77975678D01*
X88221692Y-78036779D01*
X88183187Y-78084329D01*
X88129268Y-78100300D01*
X72023762Y-78100300D01*
X71944638Y-78100300D01*
X71897861Y-78112833D01*
X71868207Y-78120779D01*
X71799693Y-78160336D01*
X71799688Y-78160340D01*
X71253851Y-78706176D01*
X71199335Y-78733953D01*
X71138903Y-78724382D01*
X71132639Y-78720898D01*
X71058719Y-78676212D01*
X71009607Y-78646522D01*
X71009605Y-78646521D01*
X70847194Y-78595913D01*
X70776620Y-78589500D01*
X70776616Y-78589500D01*
X69663384Y-78589500D01*
X69663379Y-78589500D01*
X69592805Y-78595913D01*
X69430394Y-78646521D01*
X69430390Y-78646523D01*
X69404311Y-78662289D01*
X69344731Y-78676212D01*
X69288346Y-78652455D01*
X69256693Y-78600094D01*
X69261863Y-78539127D01*
X69267356Y-78528072D01*
X69289692Y-78489386D01*
X69323800Y-78362092D01*
X69323800Y-78230308D01*
X69289692Y-78103014D01*
X69289690Y-78103011D01*
X69289690Y-78103009D01*
X69223803Y-77988890D01*
X69223801Y-77988888D01*
X69223800Y-77988886D01*
X69130614Y-77895700D01*
X69130611Y-77895698D01*
X69130609Y-77895696D01*
X69016489Y-77829809D01*
X69016491Y-77829809D01*
X68967099Y-77816575D01*
X68889192Y-77795700D01*
X68757408Y-77795700D01*
X68679500Y-77816575D01*
X68630109Y-77829809D01*
X68515990Y-77895696D01*
X68515989Y-77895697D01*
X68515986Y-77895699D01*
X68515986Y-77895700D01*
X68444980Y-77966705D01*
X68390466Y-77994481D01*
X68374979Y-77995700D01*
X64429235Y-77995700D01*
X64352812Y-78016178D01*
X64298977Y-78047260D01*
X64298976Y-78047259D01*
X64284289Y-78055739D01*
X63633851Y-78706176D01*
X63579335Y-78733953D01*
X63518903Y-78724382D01*
X63512639Y-78720898D01*
X63438719Y-78676212D01*
X63389607Y-78646522D01*
X63389605Y-78646521D01*
X63227194Y-78595913D01*
X63156620Y-78589500D01*
X63156616Y-78589500D01*
X62043384Y-78589500D01*
X62043379Y-78589500D01*
X61972805Y-78595913D01*
X61810394Y-78646521D01*
X61810392Y-78646522D01*
X61664816Y-78734527D01*
X61544527Y-78854816D01*
X61456522Y-79000392D01*
X61456521Y-79000394D01*
X61424518Y-79103101D01*
X61389155Y-79153032D01*
X61331197Y-79172642D01*
X61272782Y-79154439D01*
X61236222Y-79105378D01*
X61235482Y-79103101D01*
X61203478Y-79000394D01*
X61203477Y-79000392D01*
X61161469Y-78930903D01*
X61115472Y-78854815D01*
X60995185Y-78734528D01*
X60940261Y-78701325D01*
X60849607Y-78646522D01*
X60849605Y-78646521D01*
X60687194Y-78595913D01*
X60616620Y-78589500D01*
X60616616Y-78589500D01*
X59503384Y-78589500D01*
X59503379Y-78589500D01*
X59432805Y-78595913D01*
X59270394Y-78646521D01*
X59270392Y-78646522D01*
X59124816Y-78734527D01*
X59004527Y-78854816D01*
X58916522Y-79000392D01*
X58916521Y-79000394D01*
X58884518Y-79103101D01*
X58849155Y-79153032D01*
X58791197Y-79172642D01*
X58732782Y-79154439D01*
X58696222Y-79105378D01*
X58695482Y-79103101D01*
X58663478Y-79000394D01*
X58663477Y-79000392D01*
X58621469Y-78930903D01*
X58575472Y-78854815D01*
X58455185Y-78734528D01*
X58400261Y-78701325D01*
X58309607Y-78646522D01*
X58309605Y-78646521D01*
X58147194Y-78595913D01*
X58076620Y-78589500D01*
X58076616Y-78589500D01*
X56963384Y-78589500D01*
X56963379Y-78589500D01*
X56892805Y-78595913D01*
X56730394Y-78646521D01*
X56730392Y-78646522D01*
X56584816Y-78734527D01*
X56464527Y-78854816D01*
X56376522Y-79000392D01*
X56376521Y-79000394D01*
X56344518Y-79103101D01*
X56309155Y-79153032D01*
X56251197Y-79172642D01*
X56192782Y-79154439D01*
X56156222Y-79105378D01*
X56155482Y-79103101D01*
X56123478Y-79000394D01*
X56123477Y-79000392D01*
X56081469Y-78930903D01*
X56035472Y-78854815D01*
X55915185Y-78734528D01*
X55860261Y-78701325D01*
X55769607Y-78646522D01*
X55769605Y-78646521D01*
X55607194Y-78595913D01*
X55536620Y-78589500D01*
X55536616Y-78589500D01*
X54423384Y-78589500D01*
X54423379Y-78589500D01*
X54352805Y-78595913D01*
X54190394Y-78646521D01*
X54190392Y-78646522D01*
X54044816Y-78734527D01*
X53924527Y-78854816D01*
X53836522Y-79000392D01*
X53836521Y-79000394D01*
X53785913Y-79162805D01*
X53779500Y-79233379D01*
X53779500Y-81096620D01*
X53785913Y-81167194D01*
X53836521Y-81329605D01*
X53836522Y-81329607D01*
X53901914Y-81437777D01*
X53924528Y-81475185D01*
X54044815Y-81595472D01*
X54139999Y-81653013D01*
X54179512Y-81676900D01*
X54190394Y-81683478D01*
X54352804Y-81734086D01*
X54423384Y-81740500D01*
X54423389Y-81740500D01*
X55536611Y-81740500D01*
X55536616Y-81740500D01*
X55607196Y-81734086D01*
X55769606Y-81683478D01*
X55915185Y-81595472D01*
X56035472Y-81475185D01*
X56123478Y-81329606D01*
X56155482Y-81226896D01*
X56190845Y-81176967D01*
X56248803Y-81157357D01*
X56307218Y-81175560D01*
X56343778Y-81224621D01*
X56344506Y-81226862D01*
X56376522Y-81329605D01*
X56376522Y-81329607D01*
X56441914Y-81437777D01*
X56464528Y-81475185D01*
X56584815Y-81595472D01*
X56679999Y-81653013D01*
X56719512Y-81676900D01*
X56730394Y-81683478D01*
X56892804Y-81734086D01*
X56963384Y-81740500D01*
X56963389Y-81740500D01*
X58076611Y-81740500D01*
X58076616Y-81740500D01*
X58147196Y-81734086D01*
X58309606Y-81683478D01*
X58455185Y-81595472D01*
X58575472Y-81475185D01*
X58663478Y-81329606D01*
X58695482Y-81226896D01*
X58730845Y-81176967D01*
X58788803Y-81157357D01*
X58847218Y-81175560D01*
X58883778Y-81224621D01*
X58884506Y-81226862D01*
X58916522Y-81329605D01*
X58916522Y-81329607D01*
X58981914Y-81437777D01*
X59004528Y-81475185D01*
X59124815Y-81595472D01*
X59219999Y-81653013D01*
X59259512Y-81676900D01*
X59270394Y-81683478D01*
X59432804Y-81734086D01*
X59503384Y-81740500D01*
X59503389Y-81740500D01*
X60616611Y-81740500D01*
X60616616Y-81740500D01*
X60687196Y-81734086D01*
X60743262Y-81716615D01*
X60804442Y-81717354D01*
X60853504Y-81753912D01*
X60868341Y-81785508D01*
X60880607Y-81831285D01*
X60880609Y-81831289D01*
X60946496Y-81945409D01*
X60946498Y-81945411D01*
X60946500Y-81945414D01*
X61039686Y-82038600D01*
X61039688Y-82038601D01*
X61039690Y-82038603D01*
X61153810Y-82104490D01*
X61153808Y-82104490D01*
X61153812Y-82104491D01*
X61153814Y-82104492D01*
X61281108Y-82138600D01*
X61281110Y-82138600D01*
X61412890Y-82138600D01*
X61412892Y-82138600D01*
X61540186Y-82104492D01*
X61540188Y-82104490D01*
X61540190Y-82104490D01*
X61654309Y-82038603D01*
X61654309Y-82038602D01*
X61654314Y-82038600D01*
X61747500Y-81945414D01*
X61813392Y-81831286D01*
X61823037Y-81795286D01*
X61856361Y-81743973D01*
X61913482Y-81722046D01*
X61948114Y-81726392D01*
X61972804Y-81734086D01*
X62043384Y-81740500D01*
X62900521Y-81740500D01*
X62958712Y-81759407D01*
X62994676Y-81808907D01*
X62994676Y-81870093D01*
X62970525Y-81909504D01*
X60895489Y-83984540D01*
X60895488Y-83984539D01*
X60839539Y-84040489D01*
X60799980Y-84109007D01*
X60799978Y-84109011D01*
X60779500Y-84185435D01*
X60779500Y-84626728D01*
X60760593Y-84684919D01*
X60711093Y-84720882D01*
X60642283Y-84743239D01*
X60642280Y-84743241D01*
X60482355Y-84824726D01*
X60418955Y-84870789D01*
X60337144Y-84930228D01*
X60210228Y-85057144D01*
X60157478Y-85129748D01*
X60104726Y-85202355D01*
X60023241Y-85362280D01*
X60023239Y-85362283D01*
X59967778Y-85532973D01*
X59967777Y-85532977D01*
X59939700Y-85710252D01*
X59939700Y-85889747D01*
X59967777Y-86067022D01*
X59967778Y-86067026D01*
X60023239Y-86237716D01*
X60023241Y-86237719D01*
X60077129Y-86343482D01*
X60104728Y-86397647D01*
X60210228Y-86542856D01*
X60337144Y-86669772D01*
X60482353Y-86775272D01*
X60642277Y-86856757D01*
X60642279Y-86856757D01*
X60642280Y-86856758D01*
X60642283Y-86856760D01*
X60812973Y-86912221D01*
X60812977Y-86912222D01*
X60990253Y-86940300D01*
X60990256Y-86940300D01*
X61169747Y-86940300D01*
X61347022Y-86912222D01*
X61347026Y-86912221D01*
X61517716Y-86856760D01*
X61517718Y-86856758D01*
X61517723Y-86856757D01*
X61677647Y-86775272D01*
X61822856Y-86669772D01*
X61949772Y-86542856D01*
X62055272Y-86397647D01*
X62136757Y-86237723D01*
X62136758Y-86237718D01*
X62136760Y-86237716D01*
X62192221Y-86067026D01*
X62192222Y-86067022D01*
X62220300Y-85889747D01*
X62220300Y-85710252D01*
X62192222Y-85532977D01*
X62192221Y-85532973D01*
X62136760Y-85362283D01*
X62136758Y-85362280D01*
X62136757Y-85362279D01*
X62136757Y-85362277D01*
X62055272Y-85202353D01*
X61949772Y-85057144D01*
X61822856Y-84930228D01*
X61677647Y-84824728D01*
X61677646Y-84824727D01*
X61677644Y-84824726D01*
X61517719Y-84743241D01*
X61517716Y-84743239D01*
X61448907Y-84720882D01*
X61399407Y-84684918D01*
X61380500Y-84626728D01*
X61380500Y-84390479D01*
X61399407Y-84332288D01*
X61409496Y-84320475D01*
X62413067Y-83316904D01*
X64106149Y-81623821D01*
X64160664Y-81596046D01*
X64221096Y-81605617D01*
X64227350Y-81609095D01*
X64350394Y-81683478D01*
X64512804Y-81734086D01*
X64583384Y-81740500D01*
X64583389Y-81740500D01*
X65696611Y-81740500D01*
X65696616Y-81740500D01*
X65767196Y-81734086D01*
X65929606Y-81683478D01*
X66075185Y-81595472D01*
X66195472Y-81475185D01*
X66283478Y-81329606D01*
X66315482Y-81226896D01*
X66350845Y-81176967D01*
X66408803Y-81157357D01*
X66467218Y-81175560D01*
X66503778Y-81224621D01*
X66504506Y-81226862D01*
X66536522Y-81329605D01*
X66536522Y-81329607D01*
X66601914Y-81437777D01*
X66624528Y-81475185D01*
X66744815Y-81595472D01*
X66890394Y-81683478D01*
X67052804Y-81734086D01*
X67052809Y-81734086D01*
X67055141Y-81734813D01*
X67105072Y-81770176D01*
X67124682Y-81828134D01*
X67106480Y-81886549D01*
X67095693Y-81899335D01*
X64237142Y-84757885D01*
X64182625Y-84785662D01*
X64122194Y-84776091D01*
X64057725Y-84743243D01*
X64057716Y-84743239D01*
X63887026Y-84687778D01*
X63887022Y-84687777D01*
X63709747Y-84659700D01*
X63709744Y-84659700D01*
X63530256Y-84659700D01*
X63530253Y-84659700D01*
X63352977Y-84687777D01*
X63352973Y-84687778D01*
X63182283Y-84743239D01*
X63182280Y-84743241D01*
X63022355Y-84824726D01*
X62958955Y-84870789D01*
X62877144Y-84930228D01*
X62750228Y-85057144D01*
X62697478Y-85129748D01*
X62644726Y-85202355D01*
X62563241Y-85362280D01*
X62563239Y-85362283D01*
X62507778Y-85532973D01*
X62507777Y-85532977D01*
X62479700Y-85710252D01*
X62479700Y-85889747D01*
X62507777Y-86067022D01*
X62507778Y-86067026D01*
X62563239Y-86237716D01*
X62563241Y-86237719D01*
X62617129Y-86343482D01*
X62644728Y-86397647D01*
X62750228Y-86542856D01*
X62877144Y-86669772D01*
X63022353Y-86775272D01*
X63182277Y-86856757D01*
X63182279Y-86856757D01*
X63182280Y-86856758D01*
X63182283Y-86856760D01*
X63352973Y-86912221D01*
X63352977Y-86912222D01*
X63530253Y-86940300D01*
X63530256Y-86940300D01*
X63709747Y-86940300D01*
X63887022Y-86912222D01*
X63887026Y-86912221D01*
X64057716Y-86856760D01*
X64057718Y-86856758D01*
X64057723Y-86856757D01*
X64217647Y-86775272D01*
X64362856Y-86669772D01*
X64489772Y-86542856D01*
X64595272Y-86397647D01*
X64676757Y-86237723D01*
X64676758Y-86237718D01*
X64676760Y-86237716D01*
X64732221Y-86067026D01*
X64732222Y-86067022D01*
X64760300Y-85889747D01*
X64760300Y-85710252D01*
X64732222Y-85532977D01*
X64732221Y-85532973D01*
X64676760Y-85362283D01*
X64676758Y-85362280D01*
X64676757Y-85362279D01*
X64676757Y-85362277D01*
X64643906Y-85297804D01*
X64634336Y-85237373D01*
X64662111Y-85182858D01*
X67920460Y-81924511D01*
X67920462Y-81924506D01*
X67920464Y-81924505D01*
X67943840Y-81884016D01*
X67943841Y-81884013D01*
X67951878Y-81870093D01*
X67960021Y-81855989D01*
X67963467Y-81843125D01*
X67971306Y-81813876D01*
X68004630Y-81762562D01*
X68061752Y-81740636D01*
X68066932Y-81740500D01*
X68236611Y-81740500D01*
X68236616Y-81740500D01*
X68307196Y-81734086D01*
X68469606Y-81683478D01*
X68615185Y-81595472D01*
X68735472Y-81475185D01*
X68823478Y-81329606D01*
X68855482Y-81226896D01*
X68890845Y-81176967D01*
X68948803Y-81157357D01*
X69007218Y-81175560D01*
X69043778Y-81224621D01*
X69044506Y-81226862D01*
X69076522Y-81329605D01*
X69076522Y-81329607D01*
X69141914Y-81437777D01*
X69164528Y-81475185D01*
X69284815Y-81595472D01*
X69379999Y-81653013D01*
X69419512Y-81676900D01*
X69430394Y-81683478D01*
X69592804Y-81734086D01*
X69663384Y-81740500D01*
X69663389Y-81740500D01*
X70776611Y-81740500D01*
X70776616Y-81740500D01*
X70847196Y-81734086D01*
X71009606Y-81683478D01*
X71155185Y-81595472D01*
X71275472Y-81475185D01*
X71363478Y-81329606D01*
X71414086Y-81167196D01*
X71420500Y-81096616D01*
X71420500Y-79430479D01*
X71439407Y-79372288D01*
X71449496Y-79360475D01*
X72079675Y-78730296D01*
X72134192Y-78702519D01*
X72149679Y-78701300D01*
X75920213Y-78701300D01*
X75978404Y-78720207D01*
X76014368Y-78769707D01*
X76014368Y-78830893D01*
X76013657Y-78832998D01*
X76002355Y-78865296D01*
X76002353Y-78865305D01*
X75999500Y-78895725D01*
X75999500Y-80104274D01*
X76002353Y-80134694D01*
X76002355Y-80134703D01*
X76047207Y-80262883D01*
X76127845Y-80372144D01*
X76127847Y-80372146D01*
X76127850Y-80372150D01*
X76127853Y-80372152D01*
X76127855Y-80372154D01*
X76237116Y-80452792D01*
X76237117Y-80452792D01*
X76237118Y-80452793D01*
X76274647Y-80465925D01*
X76333198Y-80486413D01*
X76381878Y-80523478D01*
X76399500Y-80579857D01*
X76399500Y-86064863D01*
X76399499Y-86064881D01*
X76399499Y-86070943D01*
X76399499Y-86229057D01*
X76440423Y-86381785D01*
X76440424Y-86381787D01*
X76463710Y-86422118D01*
X76463711Y-86422121D01*
X76519478Y-86518713D01*
X76519480Y-86518716D01*
X76631284Y-86630520D01*
X76631286Y-86630521D01*
X81420504Y-91419739D01*
X81448281Y-91474256D01*
X81449500Y-91489743D01*
X81449500Y-93102355D01*
X81481521Y-93304529D01*
X81544780Y-93499219D01*
X81637712Y-93681609D01*
X81637714Y-93681613D01*
X81758029Y-93847213D01*
X81758031Y-93847215D01*
X81758034Y-93847219D01*
X81806613Y-93895798D01*
X81834389Y-93950313D01*
X81824818Y-94010745D01*
X81781553Y-94054010D01*
X81736608Y-94064800D01*
X76776779Y-94064800D01*
X76718588Y-94045893D01*
X76706775Y-94035804D01*
X73531627Y-90860656D01*
X70352211Y-87681240D01*
X70333042Y-87670173D01*
X70313190Y-87658711D01*
X70313189Y-87658711D01*
X70283688Y-87641678D01*
X70207264Y-87621200D01*
X70207262Y-87621200D01*
X58958438Y-87621200D01*
X58958435Y-87621200D01*
X58882012Y-87641678D01*
X58852509Y-87658712D01*
X58852508Y-87658711D01*
X58813488Y-87681240D01*
X57681558Y-88813168D01*
X57627042Y-88840945D01*
X57566610Y-88831374D01*
X57525819Y-88792665D01*
X57478200Y-88710186D01*
X57385014Y-88617000D01*
X57385011Y-88616998D01*
X57385009Y-88616996D01*
X57270889Y-88551109D01*
X57270891Y-88551109D01*
X57211844Y-88535288D01*
X57143592Y-88517000D01*
X57011808Y-88517000D01*
X56943556Y-88535288D01*
X56884509Y-88551109D01*
X56770390Y-88616996D01*
X56770389Y-88616997D01*
X56770386Y-88616999D01*
X56770386Y-88617000D01*
X56699380Y-88688005D01*
X56644866Y-88715781D01*
X56629379Y-88717000D01*
X56100534Y-88717000D01*
X56042343Y-88698093D01*
X56010810Y-88659839D01*
X55964066Y-88559598D01*
X55964065Y-88559597D01*
X55964065Y-88559596D01*
X55880404Y-88475935D01*
X55880402Y-88475934D01*
X55880401Y-88475933D01*
X55773175Y-88425932D01*
X55740601Y-88421644D01*
X55724316Y-88419500D01*
X55275684Y-88419500D01*
X55259398Y-88421644D01*
X55226825Y-88425932D01*
X55226824Y-88425932D01*
X55119598Y-88475933D01*
X55035933Y-88559598D01*
X54985932Y-88666824D01*
X54985932Y-88666825D01*
X54979500Y-88715685D01*
X54979500Y-89064314D01*
X54985932Y-89113174D01*
X54985932Y-89113175D01*
X55035933Y-89220401D01*
X55035934Y-89220402D01*
X55035935Y-89220404D01*
X55119596Y-89304065D01*
X55119597Y-89304065D01*
X55119598Y-89304066D01*
X55132915Y-89310276D01*
X55177663Y-89352005D01*
X55189337Y-89412066D01*
X55163478Y-89467518D01*
X55132915Y-89489724D01*
X55119598Y-89495933D01*
X55035933Y-89579598D01*
X54985932Y-89686824D01*
X54985932Y-89686825D01*
X54982699Y-89711384D01*
X54979500Y-89735684D01*
X54979500Y-90084316D01*
X54980842Y-90094511D01*
X54985932Y-90133174D01*
X54985932Y-90133175D01*
X55035933Y-90240401D01*
X55035934Y-90240402D01*
X55035935Y-90240404D01*
X55119596Y-90324065D01*
X55119597Y-90324065D01*
X55119598Y-90324066D01*
X55226824Y-90374067D01*
X55226825Y-90374067D01*
X55226827Y-90374068D01*
X55275684Y-90380500D01*
X55275685Y-90380500D01*
X55724314Y-90380500D01*
X55724316Y-90380500D01*
X55773173Y-90374068D01*
X55880404Y-90324065D01*
X55964065Y-90240404D01*
X55964065Y-90240402D01*
X55964972Y-90239496D01*
X56019489Y-90211719D01*
X56034976Y-90210500D01*
X57015521Y-90210500D01*
X57073712Y-90229407D01*
X57109676Y-90278907D01*
X57109676Y-90340093D01*
X57085525Y-90379504D01*
X56315489Y-91149540D01*
X56315488Y-91149539D01*
X56259539Y-91205489D01*
X56219980Y-91274007D01*
X56219978Y-91274011D01*
X56199500Y-91350435D01*
X56199500Y-93253137D01*
X56180593Y-93311328D01*
X56131093Y-93347292D01*
X56131092Y-93347292D01*
X55962400Y-93402102D01*
X55765980Y-93502183D01*
X55676806Y-93566971D01*
X55587635Y-93631758D01*
X55431758Y-93787635D01*
X55388472Y-93847213D01*
X55302183Y-93965980D01*
X55202102Y-94162400D01*
X55133984Y-94372051D01*
X55099500Y-94589774D01*
X55099500Y-94810225D01*
X55133984Y-95027948D01*
X55202102Y-95237599D01*
X55202104Y-95237602D01*
X55202105Y-95237606D01*
X55302185Y-95434022D01*
X55431758Y-95612365D01*
X55587635Y-95768242D01*
X55765978Y-95897815D01*
X55962394Y-95997895D01*
X56172049Y-96066015D01*
X56259140Y-96079809D01*
X56389775Y-96100500D01*
X56389778Y-96100500D01*
X56610225Y-96100500D01*
X56719086Y-96083257D01*
X56827951Y-96066015D01*
X57037606Y-95997895D01*
X57234022Y-95897815D01*
X57412365Y-95768242D01*
X57568242Y-95612365D01*
X57697815Y-95434022D01*
X57797895Y-95237606D01*
X57866015Y-95027951D01*
X57900500Y-94810222D01*
X57900500Y-94589778D01*
X57900500Y-94589774D01*
X57866015Y-94372051D01*
X57866015Y-94372049D01*
X57797895Y-94162394D01*
X57697815Y-93965978D01*
X57568242Y-93787635D01*
X57412365Y-93631758D01*
X57234022Y-93502185D01*
X57234021Y-93502184D01*
X57234019Y-93502183D01*
X57144825Y-93456736D01*
X57037606Y-93402105D01*
X57037602Y-93402104D01*
X57037599Y-93402102D01*
X56868908Y-93347292D01*
X56819407Y-93311328D01*
X56800500Y-93253137D01*
X56800500Y-91555479D01*
X56819407Y-91497288D01*
X56829496Y-91485475D01*
X57424482Y-90890489D01*
X58048233Y-90266737D01*
X58102748Y-90238962D01*
X58163180Y-90248533D01*
X58206445Y-90291798D01*
X58216389Y-90349658D01*
X58215800Y-90354134D01*
X58215800Y-95381464D01*
X58236278Y-95457888D01*
X58236279Y-95457889D01*
X58270878Y-95517816D01*
X58275840Y-95526411D01*
X59095840Y-96346411D01*
X59095839Y-96346411D01*
X59151789Y-96402360D01*
X59220307Y-96441919D01*
X59220311Y-96441921D01*
X59296735Y-96462399D01*
X59296737Y-96462400D01*
X59296738Y-96462400D01*
X88615663Y-96462400D01*
X88615663Y-96462399D01*
X88692089Y-96441921D01*
X88760611Y-96402360D01*
X88816560Y-96346411D01*
X91797821Y-93365149D01*
X91852334Y-93337375D01*
X91912766Y-93346946D01*
X91956031Y-93390211D01*
X91961975Y-93404563D01*
X91998901Y-93518209D01*
X92095375Y-93707552D01*
X92220277Y-93879464D01*
X92370535Y-94029722D01*
X92542447Y-94154624D01*
X92731784Y-94251095D01*
X92933877Y-94316758D01*
X93049999Y-94335150D01*
X93050000Y-94335149D01*
X93050000Y-92573930D01*
X93181056Y-92600000D01*
X93318944Y-92600000D01*
X93450000Y-92573930D01*
X93450000Y-94335150D01*
X93566122Y-94316758D01*
X93768215Y-94251095D01*
X93957552Y-94154624D01*
X94129464Y-94029722D01*
X94279722Y-93879464D01*
X94404624Y-93707552D01*
X94501095Y-93518215D01*
X94566759Y-93316121D01*
X94600000Y-93106250D01*
X94600000Y-92100001D01*
X94599999Y-92100000D01*
X93923931Y-92100000D01*
X93950000Y-91968944D01*
X93950000Y-91831056D01*
X93923931Y-91700000D01*
X94599999Y-91700000D01*
X94600000Y-91699999D01*
X94600000Y-90697644D01*
X95449500Y-90697644D01*
X95449500Y-93102355D01*
X95481521Y-93304529D01*
X95544780Y-93499219D01*
X95637712Y-93681609D01*
X95637714Y-93681613D01*
X95758029Y-93847213D01*
X95758031Y-93847215D01*
X95758034Y-93847219D01*
X95902781Y-93991966D01*
X95902784Y-93991968D01*
X95902786Y-93991970D01*
X96068386Y-94112285D01*
X96068390Y-94112287D01*
X96250781Y-94205220D01*
X96445466Y-94268477D01*
X96445467Y-94268477D01*
X96445470Y-94268478D01*
X96647645Y-94300500D01*
X96647648Y-94300500D01*
X96852355Y-94300500D01*
X97054529Y-94268478D01*
X97054530Y-94268477D01*
X97054534Y-94268477D01*
X97249219Y-94205220D01*
X97431610Y-94112287D01*
X97597219Y-93991966D01*
X97741966Y-93847219D01*
X97852025Y-93695735D01*
X97862285Y-93681613D01*
X97862287Y-93681610D01*
X97955220Y-93499219D01*
X98018477Y-93304534D01*
X98018822Y-93302354D01*
X98050500Y-93102355D01*
X98050500Y-90697644D01*
X98949500Y-90697644D01*
X98949500Y-93102355D01*
X98981521Y-93304529D01*
X99044780Y-93499219D01*
X99137712Y-93681609D01*
X99137714Y-93681613D01*
X99258029Y-93847213D01*
X99258031Y-93847215D01*
X99258034Y-93847219D01*
X99402781Y-93991966D01*
X99402784Y-93991968D01*
X99402786Y-93991970D01*
X99568386Y-94112285D01*
X99568390Y-94112287D01*
X99750781Y-94205220D01*
X99945466Y-94268477D01*
X99945467Y-94268477D01*
X99945470Y-94268478D01*
X100147645Y-94300500D01*
X100147648Y-94300500D01*
X100352355Y-94300500D01*
X100554529Y-94268478D01*
X100554530Y-94268477D01*
X100554534Y-94268477D01*
X100749219Y-94205220D01*
X100931610Y-94112287D01*
X101097219Y-93991966D01*
X101241966Y-93847219D01*
X101352025Y-93695735D01*
X101362285Y-93681613D01*
X101362287Y-93681610D01*
X101455220Y-93499219D01*
X101518477Y-93304534D01*
X101518822Y-93302354D01*
X101550500Y-93102355D01*
X101550500Y-90697644D01*
X101518478Y-90495470D01*
X101511915Y-90475271D01*
X101455220Y-90300781D01*
X101362287Y-90118390D01*
X101362285Y-90118386D01*
X101241970Y-89952786D01*
X101241968Y-89952784D01*
X101241966Y-89952781D01*
X101097219Y-89808034D01*
X101097215Y-89808031D01*
X101097213Y-89808029D01*
X100931613Y-89687714D01*
X100931609Y-89687712D01*
X100749219Y-89594780D01*
X100554529Y-89531521D01*
X100352355Y-89499500D01*
X100352352Y-89499500D01*
X100147648Y-89499500D01*
X100147645Y-89499500D01*
X99945470Y-89531521D01*
X99750780Y-89594780D01*
X99568390Y-89687712D01*
X99568386Y-89687714D01*
X99402786Y-89808029D01*
X99258029Y-89952786D01*
X99137714Y-90118386D01*
X99137712Y-90118390D01*
X99044780Y-90300780D01*
X98981521Y-90495470D01*
X98949500Y-90697644D01*
X98050500Y-90697644D01*
X98018478Y-90495470D01*
X98011915Y-90475271D01*
X97955220Y-90300781D01*
X97862287Y-90118390D01*
X97862285Y-90118386D01*
X97741970Y-89952786D01*
X97741968Y-89952784D01*
X97741966Y-89952781D01*
X97597219Y-89808034D01*
X97597215Y-89808031D01*
X97597213Y-89808029D01*
X97431613Y-89687714D01*
X97431609Y-89687712D01*
X97249219Y-89594780D01*
X97054529Y-89531521D01*
X96852355Y-89499500D01*
X96852352Y-89499500D01*
X96647648Y-89499500D01*
X96647645Y-89499500D01*
X96445470Y-89531521D01*
X96250780Y-89594780D01*
X96068390Y-89687712D01*
X96068386Y-89687714D01*
X95902786Y-89808029D01*
X95758029Y-89952786D01*
X95637714Y-90118386D01*
X95637712Y-90118390D01*
X95544780Y-90300780D01*
X95481521Y-90495470D01*
X95449500Y-90697644D01*
X94600000Y-90697644D01*
X94600000Y-90693749D01*
X94566759Y-90483878D01*
X94501095Y-90281784D01*
X94404624Y-90092447D01*
X94279722Y-89920535D01*
X94129464Y-89770277D01*
X93957551Y-89645375D01*
X93853754Y-89592488D01*
X93810489Y-89549223D01*
X93800918Y-89488791D01*
X93828694Y-89434276D01*
X93834060Y-89428911D01*
X95990875Y-87272096D01*
X96045392Y-87244319D01*
X96060879Y-87243100D01*
X96121890Y-87243100D01*
X96121892Y-87243100D01*
X96249186Y-87208992D01*
X96249188Y-87208990D01*
X96249190Y-87208990D01*
X96363309Y-87143103D01*
X96363309Y-87143102D01*
X96363314Y-87143100D01*
X96456500Y-87049914D01*
X96485439Y-86999790D01*
X96522390Y-86935790D01*
X96522390Y-86935788D01*
X96522392Y-86935786D01*
X96556500Y-86808492D01*
X96556500Y-86676708D01*
X96522392Y-86549414D01*
X96522390Y-86549411D01*
X96522390Y-86549409D01*
X96456503Y-86435290D01*
X96456501Y-86435288D01*
X96456500Y-86435286D01*
X96364693Y-86343479D01*
X96336918Y-86288965D01*
X96346489Y-86228533D01*
X96364694Y-86203476D01*
X96387029Y-86181141D01*
X96409362Y-86158810D01*
X96707914Y-85860257D01*
X96859460Y-85708711D01*
X96899022Y-85640188D01*
X96919500Y-85563762D01*
X96919500Y-85484638D01*
X96919500Y-85015738D01*
X96913065Y-84991721D01*
X96899022Y-84939312D01*
X96899020Y-84939308D01*
X96859463Y-84870793D01*
X96859461Y-84870791D01*
X96859460Y-84870789D01*
X96459911Y-84471240D01*
X96459908Y-84471238D01*
X96394889Y-84433699D01*
X96394886Y-84433698D01*
X96391389Y-84431679D01*
X96314962Y-84411200D01*
X92398738Y-84411200D01*
X92360524Y-84421439D01*
X92322310Y-84431679D01*
X92318814Y-84433698D01*
X92318811Y-84433699D01*
X92253791Y-84471238D01*
X89852204Y-86872825D01*
X89797687Y-86900602D01*
X89737255Y-86891031D01*
X89693990Y-86847766D01*
X89683200Y-86802821D01*
X89683200Y-86740709D01*
X89677009Y-86717604D01*
X89649092Y-86613414D01*
X89649090Y-86613411D01*
X89649090Y-86613409D01*
X89583203Y-86499290D01*
X89583201Y-86499288D01*
X89583200Y-86499286D01*
X89490014Y-86406100D01*
X89490011Y-86406098D01*
X89490009Y-86406096D01*
X89375889Y-86340209D01*
X89375891Y-86340209D01*
X89326499Y-86326975D01*
X89248592Y-86306100D01*
X89148179Y-86306100D01*
X89089988Y-86287193D01*
X89078175Y-86277104D01*
X87792788Y-84991717D01*
X86493811Y-83692740D01*
X86482071Y-83685962D01*
X86425289Y-83653179D01*
X86425288Y-83653178D01*
X86425287Y-83653178D01*
X86348864Y-83632700D01*
X86348862Y-83632700D01*
X78835521Y-83632700D01*
X78777330Y-83613793D01*
X78765523Y-83603709D01*
X78694514Y-83532700D01*
X78694511Y-83532698D01*
X78694509Y-83532696D01*
X78580389Y-83466809D01*
X78580391Y-83466809D01*
X78530999Y-83453575D01*
X78453092Y-83432700D01*
X78321308Y-83432700D01*
X78243400Y-83453575D01*
X78194009Y-83466809D01*
X78079890Y-83532696D01*
X77986696Y-83625890D01*
X77920809Y-83740009D01*
X77920808Y-83740014D01*
X77886700Y-83867308D01*
X77886700Y-83999092D01*
X77916151Y-84109007D01*
X77920809Y-84126390D01*
X77986696Y-84240509D01*
X77986698Y-84240511D01*
X77986700Y-84240514D01*
X78079886Y-84333700D01*
X78079888Y-84333701D01*
X78079890Y-84333703D01*
X78194010Y-84399590D01*
X78194008Y-84399590D01*
X78194012Y-84399591D01*
X78194014Y-84399592D01*
X78321308Y-84433700D01*
X78321310Y-84433700D01*
X78453090Y-84433700D01*
X78453092Y-84433700D01*
X78580386Y-84399592D01*
X78580388Y-84399590D01*
X78580390Y-84399590D01*
X78694509Y-84333703D01*
X78694509Y-84333702D01*
X78694514Y-84333700D01*
X78765519Y-84262694D01*
X78820034Y-84234919D01*
X78835521Y-84233700D01*
X86143821Y-84233700D01*
X86202012Y-84252607D01*
X86213825Y-84262696D01*
X88653204Y-86702075D01*
X88680981Y-86756592D01*
X88682200Y-86772079D01*
X88682200Y-86872492D01*
X88700369Y-86940300D01*
X88716309Y-86999790D01*
X88782196Y-87113909D01*
X88782198Y-87113911D01*
X88782200Y-87113914D01*
X88875386Y-87207100D01*
X88875388Y-87207101D01*
X88887274Y-87213964D01*
X88928215Y-87259434D01*
X88934609Y-87320285D01*
X88904016Y-87373272D01*
X88848120Y-87398158D01*
X88837773Y-87398700D01*
X80244921Y-87398700D01*
X80186730Y-87379793D01*
X80174923Y-87369709D01*
X80103914Y-87298700D01*
X80103911Y-87298698D01*
X80103909Y-87298696D01*
X79989789Y-87232809D01*
X79989791Y-87232809D01*
X79940399Y-87219575D01*
X79862492Y-87198700D01*
X79730708Y-87198700D01*
X79652800Y-87219575D01*
X79603409Y-87232809D01*
X79489290Y-87298696D01*
X79396096Y-87391890D01*
X79348979Y-87473500D01*
X79303510Y-87514441D01*
X79242659Y-87520837D01*
X79193239Y-87494004D01*
X77629496Y-85930261D01*
X77601719Y-85875744D01*
X77600500Y-85860257D01*
X77600500Y-80835189D01*
X77619407Y-80776998D01*
X77668907Y-80741034D01*
X77730093Y-80741034D01*
X77769501Y-80765183D01*
X78611188Y-81606870D01*
X78691112Y-81653014D01*
X78780256Y-81676900D01*
X78780257Y-81676900D01*
X78780258Y-81676900D01*
X88512042Y-81676900D01*
X88512044Y-81676900D01*
X88601188Y-81653014D01*
X88681112Y-81606870D01*
X90191186Y-80096796D01*
X90245703Y-80069019D01*
X90261190Y-80067800D01*
X90290890Y-80067800D01*
X90290892Y-80067800D01*
X90418186Y-80033692D01*
X90418188Y-80033690D01*
X90418190Y-80033690D01*
X90532309Y-79967803D01*
X90532309Y-79967802D01*
X90532314Y-79967800D01*
X90625500Y-79874614D01*
X90675645Y-79787759D01*
X90721113Y-79746819D01*
X90781964Y-79740423D01*
X90831385Y-79767256D01*
X94950989Y-83886860D01*
X94950991Y-83886861D01*
X94950992Y-83886862D01*
X94950993Y-83886863D01*
X95019508Y-83926420D01*
X95019506Y-83926420D01*
X95019510Y-83926421D01*
X95019512Y-83926422D01*
X95095938Y-83946900D01*
X95175062Y-83946900D01*
X96655230Y-83946900D01*
X96713421Y-83965807D01*
X96725231Y-83975894D01*
X102409493Y-89659764D01*
X102409494Y-89659766D01*
X102409495Y-89659766D01*
X102409496Y-89659767D01*
X102438489Y-89688760D01*
X102438490Y-89688760D01*
X102438599Y-89688869D01*
X102438851Y-89689056D01*
X102441026Y-89690227D01*
X102452672Y-89696950D01*
X102477677Y-89711385D01*
X102477679Y-89711387D01*
X102477680Y-89711387D01*
X102507018Y-89728325D01*
X102507057Y-89728341D01*
X102507690Y-89728505D01*
X102559311Y-89742335D01*
X102559316Y-89742336D01*
X102582733Y-89748611D01*
X102583400Y-89748795D01*
X102583445Y-89748801D01*
X102583449Y-89748802D01*
X102636197Y-89748800D01*
X102636199Y-89748800D01*
X102723008Y-89748800D01*
X102781199Y-89767707D01*
X102817163Y-89817207D01*
X102817163Y-89878393D01*
X102793013Y-89917801D01*
X102775029Y-89935786D01*
X102758029Y-89952786D01*
X102637714Y-90118386D01*
X102637712Y-90118390D01*
X102544780Y-90300780D01*
X102481521Y-90495470D01*
X102449500Y-90697644D01*
X102449500Y-93102355D01*
X102481521Y-93304529D01*
X102544780Y-93499219D01*
X102637712Y-93681609D01*
X102637714Y-93681613D01*
X102758029Y-93847213D01*
X102758031Y-93847215D01*
X102758034Y-93847219D01*
X102902781Y-93991966D01*
X102902784Y-93991968D01*
X102902786Y-93991970D01*
X103068386Y-94112285D01*
X103068390Y-94112287D01*
X103250781Y-94205220D01*
X103445466Y-94268477D01*
X103445467Y-94268477D01*
X103445470Y-94268478D01*
X103647645Y-94300500D01*
X103647648Y-94300500D01*
X103852355Y-94300500D01*
X104054529Y-94268478D01*
X104054530Y-94268477D01*
X104054534Y-94268477D01*
X104249219Y-94205220D01*
X104431610Y-94112287D01*
X104597219Y-93991966D01*
X104741966Y-93847219D01*
X104852025Y-93695735D01*
X104862285Y-93681613D01*
X104862287Y-93681610D01*
X104955220Y-93499219D01*
X105018477Y-93304534D01*
X105018822Y-93302354D01*
X105050500Y-93102355D01*
X105050500Y-90697644D01*
X105018478Y-90495470D01*
X105011915Y-90475271D01*
X104955220Y-90300781D01*
X104862287Y-90118390D01*
X104862285Y-90118386D01*
X104741970Y-89952786D01*
X104741968Y-89952784D01*
X104741966Y-89952781D01*
X104706986Y-89917801D01*
X104679211Y-89863287D01*
X104688782Y-89802855D01*
X104732047Y-89759590D01*
X104776992Y-89748800D01*
X106223008Y-89748800D01*
X106281199Y-89767707D01*
X106317163Y-89817207D01*
X106317163Y-89878393D01*
X106293013Y-89917801D01*
X106275029Y-89935786D01*
X106258029Y-89952786D01*
X106137714Y-90118386D01*
X106137712Y-90118390D01*
X106044780Y-90300780D01*
X105981521Y-90495470D01*
X105949500Y-90697644D01*
X105949500Y-93102355D01*
X105981521Y-93304529D01*
X106044780Y-93499219D01*
X106137712Y-93681609D01*
X106137714Y-93681613D01*
X106258029Y-93847213D01*
X106258031Y-93847215D01*
X106258034Y-93847219D01*
X106402781Y-93991966D01*
X106402784Y-93991968D01*
X106402786Y-93991970D01*
X106568386Y-94112285D01*
X106568390Y-94112287D01*
X106750781Y-94205220D01*
X106945466Y-94268477D01*
X106945467Y-94268477D01*
X106945470Y-94268478D01*
X107147645Y-94300500D01*
X107147648Y-94300500D01*
X107352355Y-94300500D01*
X107554529Y-94268478D01*
X107554530Y-94268477D01*
X107554534Y-94268477D01*
X107749219Y-94205220D01*
X107931610Y-94112287D01*
X108097219Y-93991966D01*
X108241966Y-93847219D01*
X108352025Y-93695735D01*
X108362285Y-93681613D01*
X108362287Y-93681610D01*
X108455220Y-93499219D01*
X108518477Y-93304534D01*
X108518822Y-93302354D01*
X108550500Y-93102355D01*
X108550500Y-90697644D01*
X108518478Y-90495470D01*
X108511915Y-90475271D01*
X108455220Y-90300781D01*
X108362287Y-90118390D01*
X108362285Y-90118386D01*
X108241970Y-89952786D01*
X108241968Y-89952784D01*
X108241966Y-89952781D01*
X108206986Y-89917801D01*
X108179211Y-89863287D01*
X108188782Y-89802855D01*
X108232047Y-89759590D01*
X108276992Y-89748800D01*
X109723008Y-89748800D01*
X109781199Y-89767707D01*
X109817163Y-89817207D01*
X109817163Y-89878393D01*
X109793013Y-89917801D01*
X109775029Y-89935786D01*
X109758029Y-89952786D01*
X109637714Y-90118386D01*
X109637712Y-90118390D01*
X109544780Y-90300780D01*
X109481521Y-90495470D01*
X109449500Y-90697644D01*
X109449500Y-93102355D01*
X109481521Y-93304529D01*
X109544780Y-93499219D01*
X109637712Y-93681609D01*
X109637714Y-93681613D01*
X109758029Y-93847213D01*
X109758031Y-93847215D01*
X109758034Y-93847219D01*
X109902781Y-93991966D01*
X109902784Y-93991968D01*
X109902786Y-93991970D01*
X110068386Y-94112285D01*
X110068390Y-94112287D01*
X110250781Y-94205220D01*
X110445466Y-94268477D01*
X110445467Y-94268477D01*
X110445470Y-94268478D01*
X110647645Y-94300500D01*
X110647648Y-94300500D01*
X110852355Y-94300500D01*
X111054529Y-94268478D01*
X111054530Y-94268477D01*
X111054534Y-94268477D01*
X111249219Y-94205220D01*
X111431610Y-94112287D01*
X111597219Y-93991966D01*
X111741966Y-93847219D01*
X111852025Y-93695735D01*
X111862285Y-93681613D01*
X111862287Y-93681610D01*
X111955220Y-93499219D01*
X112018477Y-93304534D01*
X112018822Y-93302354D01*
X112050500Y-93102355D01*
X112050500Y-90697644D01*
X112018478Y-90495470D01*
X112011915Y-90475271D01*
X111955220Y-90300781D01*
X111862287Y-90118390D01*
X111862285Y-90118386D01*
X111741970Y-89952786D01*
X111741968Y-89952784D01*
X111741966Y-89952781D01*
X111706986Y-89917801D01*
X111679211Y-89863287D01*
X111688782Y-89802855D01*
X111732047Y-89759590D01*
X111776992Y-89748800D01*
X113223008Y-89748800D01*
X113281199Y-89767707D01*
X113317163Y-89817207D01*
X113317163Y-89878393D01*
X113293013Y-89917801D01*
X113275029Y-89935786D01*
X113258029Y-89952786D01*
X113137714Y-90118386D01*
X113137712Y-90118390D01*
X113044780Y-90300780D01*
X112981521Y-90495470D01*
X112949500Y-90697644D01*
X112949500Y-93102355D01*
X112981521Y-93304529D01*
X113044780Y-93499219D01*
X113137712Y-93681609D01*
X113137714Y-93681613D01*
X113258029Y-93847213D01*
X113258031Y-93847215D01*
X113258034Y-93847219D01*
X113402781Y-93991966D01*
X113402784Y-93991968D01*
X113402786Y-93991970D01*
X113568386Y-94112285D01*
X113568390Y-94112287D01*
X113750781Y-94205220D01*
X113945466Y-94268477D01*
X113945467Y-94268477D01*
X113945470Y-94268478D01*
X114147645Y-94300500D01*
X114147648Y-94300500D01*
X114352355Y-94300500D01*
X114554529Y-94268478D01*
X114554530Y-94268477D01*
X114554534Y-94268477D01*
X114749219Y-94205220D01*
X114931610Y-94112287D01*
X115097219Y-93991966D01*
X115241966Y-93847219D01*
X115352025Y-93695735D01*
X115362285Y-93681613D01*
X115362287Y-93681610D01*
X115455220Y-93499219D01*
X115518477Y-93304534D01*
X115518822Y-93302354D01*
X115550500Y-93102355D01*
X115550500Y-90697644D01*
X115518478Y-90495470D01*
X115511915Y-90475271D01*
X115455220Y-90300781D01*
X115362287Y-90118390D01*
X115362285Y-90118386D01*
X115241970Y-89952786D01*
X115241968Y-89952784D01*
X115241966Y-89952781D01*
X115097219Y-89808034D01*
X115097215Y-89808031D01*
X115097213Y-89808029D01*
X114931613Y-89687714D01*
X114931609Y-89687712D01*
X114749219Y-89594780D01*
X114618907Y-89552439D01*
X114569407Y-89516475D01*
X114550500Y-89458284D01*
X114550500Y-89408737D01*
X114550499Y-89408735D01*
X114530021Y-89332311D01*
X114530019Y-89332307D01*
X114490461Y-89263791D01*
X114490460Y-89263789D01*
X114434511Y-89207840D01*
X114434508Y-89207838D01*
X114365992Y-89168280D01*
X114365988Y-89168278D01*
X114289564Y-89147800D01*
X114289562Y-89147800D01*
X102788470Y-89147800D01*
X102730279Y-89128893D01*
X102718469Y-89118806D01*
X102711162Y-89111500D01*
X97019739Y-83420468D01*
X97005211Y-83405940D01*
X97005208Y-83405938D01*
X97005203Y-83405933D01*
X96970720Y-83386026D01*
X96936689Y-83366379D01*
X96936681Y-83366376D01*
X96936678Y-83366375D01*
X96907235Y-83358486D01*
X96860262Y-83345900D01*
X96860256Y-83345900D01*
X96860252Y-83345899D01*
X96855139Y-83345899D01*
X96820689Y-83345900D01*
X95300979Y-83345900D01*
X95242788Y-83326993D01*
X95230975Y-83316904D01*
X91815690Y-79901619D01*
X93750000Y-79901619D01*
X93750000Y-80098380D01*
X93780778Y-80292710D01*
X93780779Y-80292714D01*
X93841576Y-80479826D01*
X93841578Y-80479829D01*
X93930903Y-80655142D01*
X93930907Y-80655148D01*
X93986075Y-80731079D01*
X93986076Y-80731079D01*
X94531980Y-80185175D01*
X94534075Y-80192993D01*
X94599901Y-80307007D01*
X94692993Y-80400099D01*
X94807007Y-80465925D01*
X94814822Y-80468019D01*
X94268919Y-81013922D01*
X94268919Y-81013923D01*
X94344851Y-81069092D01*
X94344857Y-81069096D01*
X94520170Y-81158421D01*
X94520173Y-81158423D01*
X94707285Y-81219220D01*
X94707289Y-81219221D01*
X94901620Y-81250000D01*
X95098380Y-81250000D01*
X95292710Y-81219221D01*
X95292714Y-81219220D01*
X95479826Y-81158423D01*
X95479829Y-81158421D01*
X95655149Y-81069092D01*
X95731079Y-81013924D01*
X95731079Y-81013923D01*
X95185175Y-80468019D01*
X95192993Y-80465925D01*
X95307007Y-80400099D01*
X95400099Y-80307007D01*
X95465925Y-80192993D01*
X95468019Y-80185175D01*
X96013923Y-80731079D01*
X96013924Y-80731079D01*
X96069092Y-80655149D01*
X96158421Y-80479829D01*
X96158423Y-80479826D01*
X96219220Y-80292714D01*
X96219221Y-80292710D01*
X96250000Y-80098380D01*
X96250000Y-79901619D01*
X96219221Y-79707289D01*
X96219220Y-79707285D01*
X96158423Y-79520173D01*
X96158421Y-79520170D01*
X96069096Y-79344857D01*
X96069092Y-79344851D01*
X96013923Y-79268919D01*
X96013922Y-79268919D01*
X95468019Y-79814822D01*
X95465925Y-79807007D01*
X95400099Y-79692993D01*
X95307007Y-79599901D01*
X95192993Y-79534075D01*
X95185175Y-79531980D01*
X95731079Y-78986076D01*
X95731079Y-78986075D01*
X95655148Y-78930907D01*
X95655142Y-78930903D01*
X95479829Y-78841578D01*
X95479826Y-78841576D01*
X95292714Y-78780779D01*
X95292710Y-78780778D01*
X95098380Y-78750000D01*
X94901620Y-78750000D01*
X94707289Y-78780778D01*
X94707285Y-78780779D01*
X94520173Y-78841576D01*
X94520170Y-78841578D01*
X94344857Y-78930903D01*
X94344853Y-78930905D01*
X94268919Y-78986075D01*
X94814824Y-79531980D01*
X94807007Y-79534075D01*
X94692993Y-79599901D01*
X94599901Y-79692993D01*
X94534075Y-79807007D01*
X94531980Y-79814824D01*
X93986075Y-79268919D01*
X93930905Y-79344853D01*
X93930903Y-79344857D01*
X93841578Y-79520170D01*
X93841576Y-79520173D01*
X93780779Y-79707285D01*
X93780778Y-79707289D01*
X93750000Y-79901619D01*
X91815690Y-79901619D01*
X90074411Y-78160340D01*
X90074408Y-78160338D01*
X90005892Y-78120780D01*
X90005888Y-78120778D01*
X89929464Y-78100300D01*
X89929462Y-78100300D01*
X89266332Y-78100300D01*
X89208141Y-78081393D01*
X89172177Y-78031893D01*
X89170705Y-77975678D01*
X89198300Y-77872692D01*
X89198300Y-77772278D01*
X89217207Y-77714087D01*
X89227296Y-77702274D01*
X89985858Y-76943712D01*
X107735800Y-76943712D01*
X107735800Y-77188087D01*
X107767696Y-77430360D01*
X107767696Y-77430365D01*
X107767697Y-77430368D01*
X107815191Y-77607620D01*
X107830943Y-77666405D01*
X107830947Y-77666418D01*
X107924458Y-77892176D01*
X107924460Y-77892180D01*
X107924462Y-77892184D01*
X108033702Y-78081393D01*
X108046650Y-78103819D01*
X108195407Y-78297683D01*
X108195409Y-78297685D01*
X108195413Y-78297690D01*
X108368210Y-78470487D01*
X108368214Y-78470490D01*
X108368216Y-78470492D01*
X108531668Y-78595913D01*
X108562084Y-78619252D01*
X108773716Y-78741438D01*
X108773722Y-78741440D01*
X108773723Y-78741441D01*
X108810606Y-78756718D01*
X108999487Y-78834955D01*
X109235532Y-78898203D01*
X109477814Y-78930100D01*
X109477815Y-78930100D01*
X109722185Y-78930100D01*
X109722186Y-78930100D01*
X109964468Y-78898203D01*
X110200513Y-78834955D01*
X110426284Y-78741438D01*
X110637916Y-78619252D01*
X110831790Y-78470487D01*
X111004587Y-78297690D01*
X111153352Y-78103816D01*
X111275538Y-77892184D01*
X111369055Y-77666413D01*
X111432303Y-77430368D01*
X111464200Y-77188086D01*
X111464200Y-76943714D01*
X111432303Y-76701432D01*
X111369055Y-76465387D01*
X111275538Y-76239616D01*
X111153352Y-76027984D01*
X111004587Y-75834110D01*
X110831790Y-75661313D01*
X110831785Y-75661309D01*
X110831783Y-75661307D01*
X110637919Y-75512550D01*
X110577881Y-75477887D01*
X110426284Y-75390362D01*
X110426280Y-75390360D01*
X110426276Y-75390358D01*
X110200518Y-75296847D01*
X110200517Y-75296846D01*
X110200513Y-75296845D01*
X109964468Y-75233597D01*
X109964465Y-75233596D01*
X109964463Y-75233596D01*
X109722187Y-75201700D01*
X109722186Y-75201700D01*
X109477814Y-75201700D01*
X109477812Y-75201700D01*
X109235539Y-75233596D01*
X109235534Y-75233596D01*
X108999494Y-75296843D01*
X108999481Y-75296847D01*
X108773723Y-75390358D01*
X108562080Y-75512550D01*
X108368216Y-75661307D01*
X108195407Y-75834116D01*
X108046650Y-76027980D01*
X107924458Y-76239623D01*
X107830947Y-76465381D01*
X107830943Y-76465394D01*
X107767696Y-76701434D01*
X107767696Y-76701439D01*
X107735800Y-76943712D01*
X89985858Y-76943712D01*
X90059101Y-76870469D01*
X92198679Y-74730892D01*
X93008628Y-73920943D01*
X103199500Y-73920943D01*
X103199500Y-74079057D01*
X103240423Y-74231784D01*
X103319480Y-74368716D01*
X103431284Y-74480520D01*
X103568216Y-74559577D01*
X103720943Y-74600500D01*
X103722318Y-74600500D01*
X103723371Y-74600819D01*
X103727377Y-74601347D01*
X103727289Y-74602008D01*
X103777320Y-74617185D01*
X103809769Y-74638867D01*
X103854231Y-74647711D01*
X103868241Y-74650498D01*
X103868246Y-74650498D01*
X103868252Y-74650500D01*
X103868253Y-74650500D01*
X106907747Y-74650500D01*
X106907748Y-74650500D01*
X106966231Y-74638867D01*
X107032552Y-74594552D01*
X107076867Y-74528231D01*
X107088500Y-74469748D01*
X107088500Y-73530252D01*
X107076867Y-73471769D01*
X107032552Y-73405448D01*
X107032548Y-73405445D01*
X106966233Y-73361134D01*
X106966231Y-73361133D01*
X106966228Y-73361132D01*
X106966227Y-73361132D01*
X106907758Y-73349501D01*
X106907748Y-73349500D01*
X103868252Y-73349500D01*
X103868251Y-73349500D01*
X103868241Y-73349501D01*
X103809772Y-73361132D01*
X103809766Y-73361134D01*
X103777320Y-73382815D01*
X103727289Y-73397991D01*
X103727377Y-73398653D01*
X103723371Y-73399180D01*
X103722318Y-73399500D01*
X103720943Y-73399500D01*
X103568216Y-73440423D01*
X103431284Y-73519480D01*
X103319480Y-73631284D01*
X103240423Y-73768216D01*
X103199500Y-73920943D01*
X93008628Y-73920943D01*
X95100075Y-71829496D01*
X95154592Y-71801719D01*
X95170079Y-71800500D01*
X103588500Y-71800500D01*
X103646691Y-71819407D01*
X103682655Y-71868907D01*
X103687500Y-71899500D01*
X103687500Y-71969746D01*
X103687501Y-71969758D01*
X103699132Y-72028227D01*
X103699133Y-72028231D01*
X103743448Y-72094552D01*
X103809769Y-72138867D01*
X103854231Y-72147711D01*
X103868241Y-72150498D01*
X103868246Y-72150498D01*
X103868252Y-72150500D01*
X103868253Y-72150500D01*
X106907747Y-72150500D01*
X106907748Y-72150500D01*
X106966231Y-72138867D01*
X107032552Y-72094552D01*
X107076867Y-72028231D01*
X107088500Y-71969748D01*
X107088500Y-71030252D01*
X107076867Y-70971769D01*
X107032552Y-70905448D01*
X107032548Y-70905445D01*
X106966233Y-70861134D01*
X106966231Y-70861133D01*
X106966228Y-70861132D01*
X106966227Y-70861132D01*
X106907758Y-70849501D01*
X106907748Y-70849500D01*
X103868252Y-70849500D01*
X103868251Y-70849500D01*
X103868241Y-70849501D01*
X103809772Y-70861132D01*
X103809766Y-70861134D01*
X103743451Y-70905445D01*
X103743445Y-70905451D01*
X103699134Y-70971766D01*
X103699132Y-70971772D01*
X103687501Y-71030241D01*
X103687500Y-71030253D01*
X103687500Y-71100500D01*
X103668593Y-71158691D01*
X103619093Y-71194655D01*
X103588500Y-71199500D01*
X94965038Y-71199500D01*
X94943736Y-71205207D01*
X94925273Y-71210155D01*
X94864171Y-71206952D01*
X94816621Y-71168447D01*
X94800786Y-71109346D01*
X94822713Y-71052225D01*
X94829647Y-71044524D01*
X95316076Y-70558096D01*
X95370592Y-70530319D01*
X95386079Y-70529100D01*
X103540563Y-70529100D01*
X103540563Y-70529099D01*
X103616989Y-70508621D01*
X103685511Y-70469060D01*
X103741460Y-70413111D01*
X103781021Y-70344589D01*
X103781021Y-70344586D01*
X103783153Y-70340895D01*
X103798903Y-70320375D01*
X103809740Y-70309544D01*
X103809885Y-70309428D01*
X103817054Y-70302258D01*
X103817058Y-70302257D01*
X103854655Y-70264659D01*
X103854656Y-70264658D01*
X103854659Y-70264661D01*
X103854675Y-70264638D01*
X103894508Y-70224832D01*
X103894509Y-70224827D01*
X103894529Y-70224808D01*
X103894544Y-70224786D01*
X103894554Y-70224760D01*
X103894557Y-70224758D01*
X103900001Y-70211614D01*
X103939736Y-70165090D01*
X103991465Y-70150500D01*
X106907747Y-70150500D01*
X106907748Y-70150500D01*
X106966231Y-70138867D01*
X107032552Y-70094552D01*
X107076867Y-70028231D01*
X107088500Y-69969748D01*
X107088500Y-69503927D01*
X107107407Y-69445736D01*
X107156907Y-69409772D01*
X107218093Y-69409772D01*
X107257521Y-69433941D01*
X107269309Y-69445736D01*
X107418522Y-69595029D01*
X107446285Y-69649553D01*
X107447500Y-69665014D01*
X107447500Y-74216679D01*
X107428593Y-74274870D01*
X107418509Y-74286676D01*
X107347500Y-74357686D01*
X107347497Y-74357689D01*
X107347496Y-74357690D01*
X107281865Y-74471366D01*
X107281863Y-74471370D01*
X107281608Y-74471814D01*
X107247500Y-74599108D01*
X107247500Y-74730892D01*
X107277579Y-74843151D01*
X107281609Y-74858190D01*
X107347496Y-74972309D01*
X107347498Y-74972311D01*
X107347500Y-74972314D01*
X107440686Y-75065500D01*
X107440688Y-75065501D01*
X107440690Y-75065503D01*
X107554810Y-75131390D01*
X107554808Y-75131390D01*
X107554812Y-75131391D01*
X107554814Y-75131392D01*
X107682108Y-75165500D01*
X107682110Y-75165500D01*
X107813890Y-75165500D01*
X107813892Y-75165500D01*
X107941186Y-75131392D01*
X107941188Y-75131390D01*
X107941190Y-75131390D01*
X108055309Y-75065503D01*
X108055309Y-75065502D01*
X108055314Y-75065500D01*
X108148500Y-74972314D01*
X108214392Y-74858186D01*
X108248500Y-74730892D01*
X108248500Y-74599108D01*
X108214392Y-74471814D01*
X108214390Y-74471811D01*
X108214390Y-74471809D01*
X108148503Y-74357690D01*
X108148501Y-74357688D01*
X108148500Y-74357686D01*
X108077494Y-74286680D01*
X108049719Y-74232166D01*
X108048500Y-74216679D01*
X108048500Y-69499681D01*
X108048511Y-69460125D01*
X108048510Y-69460124D01*
X108048511Y-69460120D01*
X108048509Y-69460115D01*
X108048502Y-69460055D01*
X108048500Y-69460042D01*
X108048500Y-69460038D01*
X108038462Y-69422579D01*
X108028053Y-69383688D01*
X108028046Y-69383659D01*
X108028038Y-69383641D01*
X108028021Y-69383611D01*
X108008294Y-69349443D01*
X107988510Y-69315154D01*
X107988506Y-69315150D01*
X107988461Y-69315090D01*
X107960778Y-69287406D01*
X107960778Y-69287405D01*
X107960760Y-69287389D01*
X107254377Y-68580624D01*
X107254260Y-68580490D01*
X107249461Y-68575690D01*
X107249460Y-68575689D01*
X107221306Y-68547535D01*
X107221305Y-68547533D01*
X107221306Y-68547532D01*
X107221287Y-68547516D01*
X107193576Y-68519790D01*
X107193573Y-68519788D01*
X107193511Y-68519740D01*
X107159082Y-68499862D01*
X107159085Y-68499856D01*
X107159059Y-68499849D01*
X107125059Y-68480206D01*
X107124993Y-68480179D01*
X107086500Y-68469865D01*
X107086475Y-68469859D01*
X107048602Y-68459700D01*
X107048562Y-68459700D01*
X107009081Y-68459700D01*
X106963142Y-68459687D01*
X106962944Y-68459700D01*
X94525279Y-68459700D01*
X94467088Y-68440793D01*
X94455275Y-68430704D01*
X94031284Y-68006713D01*
X94003507Y-67952196D01*
X94013078Y-67891764D01*
X94051787Y-67850974D01*
X94107514Y-67818800D01*
X94178519Y-67747794D01*
X94233034Y-67720019D01*
X94248521Y-67718800D01*
X96340263Y-67718800D01*
X96340263Y-67718799D01*
X96416689Y-67698321D01*
X96485211Y-67658760D01*
X96541160Y-67602811D01*
X99581360Y-64562611D01*
X99592837Y-64542732D01*
X99595564Y-64538010D01*
X99620920Y-64494090D01*
X99620921Y-64494089D01*
X99641400Y-64417662D01*
X99641400Y-63811912D01*
X107735800Y-63811912D01*
X107735800Y-64056287D01*
X107751798Y-64177800D01*
X107767318Y-64295693D01*
X107767696Y-64298560D01*
X107767696Y-64298565D01*
X107792323Y-64390474D01*
X107829018Y-64527423D01*
X107830943Y-64534605D01*
X107830947Y-64534618D01*
X107924458Y-64760376D01*
X107924460Y-64760380D01*
X107924462Y-64760384D01*
X108040467Y-64961310D01*
X108046650Y-64972019D01*
X108195407Y-65165883D01*
X108195409Y-65165885D01*
X108195413Y-65165890D01*
X108368210Y-65338687D01*
X108368214Y-65338690D01*
X108368216Y-65338692D01*
X108518405Y-65453936D01*
X108562084Y-65487452D01*
X108773716Y-65609638D01*
X108999487Y-65703155D01*
X109235532Y-65766403D01*
X109477814Y-65798300D01*
X109477815Y-65798300D01*
X109722185Y-65798300D01*
X109722186Y-65798300D01*
X109964468Y-65766403D01*
X110200513Y-65703155D01*
X110426284Y-65609638D01*
X110637916Y-65487452D01*
X110831790Y-65338687D01*
X111004587Y-65165890D01*
X111153352Y-64972016D01*
X111275538Y-64760384D01*
X111369055Y-64534613D01*
X111432303Y-64298568D01*
X111464200Y-64056286D01*
X111464200Y-63811914D01*
X111432303Y-63569632D01*
X111369055Y-63333587D01*
X111275538Y-63107816D01*
X111153352Y-62896184D01*
X111132341Y-62868802D01*
X111004592Y-62702316D01*
X111004590Y-62702314D01*
X111004587Y-62702310D01*
X110831790Y-62529513D01*
X110831785Y-62529509D01*
X110831783Y-62529507D01*
X110637913Y-62380746D01*
X110557017Y-62334040D01*
X110516076Y-62288571D01*
X110509680Y-62227720D01*
X110532237Y-62186178D01*
X110532138Y-62186116D01*
X110532162Y-62186078D01*
X110532567Y-62185571D01*
X110536515Y-62178299D01*
X110538557Y-62176258D01*
X110538557Y-62176256D01*
X110545795Y-62169019D01*
X110545847Y-62168954D01*
X110760233Y-61954505D01*
X110814746Y-61926720D01*
X110830247Y-61925499D01*
X111306521Y-61925499D01*
X111306522Y-61925498D01*
X111366150Y-61916055D01*
X111400299Y-61910647D01*
X111400299Y-61910646D01*
X111400304Y-61910646D01*
X111513342Y-61853050D01*
X111603050Y-61763342D01*
X111660646Y-61650304D01*
X111675500Y-61556519D01*
X111675499Y-61093482D01*
X111663417Y-61017193D01*
X111660647Y-60999700D01*
X111660646Y-60999698D01*
X111660646Y-60999696D01*
X111603050Y-60886658D01*
X111513342Y-60796950D01*
X111400304Y-60739354D01*
X111400305Y-60739354D01*
X111306522Y-60724500D01*
X110693479Y-60724500D01*
X110693476Y-60724501D01*
X110599700Y-60739352D01*
X110599695Y-60739354D01*
X110486659Y-60796949D01*
X110396949Y-60886659D01*
X110339354Y-60999695D01*
X110324500Y-61093477D01*
X110324500Y-61556521D01*
X110324806Y-61560399D01*
X110323002Y-61560540D01*
X110314461Y-61614244D01*
X110296296Y-61639233D01*
X110264694Y-61670845D01*
X110219858Y-61715693D01*
X110165347Y-61743479D01*
X110149845Y-61744700D01*
X108991321Y-61744700D01*
X108933130Y-61725793D01*
X108921317Y-61715704D01*
X108918501Y-61712888D01*
X108918500Y-61712886D01*
X108825314Y-61619700D01*
X108825311Y-61619698D01*
X108825309Y-61619696D01*
X108711189Y-61553809D01*
X108711191Y-61553809D01*
X108639332Y-61534555D01*
X108583892Y-61519700D01*
X108452108Y-61519700D01*
X108396668Y-61534555D01*
X108324809Y-61553809D01*
X108210690Y-61619696D01*
X108117496Y-61712890D01*
X108051609Y-61827009D01*
X108035696Y-61886399D01*
X108017500Y-61954308D01*
X108017500Y-62086092D01*
X108039702Y-62168950D01*
X108051609Y-62213390D01*
X108117496Y-62327509D01*
X108117498Y-62327511D01*
X108117500Y-62327514D01*
X108210686Y-62420700D01*
X108210688Y-62420701D01*
X108210690Y-62420703D01*
X108267802Y-62453677D01*
X108308743Y-62499146D01*
X108315139Y-62559997D01*
X108288306Y-62609416D01*
X108195410Y-62702312D01*
X108046650Y-62896180D01*
X107924458Y-63107823D01*
X107830947Y-63333581D01*
X107830943Y-63333594D01*
X107767696Y-63569634D01*
X107767696Y-63569639D01*
X107735800Y-63811912D01*
X99641400Y-63811912D01*
X99641400Y-63525338D01*
X99620921Y-63448911D01*
X99617673Y-63443286D01*
X99581360Y-63380389D01*
X99525411Y-63324439D01*
X99525411Y-63324440D01*
X96572811Y-60371840D01*
X96572808Y-60371838D01*
X96504292Y-60332280D01*
X96504288Y-60332278D01*
X96427864Y-60311800D01*
X96427862Y-60311800D01*
X96143599Y-60311800D01*
X96085408Y-60292893D01*
X96049444Y-60243393D01*
X96049444Y-60182207D01*
X96073593Y-60142798D01*
X96103050Y-60113342D01*
X96160646Y-60000304D01*
X96175500Y-59906519D01*
X96175499Y-59443482D01*
X96171716Y-59419592D01*
X96160647Y-59349700D01*
X96160646Y-59349698D01*
X96160646Y-59349696D01*
X96103050Y-59236658D01*
X96013342Y-59146950D01*
X95900304Y-59089354D01*
X95900305Y-59089354D01*
X95806522Y-59074500D01*
X95806519Y-59074500D01*
X95365479Y-59074500D01*
X95307288Y-59055593D01*
X95295475Y-59045504D01*
X93300596Y-57050625D01*
X93272819Y-56996108D01*
X93271600Y-56980621D01*
X93271600Y-54604537D01*
X93271599Y-54604535D01*
X93264384Y-54577610D01*
X93251121Y-54528111D01*
X93246103Y-54519420D01*
X93211560Y-54459589D01*
X93155611Y-54403639D01*
X93155611Y-54403640D01*
X92707075Y-53955104D01*
X92679298Y-53900587D01*
X92688869Y-53840155D01*
X92732134Y-53796890D01*
X92777079Y-53786100D01*
X92807989Y-53786100D01*
X92866180Y-53805007D01*
X92877993Y-53815096D01*
X93570504Y-54507607D01*
X93598281Y-54562124D01*
X93599500Y-54577611D01*
X93599500Y-56304265D01*
X93602353Y-56334694D01*
X93602353Y-56334696D01*
X93602354Y-56334698D01*
X93617461Y-56377872D01*
X93647208Y-56462885D01*
X93727845Y-56572144D01*
X93727847Y-56572146D01*
X93727850Y-56572150D01*
X93727853Y-56572152D01*
X93727855Y-56572154D01*
X93837114Y-56652791D01*
X93837116Y-56652791D01*
X93837118Y-56652793D01*
X93965302Y-56697646D01*
X93995735Y-56700500D01*
X96004264Y-56700499D01*
X96004265Y-56700499D01*
X96010350Y-56699928D01*
X96034698Y-56697646D01*
X96162882Y-56652793D01*
X96272150Y-56572150D01*
X96352793Y-56462882D01*
X96397646Y-56334698D01*
X96400500Y-56304265D01*
X96400499Y-54577609D01*
X96419406Y-54519419D01*
X96429496Y-54507606D01*
X96790307Y-54146796D01*
X96844823Y-54119019D01*
X96860310Y-54117800D01*
X98962586Y-54117800D01*
X99020777Y-54136707D01*
X99056741Y-54186207D01*
X99056741Y-54247393D01*
X99032591Y-54286801D01*
X98931758Y-54387635D01*
X98920130Y-54403640D01*
X98802183Y-54565980D01*
X98702102Y-54762400D01*
X98633984Y-54972051D01*
X98599500Y-55189774D01*
X98599500Y-55410225D01*
X98633984Y-55627948D01*
X98702102Y-55837599D01*
X98702104Y-55837602D01*
X98702105Y-55837606D01*
X98756736Y-55944825D01*
X98782866Y-55996108D01*
X98802185Y-56034022D01*
X98931758Y-56212365D01*
X99087635Y-56368242D01*
X99265978Y-56497815D01*
X99462394Y-56597895D01*
X99672049Y-56666015D01*
X99738438Y-56676530D01*
X99889775Y-56700500D01*
X99889778Y-56700500D01*
X100110224Y-56700500D01*
X100151311Y-56693992D01*
X100211736Y-56684421D01*
X100272167Y-56693992D01*
X100297227Y-56712198D01*
X103450504Y-59865475D01*
X103478281Y-59919992D01*
X103479500Y-59935479D01*
X103479500Y-60164314D01*
X103485932Y-60213174D01*
X103485932Y-60213175D01*
X103535933Y-60320401D01*
X103535934Y-60320402D01*
X103535935Y-60320404D01*
X103619596Y-60404065D01*
X103619597Y-60404065D01*
X103619598Y-60404066D01*
X103632915Y-60410276D01*
X103677663Y-60452005D01*
X103689337Y-60512066D01*
X103663478Y-60567518D01*
X103632915Y-60589724D01*
X103619598Y-60595933D01*
X103535933Y-60679598D01*
X103485932Y-60786824D01*
X103485932Y-60786825D01*
X103479500Y-60835685D01*
X103479500Y-61064590D01*
X103460593Y-61122781D01*
X103450511Y-61134586D01*
X102446509Y-62138796D01*
X102391995Y-62166580D01*
X102376498Y-62167800D01*
X101583321Y-62167800D01*
X101525130Y-62148893D01*
X101513323Y-62138809D01*
X101442314Y-62067800D01*
X101442311Y-62067798D01*
X101442309Y-62067796D01*
X101328189Y-62001909D01*
X101328191Y-62001909D01*
X101271055Y-61986600D01*
X101200892Y-61967800D01*
X101069108Y-61967800D01*
X100998945Y-61986600D01*
X100941809Y-62001909D01*
X100827690Y-62067796D01*
X100734496Y-62160990D01*
X100668609Y-62275109D01*
X100654569Y-62327509D01*
X100634500Y-62402408D01*
X100634500Y-62534192D01*
X100653389Y-62604686D01*
X100668609Y-62661490D01*
X100734496Y-62775609D01*
X100734498Y-62775611D01*
X100734500Y-62775614D01*
X100827686Y-62868800D01*
X100827688Y-62868801D01*
X100827690Y-62868803D01*
X100941810Y-62934690D01*
X100941808Y-62934690D01*
X100941812Y-62934691D01*
X100941814Y-62934692D01*
X101069108Y-62968800D01*
X101069110Y-62968800D01*
X101200890Y-62968800D01*
X101200892Y-62968800D01*
X101328186Y-62934692D01*
X101328188Y-62934690D01*
X101328190Y-62934690D01*
X101442309Y-62868803D01*
X101442309Y-62868802D01*
X101442314Y-62868800D01*
X101513319Y-62797794D01*
X101567834Y-62770019D01*
X101583321Y-62768800D01*
X102495979Y-62768800D01*
X102496055Y-62768804D01*
X102502466Y-62768803D01*
X102502469Y-62768804D01*
X102542031Y-62768800D01*
X102581562Y-62768800D01*
X102581569Y-62768800D01*
X102581610Y-62768794D01*
X102581935Y-62768704D01*
X102618970Y-62758776D01*
X102618975Y-62758776D01*
X102618975Y-62758775D01*
X102645613Y-62751637D01*
X102655696Y-62748935D01*
X102657997Y-62748381D01*
X102658013Y-62748374D01*
X102659974Y-62747179D01*
X102690693Y-62729439D01*
X102690701Y-62729434D01*
X102696631Y-62726010D01*
X102725266Y-62709478D01*
X102726615Y-62708729D01*
X102726631Y-62708717D01*
X102728098Y-62707178D01*
X102755650Y-62679620D01*
X102782460Y-62652811D01*
X102782460Y-62652810D01*
X102788066Y-62647205D01*
X102788113Y-62647149D01*
X103925526Y-61509504D01*
X103980040Y-61481720D01*
X103995537Y-61480500D01*
X104224314Y-61480500D01*
X104224316Y-61480500D01*
X104273173Y-61474068D01*
X104380404Y-61424065D01*
X104464065Y-61340404D01*
X104514068Y-61233173D01*
X104520500Y-61184316D01*
X104520500Y-60835684D01*
X104514068Y-60786827D01*
X104512210Y-60782843D01*
X104464066Y-60679598D01*
X104464065Y-60679597D01*
X104464065Y-60679596D01*
X104380404Y-60595935D01*
X104367085Y-60589724D01*
X104322337Y-60547997D01*
X104310662Y-60487936D01*
X104336519Y-60432483D01*
X104367084Y-60410275D01*
X104380404Y-60404065D01*
X104464065Y-60320404D01*
X104514068Y-60213173D01*
X104520500Y-60164316D01*
X104520500Y-59815684D01*
X104514068Y-59766827D01*
X104500214Y-59737118D01*
X104464066Y-59659598D01*
X104464065Y-59659597D01*
X104464065Y-59659596D01*
X104380404Y-59575935D01*
X104380402Y-59575934D01*
X104380401Y-59575933D01*
X104273175Y-59525932D01*
X104240601Y-59521644D01*
X104224316Y-59519500D01*
X104224315Y-59519500D01*
X103995479Y-59519500D01*
X103937288Y-59500593D01*
X103925475Y-59490504D01*
X100927792Y-56492821D01*
X100900015Y-56438304D01*
X100909586Y-56377872D01*
X100927790Y-56352816D01*
X101068242Y-56212365D01*
X101197815Y-56034022D01*
X101297895Y-55837606D01*
X101366015Y-55627951D01*
X101400500Y-55410222D01*
X101400500Y-55189778D01*
X101400500Y-55189774D01*
X101366015Y-54972051D01*
X101366015Y-54972049D01*
X101297895Y-54762394D01*
X101197815Y-54565978D01*
X101068242Y-54387635D01*
X100967408Y-54286801D01*
X100939633Y-54232287D01*
X100949204Y-54171855D01*
X100992469Y-54128590D01*
X101037414Y-54117800D01*
X102462586Y-54117800D01*
X102520777Y-54136707D01*
X102556741Y-54186207D01*
X102556741Y-54247393D01*
X102532591Y-54286801D01*
X102431758Y-54387635D01*
X102420130Y-54403640D01*
X102302183Y-54565980D01*
X102202102Y-54762400D01*
X102133984Y-54972051D01*
X102099500Y-55189774D01*
X102099500Y-55410225D01*
X102133984Y-55627948D01*
X102202102Y-55837599D01*
X102202104Y-55837602D01*
X102202105Y-55837606D01*
X102256736Y-55944825D01*
X102282866Y-55996108D01*
X102302185Y-56034022D01*
X102431758Y-56212365D01*
X102587635Y-56368242D01*
X102765978Y-56497815D01*
X102962394Y-56597895D01*
X103172049Y-56666015D01*
X103238438Y-56676530D01*
X103389775Y-56700500D01*
X103389778Y-56700500D01*
X103610225Y-56700500D01*
X103719086Y-56683257D01*
X103827951Y-56666015D01*
X104037606Y-56597895D01*
X104234022Y-56497815D01*
X104412365Y-56368242D01*
X104568242Y-56212365D01*
X104697815Y-56034022D01*
X104797895Y-55837606D01*
X104866015Y-55627951D01*
X104900500Y-55410222D01*
X104900500Y-55189778D01*
X104900500Y-55189774D01*
X104866015Y-54972051D01*
X104866015Y-54972049D01*
X104797895Y-54762394D01*
X104697815Y-54565978D01*
X104568242Y-54387635D01*
X104467408Y-54286801D01*
X104439633Y-54232287D01*
X104449204Y-54171855D01*
X104492469Y-54128590D01*
X104537414Y-54117800D01*
X105962586Y-54117800D01*
X106020777Y-54136707D01*
X106056741Y-54186207D01*
X106056741Y-54247393D01*
X106032591Y-54286801D01*
X105931758Y-54387635D01*
X105920130Y-54403640D01*
X105802183Y-54565980D01*
X105702102Y-54762400D01*
X105633984Y-54972051D01*
X105599500Y-55189774D01*
X105599500Y-55410225D01*
X105633984Y-55627948D01*
X105702102Y-55837599D01*
X105702104Y-55837602D01*
X105702105Y-55837606D01*
X105756736Y-55944825D01*
X105782866Y-55996108D01*
X105802185Y-56034022D01*
X105931758Y-56212365D01*
X106087635Y-56368242D01*
X106265978Y-56497815D01*
X106462394Y-56597895D01*
X106631093Y-56652707D01*
X106680592Y-56688671D01*
X106699500Y-56746861D01*
X106699500Y-59529564D01*
X106719978Y-59605987D01*
X106732597Y-59627845D01*
X106750929Y-59659596D01*
X106759540Y-59674511D01*
X106950505Y-59865476D01*
X106978281Y-59919991D01*
X106979500Y-59935478D01*
X106979500Y-60164314D01*
X106985932Y-60213174D01*
X106985932Y-60213175D01*
X107035933Y-60320401D01*
X107035934Y-60320402D01*
X107035935Y-60320404D01*
X107119596Y-60404065D01*
X107119597Y-60404065D01*
X107119598Y-60404066D01*
X107132915Y-60410276D01*
X107177663Y-60452005D01*
X107189337Y-60512066D01*
X107163478Y-60567518D01*
X107132915Y-60589724D01*
X107119598Y-60595933D01*
X107035933Y-60679598D01*
X106985932Y-60786824D01*
X106985932Y-60786825D01*
X106979500Y-60835685D01*
X106979500Y-60988900D01*
X106960593Y-61047091D01*
X106911093Y-61083055D01*
X106880500Y-61087900D01*
X106856108Y-61087900D01*
X106795029Y-61104266D01*
X106728809Y-61122009D01*
X106614690Y-61187896D01*
X106521496Y-61281090D01*
X106455609Y-61395209D01*
X106455608Y-61395214D01*
X106421500Y-61522508D01*
X106421500Y-61654292D01*
X106441006Y-61727090D01*
X106455609Y-61781590D01*
X106521496Y-61895709D01*
X106521498Y-61895711D01*
X106521500Y-61895714D01*
X106614686Y-61988900D01*
X106614688Y-61988901D01*
X106614690Y-61988903D01*
X106728810Y-62054790D01*
X106728808Y-62054790D01*
X106728812Y-62054791D01*
X106728814Y-62054792D01*
X106856108Y-62088900D01*
X106856110Y-62088900D01*
X106987890Y-62088900D01*
X106987892Y-62088900D01*
X107115186Y-62054792D01*
X107115188Y-62054790D01*
X107115190Y-62054790D01*
X107229309Y-61988903D01*
X107229309Y-61988902D01*
X107229314Y-61988900D01*
X107322500Y-61895714D01*
X107325663Y-61890236D01*
X107388390Y-61781590D01*
X107388390Y-61781588D01*
X107388392Y-61781586D01*
X107422500Y-61654292D01*
X107422500Y-61579500D01*
X107441407Y-61521309D01*
X107490907Y-61485345D01*
X107521500Y-61480500D01*
X107724314Y-61480500D01*
X107724316Y-61480500D01*
X107773173Y-61474068D01*
X107880404Y-61424065D01*
X107964065Y-61340404D01*
X108014068Y-61233173D01*
X108020500Y-61184316D01*
X108020500Y-60835684D01*
X108014068Y-60786827D01*
X108012210Y-60782843D01*
X107964066Y-60679598D01*
X107964065Y-60679597D01*
X107964065Y-60679596D01*
X107880404Y-60595935D01*
X107867085Y-60589724D01*
X107822337Y-60547997D01*
X107810662Y-60487936D01*
X107836519Y-60432483D01*
X107867084Y-60410275D01*
X107880404Y-60404065D01*
X107964065Y-60320404D01*
X108014068Y-60213173D01*
X108020500Y-60164316D01*
X108020500Y-59815684D01*
X108014068Y-59766827D01*
X108000214Y-59737118D01*
X107964066Y-59659598D01*
X107964065Y-59659597D01*
X107964065Y-59659596D01*
X107880404Y-59575935D01*
X107880402Y-59575934D01*
X107880401Y-59575933D01*
X107843646Y-59558794D01*
X107798898Y-59517065D01*
X107787224Y-59457004D01*
X107813082Y-59401552D01*
X107835983Y-59383335D01*
X107887314Y-59353700D01*
X107958319Y-59282694D01*
X108012834Y-59254919D01*
X108028321Y-59253700D01*
X110112554Y-59253700D01*
X110170745Y-59272607D01*
X110182548Y-59282687D01*
X110295494Y-59395602D01*
X110323279Y-59450113D01*
X110324500Y-59465614D01*
X110324500Y-59906520D01*
X110324501Y-59906523D01*
X110339352Y-60000299D01*
X110339354Y-60000304D01*
X110396950Y-60113342D01*
X110486658Y-60203050D01*
X110599696Y-60260646D01*
X110693481Y-60275500D01*
X111306518Y-60275499D01*
X111306520Y-60275499D01*
X111306521Y-60275498D01*
X111362753Y-60266593D01*
X111400299Y-60260647D01*
X111400299Y-60260646D01*
X111400304Y-60260646D01*
X111513342Y-60203050D01*
X111603050Y-60113342D01*
X111660646Y-60000304D01*
X111675500Y-59906519D01*
X111675499Y-59443482D01*
X111671716Y-59419592D01*
X111660647Y-59349700D01*
X111660646Y-59349698D01*
X111660646Y-59349696D01*
X111603050Y-59236658D01*
X111513342Y-59146950D01*
X111400304Y-59089354D01*
X111400305Y-59089354D01*
X111306522Y-59074500D01*
X111306519Y-59074500D01*
X110865363Y-59074500D01*
X110807172Y-59055593D01*
X110795369Y-59045513D01*
X110497050Y-58747276D01*
X110497048Y-58747275D01*
X110487806Y-58738035D01*
X110462511Y-58712740D01*
X110462494Y-58712730D01*
X110462478Y-58712714D01*
X110428570Y-58693144D01*
X110393989Y-58673179D01*
X110393966Y-58673172D01*
X110393949Y-58673163D01*
X110358955Y-58663791D01*
X110346398Y-58660426D01*
X110346396Y-58660425D01*
X110317553Y-58652697D01*
X110317531Y-58652694D01*
X110281555Y-58652700D01*
X108028321Y-58652700D01*
X107970130Y-58633793D01*
X107958323Y-58623709D01*
X107887314Y-58552700D01*
X107887311Y-58552698D01*
X107887309Y-58552696D01*
X107773189Y-58486809D01*
X107773191Y-58486809D01*
X107722922Y-58473340D01*
X107645892Y-58452700D01*
X107514108Y-58452700D01*
X107483059Y-58461019D01*
X107425122Y-58476543D01*
X107364021Y-58473340D01*
X107316471Y-58434834D01*
X107300500Y-58380916D01*
X107300500Y-56746862D01*
X107319407Y-56688671D01*
X107368905Y-56652708D01*
X107537606Y-56597895D01*
X107734022Y-56497815D01*
X107912365Y-56368242D01*
X108068242Y-56212365D01*
X108197815Y-56034022D01*
X108297895Y-55837606D01*
X108366015Y-55627951D01*
X108400500Y-55410222D01*
X108400500Y-55189778D01*
X108400500Y-55189774D01*
X108366015Y-54972051D01*
X108366015Y-54972049D01*
X108297895Y-54762394D01*
X108197815Y-54565978D01*
X108068242Y-54387635D01*
X107967408Y-54286801D01*
X107939633Y-54232287D01*
X107949204Y-54171855D01*
X107992469Y-54128590D01*
X108037414Y-54117800D01*
X108639419Y-54117800D01*
X108697610Y-54136707D01*
X108709416Y-54146790D01*
X108794400Y-54231758D01*
X109052088Y-54489398D01*
X109070497Y-54507803D01*
X109098280Y-54562317D01*
X109099500Y-54577813D01*
X109099500Y-56304265D01*
X109102353Y-56334694D01*
X109102353Y-56334696D01*
X109102354Y-56334698D01*
X109117461Y-56377872D01*
X109147208Y-56462885D01*
X109227845Y-56572144D01*
X109227847Y-56572146D01*
X109227850Y-56572150D01*
X109227853Y-56572152D01*
X109227855Y-56572154D01*
X109337114Y-56652791D01*
X109337116Y-56652791D01*
X109337118Y-56652793D01*
X109465302Y-56697646D01*
X109495735Y-56700500D01*
X111504264Y-56700499D01*
X111504265Y-56700499D01*
X111510350Y-56699928D01*
X111534698Y-56697646D01*
X111662882Y-56652793D01*
X111772150Y-56572150D01*
X111852793Y-56462882D01*
X111897646Y-56334698D01*
X111900500Y-56304265D01*
X111900499Y-54295736D01*
X111897646Y-54265302D01*
X111852793Y-54137118D01*
X111852791Y-54137116D01*
X111852791Y-54137114D01*
X111772154Y-54027855D01*
X111772152Y-54027853D01*
X111772150Y-54027850D01*
X111772146Y-54027847D01*
X111772144Y-54027845D01*
X111662885Y-53947208D01*
X111625092Y-53933984D01*
X111534698Y-53902354D01*
X111534696Y-53902353D01*
X111534694Y-53902353D01*
X111504273Y-53899500D01*
X111504265Y-53899500D01*
X109777407Y-53899500D01*
X109719216Y-53880593D01*
X109707410Y-53870510D01*
X109176289Y-53339487D01*
X109176285Y-53339480D01*
X109176284Y-53339482D01*
X109176283Y-53339481D01*
X109143613Y-53306811D01*
X109143610Y-53306809D01*
X109143595Y-53306794D01*
X109143589Y-53306789D01*
X109086174Y-53273648D01*
X109086167Y-53273641D01*
X109086167Y-53273643D01*
X109040869Y-53247490D01*
X108984381Y-53232360D01*
X108984374Y-53232355D01*
X108984374Y-53232358D01*
X108958768Y-53225497D01*
X108926309Y-53216800D01*
X108926308Y-53216800D01*
X108926304Y-53216799D01*
X108926270Y-53216794D01*
X108872356Y-53216799D01*
X108872350Y-53216800D01*
X96573391Y-53216800D01*
X96516102Y-53232150D01*
X96458812Y-53247501D01*
X96415396Y-53272566D01*
X96415397Y-53272567D01*
X96356087Y-53306809D01*
X96356085Y-53306811D01*
X95792391Y-53870504D01*
X95737875Y-53898281D01*
X95722388Y-53899500D01*
X94277611Y-53899500D01*
X94219420Y-53880593D01*
X94207607Y-53870504D01*
X93874403Y-53537300D01*
X93312214Y-52975111D01*
X93312211Y-52975109D01*
X93312210Y-52975108D01*
X93312209Y-52975107D01*
X93209490Y-52915802D01*
X93209486Y-52915800D01*
X93185273Y-52909312D01*
X93185273Y-52909313D01*
X93094909Y-52885100D01*
X81405091Y-52885100D01*
X81359908Y-52897206D01*
X81314725Y-52909313D01*
X81314724Y-52909312D01*
X81290512Y-52915801D01*
X81290509Y-52915802D01*
X81187790Y-52975107D01*
X81187785Y-52975111D01*
X80292391Y-53870504D01*
X80237875Y-53898281D01*
X80222388Y-53899500D01*
X78777612Y-53899500D01*
X78719421Y-53880593D01*
X78707609Y-53870504D01*
X78148614Y-53311511D01*
X78148609Y-53311507D01*
X78045890Y-53252202D01*
X78045886Y-53252200D01*
X78021673Y-53245712D01*
X78021673Y-53245713D01*
X77931309Y-53221500D01*
X65568691Y-53221500D01*
X65528179Y-53232355D01*
X65478325Y-53245713D01*
X65478324Y-53245712D01*
X65454115Y-53252200D01*
X65454113Y-53252200D01*
X65454113Y-53252201D01*
X65359570Y-53306785D01*
X65351386Y-53311510D01*
X64792392Y-53870504D01*
X64737875Y-53898281D01*
X64722388Y-53899500D01*
X62995734Y-53899500D01*
X62965305Y-53902353D01*
X62837114Y-53947208D01*
X62727855Y-54027845D01*
X62727845Y-54027855D01*
X62647208Y-54137114D01*
X62602353Y-54265305D01*
X62599500Y-54295726D01*
X62599500Y-56110521D01*
X62580593Y-56168712D01*
X62531093Y-56204676D01*
X62469907Y-56204676D01*
X62430496Y-56180525D01*
X62300596Y-56050625D01*
X62272819Y-55996108D01*
X62271600Y-55980621D01*
X62271600Y-54604537D01*
X62271599Y-54604535D01*
X62264384Y-54577610D01*
X62251121Y-54528111D01*
X62246103Y-54519420D01*
X62211560Y-54459589D01*
X62155611Y-54403639D01*
X62155611Y-54403640D01*
X61349311Y-53597340D01*
X61349308Y-53597338D01*
X61280792Y-53557780D01*
X61280788Y-53557778D01*
X61204364Y-53537300D01*
X61204362Y-53537300D01*
X58422638Y-53537300D01*
X58422635Y-53537300D01*
X58346211Y-53557778D01*
X58346207Y-53557780D01*
X58277689Y-53597339D01*
X57810599Y-54064428D01*
X57756083Y-54092205D01*
X57695651Y-54082634D01*
X57659920Y-54064428D01*
X57537606Y-54002105D01*
X57537602Y-54002104D01*
X57537599Y-54002102D01*
X57327948Y-53933984D01*
X57110225Y-53899500D01*
X57110222Y-53899500D01*
X56889778Y-53899500D01*
X56889775Y-53899500D01*
X56672051Y-53933984D01*
X56462400Y-54002102D01*
X56265980Y-54102183D01*
X56214592Y-54139519D01*
X56087635Y-54231758D01*
X55931758Y-54387635D01*
X55920130Y-54403640D01*
X55802183Y-54565980D01*
X55702102Y-54762400D01*
X55633984Y-54972051D01*
X55599500Y-55189774D01*
X55599500Y-55410225D01*
X55633984Y-55627948D01*
X55702102Y-55837599D01*
X55702104Y-55837602D01*
X55702105Y-55837606D01*
X55756736Y-55944825D01*
X55782866Y-55996108D01*
X55802185Y-56034022D01*
X55931758Y-56212365D01*
X56087635Y-56368242D01*
X56265978Y-56497815D01*
X56462394Y-56597895D01*
X56672049Y-56666015D01*
X56738438Y-56676530D01*
X56889775Y-56700500D01*
X56889778Y-56700500D01*
X57110225Y-56700500D01*
X57219086Y-56683257D01*
X57327951Y-56666015D01*
X57537606Y-56597895D01*
X57734022Y-56497815D01*
X57912365Y-56368242D01*
X58068242Y-56212365D01*
X58197815Y-56034022D01*
X58297895Y-55837606D01*
X58366015Y-55627951D01*
X58400500Y-55410222D01*
X58400500Y-55189778D01*
X58400500Y-55189774D01*
X58366015Y-54972051D01*
X58366015Y-54972049D01*
X58297895Y-54762394D01*
X58217364Y-54604346D01*
X58207794Y-54543915D01*
X58235569Y-54489400D01*
X58557675Y-54167296D01*
X58612191Y-54139519D01*
X58627678Y-54138300D01*
X59442086Y-54138300D01*
X59500277Y-54157207D01*
X59536241Y-54206707D01*
X59536241Y-54267893D01*
X59512091Y-54307301D01*
X59431758Y-54387635D01*
X59420130Y-54403640D01*
X59302183Y-54565980D01*
X59202102Y-54762400D01*
X59133984Y-54972051D01*
X59099500Y-55189774D01*
X59099500Y-55410225D01*
X59133984Y-55627948D01*
X59202102Y-55837599D01*
X59202104Y-55837602D01*
X59202105Y-55837606D01*
X59256736Y-55944825D01*
X59282866Y-55996108D01*
X59302185Y-56034022D01*
X59431758Y-56212365D01*
X59587635Y-56368242D01*
X59765978Y-56497815D01*
X59962394Y-56597895D01*
X60131093Y-56652707D01*
X60180592Y-56688671D01*
X60199500Y-56746861D01*
X60199500Y-58529564D01*
X60219978Y-58605987D01*
X60219979Y-58605989D01*
X60246951Y-58652706D01*
X60259540Y-58674511D01*
X61450505Y-59865476D01*
X61478281Y-59919991D01*
X61479500Y-59935478D01*
X61479500Y-60164314D01*
X61485932Y-60213174D01*
X61485932Y-60213175D01*
X61535933Y-60320401D01*
X61535934Y-60320402D01*
X61535935Y-60320404D01*
X61619596Y-60404065D01*
X61619597Y-60404065D01*
X61619598Y-60404066D01*
X61632915Y-60410276D01*
X61677663Y-60452005D01*
X61689337Y-60512066D01*
X61663478Y-60567518D01*
X61632915Y-60589724D01*
X61619598Y-60595933D01*
X61535933Y-60679598D01*
X61485932Y-60786824D01*
X61485932Y-60786825D01*
X61479500Y-60835685D01*
X61479500Y-61186400D01*
X61460593Y-61244591D01*
X61411093Y-61280555D01*
X61380500Y-61285400D01*
X59241379Y-61285400D01*
X59183188Y-61266493D01*
X59171375Y-61256404D01*
X59049496Y-61134525D01*
X59021719Y-61080008D01*
X59020500Y-61064521D01*
X59020500Y-60835685D01*
X59019515Y-60828200D01*
X59014068Y-60786827D01*
X59012210Y-60782843D01*
X58964066Y-60679598D01*
X58964065Y-60679597D01*
X58964065Y-60679596D01*
X58880404Y-60595935D01*
X58867085Y-60589724D01*
X58822337Y-60547997D01*
X58810662Y-60487936D01*
X58836519Y-60432483D01*
X58867084Y-60410275D01*
X58880404Y-60404065D01*
X58964065Y-60320404D01*
X59014068Y-60213173D01*
X59020500Y-60164316D01*
X59020500Y-59815684D01*
X59014068Y-59766827D01*
X59000214Y-59737118D01*
X58964066Y-59659598D01*
X58964065Y-59659597D01*
X58964065Y-59659596D01*
X58880404Y-59575935D01*
X58880402Y-59575934D01*
X58880401Y-59575933D01*
X58773175Y-59525932D01*
X58740601Y-59521644D01*
X58724316Y-59519500D01*
X58724315Y-59519500D01*
X58495479Y-59519500D01*
X58437288Y-59500593D01*
X58425475Y-59490504D01*
X54834584Y-55899613D01*
X54806807Y-55845096D01*
X54810433Y-55799017D01*
X54866015Y-55627951D01*
X54900500Y-55410222D01*
X54900500Y-55189778D01*
X54900500Y-55189774D01*
X54866015Y-54972051D01*
X54866015Y-54972049D01*
X54797895Y-54762394D01*
X54697815Y-54565978D01*
X54568242Y-54387635D01*
X54412365Y-54231758D01*
X54234022Y-54102185D01*
X54234021Y-54102184D01*
X54234019Y-54102183D01*
X54144825Y-54056736D01*
X54037606Y-54002105D01*
X54037602Y-54002104D01*
X54037599Y-54002102D01*
X53827948Y-53933984D01*
X53610225Y-53899500D01*
X53610222Y-53899500D01*
X53389778Y-53899500D01*
X53389775Y-53899500D01*
X53172051Y-53933984D01*
X52962400Y-54002102D01*
X52765980Y-54102183D01*
X52714592Y-54139519D01*
X52587635Y-54231758D01*
X52431758Y-54387635D01*
X52420130Y-54403640D01*
X52302183Y-54565980D01*
X52202102Y-54762400D01*
X52133984Y-54972051D01*
X52099500Y-55189774D01*
X50300500Y-55189774D01*
X50300500Y-50399500D01*
X50319407Y-50341309D01*
X50368907Y-50305345D01*
X50399500Y-50300500D01*
X119600500Y-50300500D01*
X119658691Y-50319407D01*
G37*
%TD.AperFunction*%
%TD*%
M02*
