%TF.GenerationSoftware,KiCad,Pcbnew,10.0.6*%
%TF.CreationDate,2026-09-26T15:22:29+07:00*%
%TF.ProjectId,dashboard,64617368-626f-4617-9264-2e6b69636164,rev?*%
%TF.SameCoordinates,Original*%
%TF.FileFunction,Legend,Top*%
%TF.FilePolarity,Positive*%
%FSLAX46Y46*%
G04 Gerber Fmt 4.6, Leading zero omitted, Abs format (unit mm)*
G04 Created by KiCad (PCBNEW 10.0.6) date 2026-09-26 15:22:29*
%MOMM*%
%LPD*%
G01*
G04 APERTURE LIST*
G04 Aperture macros list*
%AMRoundRect*
0 Rectangle with rounded corners*
0 $1 Rounding radius*
0 $2 $3 $4 $5 $6 $7 $8 $9 X,Y pos of 4 corners*
0 Add a 4 corners polygon primitive as box body*
4,1,4,$2,$3,$4,$5,$6,$7,$8,$9,$2,$3,0*
0 Add four circle primitives for the rounded corners*
1,1,$1+$1,$2,$3*
1,1,$1+$1,$4,$5*
1,1,$1+$1,$6,$7*
1,1,$1+$1,$8,$9*
0 Add four rect primitives between the rounded corners*
20,1,$1+$1,$2,$3,$4,$5,0*
20,1,$1+$1,$4,$5,$6,$7,0*
20,1,$1+$1,$6,$7,$8,$9,0*
20,1,$1+$1,$8,$9,$2,$3,0*%
G04 Aperture macros list end*
%ADD10C,0.120000*%
%ADD11C,0.150000*%
%ADD12C,0.203200*%
%ADD13RoundRect,0.250001X0.949999X0.949999X-0.949999X0.949999X-0.949999X-0.949999X0.949999X-0.949999X0*%
%ADD14C,2.400000*%
%ADD15RoundRect,0.200000X0.275000X-0.200000X0.275000X0.200000X-0.275000X0.200000X-0.275000X-0.200000X0*%
%ADD16O,2.200000X4.400000*%
%ADD17RoundRect,0.135000X0.185000X-0.135000X0.185000X0.135000X-0.185000X0.135000X-0.185000X-0.135000X0*%
%ADD18C,1.879600*%
%ADD19RoundRect,0.250001X-0.949999X-0.949999X0.949999X-0.949999X0.949999X0.949999X-0.949999X0.949999X0*%
%ADD20R,3.000000X0.900000*%
%ADD21C,3.327400*%
%ADD22RoundRect,0.550800X0.500000X-0.875000X0.500000X0.875000X-0.500000X0.875000X-0.500000X-0.875000X0*%
%ADD23C,1.700000*%
%ADD24RoundRect,0.275000X-0.275000X0.975000X-0.275000X-0.975000X0.275000X-0.975000X0.275000X0.975000X0*%
%ADD25R,2.000000X2.000000*%
%ADD26C,2.000000*%
%ADD27RoundRect,0.250000X-0.550000X-0.550000X0.550000X-0.550000X0.550000X0.550000X-0.550000X0.550000X0*%
%ADD28C,1.600000*%
G04 APERTURE END LIST*
D10*
X51900000Y-62450000D02*
X72500000Y-62450000D01*
X72500000Y-62450000D02*
X72500000Y-81800000D01*
X72500000Y-81800000D02*
X51900000Y-81800000D01*
X52695238Y-97059093D02*
X53304762Y-97059093D01*
X53000000Y-97363855D02*
X53000000Y-96754331D01*
X53747619Y-57763855D02*
X53480952Y-57382902D01*
X53290476Y-57763855D02*
X53290476Y-56963855D01*
X53290476Y-56963855D02*
X53595238Y-56963855D01*
X53595238Y-56963855D02*
X53671428Y-57001950D01*
X53671428Y-57001950D02*
X53709523Y-57040045D01*
X53709523Y-57040045D02*
X53747619Y-57116236D01*
X53747619Y-57116236D02*
X53747619Y-57230521D01*
X53747619Y-57230521D02*
X53709523Y-57306712D01*
X53709523Y-57306712D02*
X53671428Y-57344807D01*
X53671428Y-57344807D02*
X53595238Y-57382902D01*
X53595238Y-57382902D02*
X53290476Y-57382902D01*
X56557142Y-96944807D02*
X56671428Y-96982902D01*
X56671428Y-96982902D02*
X56709523Y-97020998D01*
X56709523Y-97020998D02*
X56747619Y-97097188D01*
X56747619Y-97097188D02*
X56747619Y-97211474D01*
X56747619Y-97211474D02*
X56709523Y-97287664D01*
X56709523Y-97287664D02*
X56671428Y-97325760D01*
X56671428Y-97325760D02*
X56595238Y-97363855D01*
X56595238Y-97363855D02*
X56290476Y-97363855D01*
X56290476Y-97363855D02*
X56290476Y-96563855D01*
X56290476Y-96563855D02*
X56557142Y-96563855D01*
X56557142Y-96563855D02*
X56633333Y-96601950D01*
X56633333Y-96601950D02*
X56671428Y-96640045D01*
X56671428Y-96640045D02*
X56709523Y-96716236D01*
X56709523Y-96716236D02*
X56709523Y-96792426D01*
X56709523Y-96792426D02*
X56671428Y-96868617D01*
X56671428Y-96868617D02*
X56633333Y-96906712D01*
X56633333Y-96906712D02*
X56557142Y-96944807D01*
X56557142Y-96944807D02*
X56290476Y-96944807D01*
X57209523Y-57001950D02*
X57133333Y-56963855D01*
X57133333Y-56963855D02*
X57019047Y-56963855D01*
X57019047Y-56963855D02*
X56904761Y-57001950D01*
X56904761Y-57001950D02*
X56828571Y-57078140D01*
X56828571Y-57078140D02*
X56790476Y-57154331D01*
X56790476Y-57154331D02*
X56752380Y-57306712D01*
X56752380Y-57306712D02*
X56752380Y-57420998D01*
X56752380Y-57420998D02*
X56790476Y-57573379D01*
X56790476Y-57573379D02*
X56828571Y-57649569D01*
X56828571Y-57649569D02*
X56904761Y-57725760D01*
X56904761Y-57725760D02*
X57019047Y-57763855D01*
X57019047Y-57763855D02*
X57095238Y-57763855D01*
X57095238Y-57763855D02*
X57209523Y-57725760D01*
X57209523Y-57725760D02*
X57247619Y-57687664D01*
X57247619Y-57687664D02*
X57247619Y-57420998D01*
X57247619Y-57420998D02*
X57095238Y-57420998D01*
X60209523Y-96601950D02*
X60133333Y-96563855D01*
X60133333Y-96563855D02*
X60019047Y-96563855D01*
X60019047Y-96563855D02*
X59904761Y-96601950D01*
X59904761Y-96601950D02*
X59828571Y-96678140D01*
X59828571Y-96678140D02*
X59790476Y-96754331D01*
X59790476Y-96754331D02*
X59752380Y-96906712D01*
X59752380Y-96906712D02*
X59752380Y-97020998D01*
X59752380Y-97020998D02*
X59790476Y-97173379D01*
X59790476Y-97173379D02*
X59828571Y-97249569D01*
X59828571Y-97249569D02*
X59904761Y-97325760D01*
X59904761Y-97325760D02*
X60019047Y-97363855D01*
X60019047Y-97363855D02*
X60095238Y-97363855D01*
X60095238Y-97363855D02*
X60209523Y-97325760D01*
X60209523Y-97325760D02*
X60247619Y-97287664D01*
X60247619Y-97287664D02*
X60247619Y-97020998D01*
X60247619Y-97020998D02*
X60095238Y-97020998D01*
X60557142Y-57344807D02*
X60671428Y-57382902D01*
X60671428Y-57382902D02*
X60709523Y-57420998D01*
X60709523Y-57420998D02*
X60747619Y-57497188D01*
X60747619Y-57497188D02*
X60747619Y-57611474D01*
X60747619Y-57611474D02*
X60709523Y-57687664D01*
X60709523Y-57687664D02*
X60671428Y-57725760D01*
X60671428Y-57725760D02*
X60595238Y-57763855D01*
X60595238Y-57763855D02*
X60290476Y-57763855D01*
X60290476Y-57763855D02*
X60290476Y-56963855D01*
X60290476Y-56963855D02*
X60557142Y-56963855D01*
X60557142Y-56963855D02*
X60633333Y-57001950D01*
X60633333Y-57001950D02*
X60671428Y-57040045D01*
X60671428Y-57040045D02*
X60709523Y-57116236D01*
X60709523Y-57116236D02*
X60709523Y-57192426D01*
X60709523Y-57192426D02*
X60671428Y-57268617D01*
X60671428Y-57268617D02*
X60633333Y-57306712D01*
X60633333Y-57306712D02*
X60557142Y-57344807D01*
X60557142Y-57344807D02*
X60290476Y-57344807D01*
X63747619Y-97363855D02*
X63480952Y-96982902D01*
X63290476Y-97363855D02*
X63290476Y-96563855D01*
X63290476Y-96563855D02*
X63595238Y-96563855D01*
X63595238Y-96563855D02*
X63671428Y-96601950D01*
X63671428Y-96601950D02*
X63709523Y-96640045D01*
X63709523Y-96640045D02*
X63747619Y-96716236D01*
X63747619Y-96716236D02*
X63747619Y-96830521D01*
X63747619Y-96830521D02*
X63709523Y-96906712D01*
X63709523Y-96906712D02*
X63671428Y-96944807D01*
X63671428Y-96944807D02*
X63595238Y-96982902D01*
X63595238Y-96982902D02*
X63290476Y-96982902D01*
X63695238Y-57459093D02*
X64304762Y-57459093D01*
X64000000Y-57763855D02*
X64000000Y-57154331D01*
X69247619Y-57763855D02*
X68980952Y-57382902D01*
X68790476Y-57763855D02*
X68790476Y-56963855D01*
X68790476Y-56963855D02*
X69095238Y-56963855D01*
X69095238Y-56963855D02*
X69171428Y-57001950D01*
X69171428Y-57001950D02*
X69209523Y-57040045D01*
X69209523Y-57040045D02*
X69247619Y-57116236D01*
X69247619Y-57116236D02*
X69247619Y-57230521D01*
X69247619Y-57230521D02*
X69209523Y-57306712D01*
X69209523Y-57306712D02*
X69171428Y-57344807D01*
X69171428Y-57344807D02*
X69095238Y-57382902D01*
X69095238Y-57382902D02*
X68790476Y-57382902D01*
X68695238Y-97059093D02*
X69304762Y-97059093D01*
X72709523Y-57001950D02*
X72633333Y-56963855D01*
X72633333Y-56963855D02*
X72519047Y-56963855D01*
X72519047Y-56963855D02*
X72404761Y-57001950D01*
X72404761Y-57001950D02*
X72328571Y-57078140D01*
X72328571Y-57078140D02*
X72290476Y-57154331D01*
X72290476Y-57154331D02*
X72252380Y-57306712D01*
X72252380Y-57306712D02*
X72252380Y-57420998D01*
X72252380Y-57420998D02*
X72290476Y-57573379D01*
X72290476Y-57573379D02*
X72328571Y-57649569D01*
X72328571Y-57649569D02*
X72404761Y-57725760D01*
X72404761Y-57725760D02*
X72519047Y-57763855D01*
X72519047Y-57763855D02*
X72595238Y-57763855D01*
X72595238Y-57763855D02*
X72709523Y-57725760D01*
X72709523Y-57725760D02*
X72747619Y-57687664D01*
X72747619Y-57687664D02*
X72747619Y-57420998D01*
X72747619Y-57420998D02*
X72595238Y-57420998D01*
X72195238Y-97059093D02*
X72804762Y-97059093D01*
X72500000Y-97363855D02*
X72500000Y-96754331D01*
X76057142Y-57344807D02*
X76171428Y-57382902D01*
X76171428Y-57382902D02*
X76209523Y-57420998D01*
X76209523Y-57420998D02*
X76247619Y-57497188D01*
X76247619Y-57497188D02*
X76247619Y-57611474D01*
X76247619Y-57611474D02*
X76209523Y-57687664D01*
X76209523Y-57687664D02*
X76171428Y-57725760D01*
X76171428Y-57725760D02*
X76095238Y-57763855D01*
X76095238Y-57763855D02*
X75790476Y-57763855D01*
X75790476Y-57763855D02*
X75790476Y-56963855D01*
X75790476Y-56963855D02*
X76057142Y-56963855D01*
X76057142Y-56963855D02*
X76133333Y-57001950D01*
X76133333Y-57001950D02*
X76171428Y-57040045D01*
X76171428Y-57040045D02*
X76209523Y-57116236D01*
X76209523Y-57116236D02*
X76209523Y-57192426D01*
X76209523Y-57192426D02*
X76171428Y-57268617D01*
X76171428Y-57268617D02*
X76133333Y-57306712D01*
X76133333Y-57306712D02*
X76057142Y-57344807D01*
X76057142Y-57344807D02*
X75790476Y-57344807D01*
X79195238Y-57459093D02*
X79804762Y-57459093D01*
X79500000Y-57763855D02*
X79500000Y-57154331D01*
X82597619Y-88813855D02*
X82216667Y-88813855D01*
X82216667Y-88813855D02*
X82178571Y-89194807D01*
X82178571Y-89194807D02*
X82216667Y-89156712D01*
X82216667Y-89156712D02*
X82292857Y-89118617D01*
X82292857Y-89118617D02*
X82483333Y-89118617D01*
X82483333Y-89118617D02*
X82559524Y-89156712D01*
X82559524Y-89156712D02*
X82597619Y-89194807D01*
X82597619Y-89194807D02*
X82635714Y-89270998D01*
X82635714Y-89270998D02*
X82635714Y-89461474D01*
X82635714Y-89461474D02*
X82597619Y-89537664D01*
X82597619Y-89537664D02*
X82559524Y-89575760D01*
X82559524Y-89575760D02*
X82483333Y-89613855D01*
X82483333Y-89613855D02*
X82292857Y-89613855D01*
X82292857Y-89613855D02*
X82216667Y-89575760D01*
X82216667Y-89575760D02*
X82178571Y-89537664D01*
X82864286Y-88813855D02*
X83130953Y-89613855D01*
X83130953Y-89613855D02*
X83397619Y-88813855D01*
X77799999Y-69563855D02*
X77533332Y-69182902D01*
X77342856Y-69563855D02*
X77342856Y-68763855D01*
X77342856Y-68763855D02*
X77647618Y-68763855D01*
X77647618Y-68763855D02*
X77723808Y-68801950D01*
X77723808Y-68801950D02*
X77761903Y-68840045D01*
X77761903Y-68840045D02*
X77799999Y-68916236D01*
X77799999Y-68916236D02*
X77799999Y-69030521D01*
X77799999Y-69030521D02*
X77761903Y-69106712D01*
X77761903Y-69106712D02*
X77723808Y-69144807D01*
X77723808Y-69144807D02*
X77647618Y-69182902D01*
X77647618Y-69182902D02*
X77342856Y-69182902D01*
X78142856Y-69144807D02*
X78409522Y-69144807D01*
X78523808Y-69563855D02*
X78142856Y-69563855D01*
X78142856Y-69563855D02*
X78142856Y-68763855D01*
X78142856Y-68763855D02*
X78523808Y-68763855D01*
X78752380Y-68763855D02*
X79019047Y-69563855D01*
X79019047Y-69563855D02*
X79285713Y-68763855D01*
X80123808Y-69335283D02*
X80504761Y-69335283D01*
X80047618Y-69563855D02*
X80314285Y-68763855D01*
X80314285Y-68763855D02*
X80580951Y-69563855D01*
X82638094Y-68725760D02*
X81952380Y-69754331D01*
X84047618Y-68763855D02*
X84580952Y-68763855D01*
X84580952Y-68763855D02*
X84238094Y-69563855D01*
X85038095Y-68763855D02*
X85114285Y-68763855D01*
X85114285Y-68763855D02*
X85190476Y-68801950D01*
X85190476Y-68801950D02*
X85228571Y-68840045D01*
X85228571Y-68840045D02*
X85266666Y-68916236D01*
X85266666Y-68916236D02*
X85304761Y-69068617D01*
X85304761Y-69068617D02*
X85304761Y-69259093D01*
X85304761Y-69259093D02*
X85266666Y-69411474D01*
X85266666Y-69411474D02*
X85228571Y-69487664D01*
X85228571Y-69487664D02*
X85190476Y-69525760D01*
X85190476Y-69525760D02*
X85114285Y-69563855D01*
X85114285Y-69563855D02*
X85038095Y-69563855D01*
X85038095Y-69563855D02*
X84961904Y-69525760D01*
X84961904Y-69525760D02*
X84923809Y-69487664D01*
X84923809Y-69487664D02*
X84885714Y-69411474D01*
X84885714Y-69411474D02*
X84847618Y-69259093D01*
X84847618Y-69259093D02*
X84847618Y-69068617D01*
X84847618Y-69068617D02*
X84885714Y-68916236D01*
X84885714Y-68916236D02*
X84923809Y-68840045D01*
X84923809Y-68840045D02*
X84961904Y-68801950D01*
X84961904Y-68801950D02*
X85038095Y-68763855D01*
X86180952Y-69563855D02*
X86600000Y-69030521D01*
X86180952Y-69030521D02*
X86600000Y-69563855D01*
X87895238Y-68763855D02*
X87514286Y-68763855D01*
X87514286Y-68763855D02*
X87476190Y-69144807D01*
X87476190Y-69144807D02*
X87514286Y-69106712D01*
X87514286Y-69106712D02*
X87590476Y-69068617D01*
X87590476Y-69068617D02*
X87780952Y-69068617D01*
X87780952Y-69068617D02*
X87857143Y-69106712D01*
X87857143Y-69106712D02*
X87895238Y-69144807D01*
X87895238Y-69144807D02*
X87933333Y-69220998D01*
X87933333Y-69220998D02*
X87933333Y-69411474D01*
X87933333Y-69411474D02*
X87895238Y-69487664D01*
X87895238Y-69487664D02*
X87857143Y-69525760D01*
X87857143Y-69525760D02*
X87780952Y-69563855D01*
X87780952Y-69563855D02*
X87590476Y-69563855D01*
X87590476Y-69563855D02*
X87514286Y-69525760D01*
X87514286Y-69525760D02*
X87476190Y-69487664D01*
X88428572Y-68763855D02*
X88504762Y-68763855D01*
X88504762Y-68763855D02*
X88580953Y-68801950D01*
X88580953Y-68801950D02*
X88619048Y-68840045D01*
X88619048Y-68840045D02*
X88657143Y-68916236D01*
X88657143Y-68916236D02*
X88695238Y-69068617D01*
X88695238Y-69068617D02*
X88695238Y-69259093D01*
X88695238Y-69259093D02*
X88657143Y-69411474D01*
X88657143Y-69411474D02*
X88619048Y-69487664D01*
X88619048Y-69487664D02*
X88580953Y-69525760D01*
X88580953Y-69525760D02*
X88504762Y-69563855D01*
X88504762Y-69563855D02*
X88428572Y-69563855D01*
X88428572Y-69563855D02*
X88352381Y-69525760D01*
X88352381Y-69525760D02*
X88314286Y-69487664D01*
X88314286Y-69487664D02*
X88276191Y-69411474D01*
X88276191Y-69411474D02*
X88238095Y-69259093D01*
X88238095Y-69259093D02*
X88238095Y-69068617D01*
X88238095Y-69068617D02*
X88276191Y-68916236D01*
X88276191Y-68916236D02*
X88314286Y-68840045D01*
X88314286Y-68840045D02*
X88352381Y-68801950D01*
X88352381Y-68801950D02*
X88428572Y-68763855D01*
X84747619Y-57763855D02*
X84480952Y-57382902D01*
X84290476Y-57763855D02*
X84290476Y-56963855D01*
X84290476Y-56963855D02*
X84595238Y-56963855D01*
X84595238Y-56963855D02*
X84671428Y-57001950D01*
X84671428Y-57001950D02*
X84709523Y-57040045D01*
X84709523Y-57040045D02*
X84747619Y-57116236D01*
X84747619Y-57116236D02*
X84747619Y-57230521D01*
X84747619Y-57230521D02*
X84709523Y-57306712D01*
X84709523Y-57306712D02*
X84671428Y-57344807D01*
X84671428Y-57344807D02*
X84595238Y-57382902D01*
X84595238Y-57382902D02*
X84290476Y-57382902D01*
X85545238Y-89613855D02*
X85545238Y-88813855D01*
X85545238Y-88813855D02*
X85735714Y-88813855D01*
X85735714Y-88813855D02*
X85850000Y-88851950D01*
X85850000Y-88851950D02*
X85926190Y-88928140D01*
X85926190Y-88928140D02*
X85964285Y-89004331D01*
X85964285Y-89004331D02*
X86002381Y-89156712D01*
X86002381Y-89156712D02*
X86002381Y-89270998D01*
X86002381Y-89270998D02*
X85964285Y-89423379D01*
X85964285Y-89423379D02*
X85926190Y-89499569D01*
X85926190Y-89499569D02*
X85850000Y-89575760D01*
X85850000Y-89575760D02*
X85735714Y-89613855D01*
X85735714Y-89613855D02*
X85545238Y-89613855D01*
X86345238Y-89309093D02*
X86954762Y-89309093D01*
X86650000Y-89613855D02*
X86650000Y-89004331D01*
X88209523Y-57001950D02*
X88133333Y-56963855D01*
X88133333Y-56963855D02*
X88019047Y-56963855D01*
X88019047Y-56963855D02*
X87904761Y-57001950D01*
X87904761Y-57001950D02*
X87828571Y-57078140D01*
X87828571Y-57078140D02*
X87790476Y-57154331D01*
X87790476Y-57154331D02*
X87752380Y-57306712D01*
X87752380Y-57306712D02*
X87752380Y-57420998D01*
X87752380Y-57420998D02*
X87790476Y-57573379D01*
X87790476Y-57573379D02*
X87828571Y-57649569D01*
X87828571Y-57649569D02*
X87904761Y-57725760D01*
X87904761Y-57725760D02*
X88019047Y-57763855D01*
X88019047Y-57763855D02*
X88095238Y-57763855D01*
X88095238Y-57763855D02*
X88209523Y-57725760D01*
X88209523Y-57725760D02*
X88247619Y-57687664D01*
X88247619Y-57687664D02*
X88247619Y-57420998D01*
X88247619Y-57420998D02*
X88095238Y-57420998D01*
X89045238Y-89613855D02*
X89045238Y-88813855D01*
X89045238Y-88813855D02*
X89235714Y-88813855D01*
X89235714Y-88813855D02*
X89350000Y-88851950D01*
X89350000Y-88851950D02*
X89426190Y-88928140D01*
X89426190Y-88928140D02*
X89464285Y-89004331D01*
X89464285Y-89004331D02*
X89502381Y-89156712D01*
X89502381Y-89156712D02*
X89502381Y-89270998D01*
X89502381Y-89270998D02*
X89464285Y-89423379D01*
X89464285Y-89423379D02*
X89426190Y-89499569D01*
X89426190Y-89499569D02*
X89350000Y-89575760D01*
X89350000Y-89575760D02*
X89235714Y-89613855D01*
X89235714Y-89613855D02*
X89045238Y-89613855D01*
X89845238Y-89309093D02*
X90454762Y-89309093D01*
X91557142Y-57344807D02*
X91671428Y-57382902D01*
X91671428Y-57382902D02*
X91709523Y-57420998D01*
X91709523Y-57420998D02*
X91747619Y-57497188D01*
X91747619Y-57497188D02*
X91747619Y-57611474D01*
X91747619Y-57611474D02*
X91709523Y-57687664D01*
X91709523Y-57687664D02*
X91671428Y-57725760D01*
X91671428Y-57725760D02*
X91595238Y-57763855D01*
X91595238Y-57763855D02*
X91290476Y-57763855D01*
X91290476Y-57763855D02*
X91290476Y-56963855D01*
X91290476Y-56963855D02*
X91557142Y-56963855D01*
X91557142Y-56963855D02*
X91633333Y-57001950D01*
X91633333Y-57001950D02*
X91671428Y-57040045D01*
X91671428Y-57040045D02*
X91709523Y-57116236D01*
X91709523Y-57116236D02*
X91709523Y-57192426D01*
X91709523Y-57192426D02*
X91671428Y-57268617D01*
X91671428Y-57268617D02*
X91633333Y-57306712D01*
X91633333Y-57306712D02*
X91557142Y-57344807D01*
X91557142Y-57344807D02*
X91290476Y-57344807D01*
X93459523Y-88851950D02*
X93383333Y-88813855D01*
X93383333Y-88813855D02*
X93269047Y-88813855D01*
X93269047Y-88813855D02*
X93154761Y-88851950D01*
X93154761Y-88851950D02*
X93078571Y-88928140D01*
X93078571Y-88928140D02*
X93040476Y-89004331D01*
X93040476Y-89004331D02*
X93002380Y-89156712D01*
X93002380Y-89156712D02*
X93002380Y-89270998D01*
X93002380Y-89270998D02*
X93040476Y-89423379D01*
X93040476Y-89423379D02*
X93078571Y-89499569D01*
X93078571Y-89499569D02*
X93154761Y-89575760D01*
X93154761Y-89575760D02*
X93269047Y-89613855D01*
X93269047Y-89613855D02*
X93345238Y-89613855D01*
X93345238Y-89613855D02*
X93459523Y-89575760D01*
X93459523Y-89575760D02*
X93497619Y-89537664D01*
X93497619Y-89537664D02*
X93497619Y-89270998D01*
X93497619Y-89270998D02*
X93345238Y-89270998D01*
X94695238Y-57459093D02*
X95304762Y-57459093D01*
X95000000Y-57763855D02*
X95000000Y-57154331D01*
X96121429Y-89613855D02*
X96121429Y-88813855D01*
X96121429Y-88813855D02*
X96578572Y-89613855D01*
X96578572Y-89613855D02*
X96578572Y-88813855D01*
X97416667Y-89537664D02*
X97378571Y-89575760D01*
X97378571Y-89575760D02*
X97264286Y-89613855D01*
X97264286Y-89613855D02*
X97188095Y-89613855D01*
X97188095Y-89613855D02*
X97073809Y-89575760D01*
X97073809Y-89575760D02*
X96997619Y-89499569D01*
X96997619Y-89499569D02*
X96959524Y-89423379D01*
X96959524Y-89423379D02*
X96921428Y-89270998D01*
X96921428Y-89270998D02*
X96921428Y-89156712D01*
X96921428Y-89156712D02*
X96959524Y-89004331D01*
X96959524Y-89004331D02*
X96997619Y-88928140D01*
X96997619Y-88928140D02*
X97073809Y-88851950D01*
X97073809Y-88851950D02*
X97188095Y-88813855D01*
X97188095Y-88813855D02*
X97264286Y-88813855D01*
X97264286Y-88813855D02*
X97378571Y-88851950D01*
X97378571Y-88851950D02*
X97416667Y-88890045D01*
X100247619Y-57763855D02*
X99980952Y-57382902D01*
X99790476Y-57763855D02*
X99790476Y-56963855D01*
X99790476Y-56963855D02*
X100095238Y-56963855D01*
X100095238Y-56963855D02*
X100171428Y-57001950D01*
X100171428Y-57001950D02*
X100209523Y-57040045D01*
X100209523Y-57040045D02*
X100247619Y-57116236D01*
X100247619Y-57116236D02*
X100247619Y-57230521D01*
X100247619Y-57230521D02*
X100209523Y-57306712D01*
X100209523Y-57306712D02*
X100171428Y-57344807D01*
X100171428Y-57344807D02*
X100095238Y-57382902D01*
X100095238Y-57382902D02*
X99790476Y-57382902D01*
X99621429Y-89613855D02*
X99621429Y-88813855D01*
X99621429Y-88813855D02*
X100078572Y-89613855D01*
X100078572Y-89613855D02*
X100078572Y-88813855D01*
X100916667Y-89537664D02*
X100878571Y-89575760D01*
X100878571Y-89575760D02*
X100764286Y-89613855D01*
X100764286Y-89613855D02*
X100688095Y-89613855D01*
X100688095Y-89613855D02*
X100573809Y-89575760D01*
X100573809Y-89575760D02*
X100497619Y-89499569D01*
X100497619Y-89499569D02*
X100459524Y-89423379D01*
X100459524Y-89423379D02*
X100421428Y-89270998D01*
X100421428Y-89270998D02*
X100421428Y-89156712D01*
X100421428Y-89156712D02*
X100459524Y-89004331D01*
X100459524Y-89004331D02*
X100497619Y-88928140D01*
X100497619Y-88928140D02*
X100573809Y-88851950D01*
X100573809Y-88851950D02*
X100688095Y-88813855D01*
X100688095Y-88813855D02*
X100764286Y-88813855D01*
X100764286Y-88813855D02*
X100878571Y-88851950D01*
X100878571Y-88851950D02*
X100916667Y-88890045D01*
X103709523Y-57001950D02*
X103633333Y-56963855D01*
X103633333Y-56963855D02*
X103519047Y-56963855D01*
X103519047Y-56963855D02*
X103404761Y-57001950D01*
X103404761Y-57001950D02*
X103328571Y-57078140D01*
X103328571Y-57078140D02*
X103290476Y-57154331D01*
X103290476Y-57154331D02*
X103252380Y-57306712D01*
X103252380Y-57306712D02*
X103252380Y-57420998D01*
X103252380Y-57420998D02*
X103290476Y-57573379D01*
X103290476Y-57573379D02*
X103328571Y-57649569D01*
X103328571Y-57649569D02*
X103404761Y-57725760D01*
X103404761Y-57725760D02*
X103519047Y-57763855D01*
X103519047Y-57763855D02*
X103595238Y-57763855D01*
X103595238Y-57763855D02*
X103709523Y-57725760D01*
X103709523Y-57725760D02*
X103747619Y-57687664D01*
X103747619Y-57687664D02*
X103747619Y-57420998D01*
X103747619Y-57420998D02*
X103595238Y-57420998D01*
X103121429Y-89613855D02*
X103121429Y-88813855D01*
X103121429Y-88813855D02*
X103578572Y-89613855D01*
X103578572Y-89613855D02*
X103578572Y-88813855D01*
X104416667Y-89537664D02*
X104378571Y-89575760D01*
X104378571Y-89575760D02*
X104264286Y-89613855D01*
X104264286Y-89613855D02*
X104188095Y-89613855D01*
X104188095Y-89613855D02*
X104073809Y-89575760D01*
X104073809Y-89575760D02*
X103997619Y-89499569D01*
X103997619Y-89499569D02*
X103959524Y-89423379D01*
X103959524Y-89423379D02*
X103921428Y-89270998D01*
X103921428Y-89270998D02*
X103921428Y-89156712D01*
X103921428Y-89156712D02*
X103959524Y-89004331D01*
X103959524Y-89004331D02*
X103997619Y-88928140D01*
X103997619Y-88928140D02*
X104073809Y-88851950D01*
X104073809Y-88851950D02*
X104188095Y-88813855D01*
X104188095Y-88813855D02*
X104264286Y-88813855D01*
X104264286Y-88813855D02*
X104378571Y-88851950D01*
X104378571Y-88851950D02*
X104416667Y-88890045D01*
X102809524Y-87263855D02*
X102428572Y-87263855D01*
X102428572Y-87263855D02*
X102390476Y-87644807D01*
X102390476Y-87644807D02*
X102428572Y-87606712D01*
X102428572Y-87606712D02*
X102504762Y-87568617D01*
X102504762Y-87568617D02*
X102695238Y-87568617D01*
X102695238Y-87568617D02*
X102771429Y-87606712D01*
X102771429Y-87606712D02*
X102809524Y-87644807D01*
X102809524Y-87644807D02*
X102847619Y-87720998D01*
X102847619Y-87720998D02*
X102847619Y-87911474D01*
X102847619Y-87911474D02*
X102809524Y-87987664D01*
X102809524Y-87987664D02*
X102771429Y-88025760D01*
X102771429Y-88025760D02*
X102695238Y-88063855D01*
X102695238Y-88063855D02*
X102504762Y-88063855D01*
X102504762Y-88063855D02*
X102428572Y-88025760D01*
X102428572Y-88025760D02*
X102390476Y-87987664D01*
X103076191Y-87263855D02*
X103342858Y-88063855D01*
X103342858Y-88063855D02*
X103609524Y-87263855D01*
X104485715Y-88063855D02*
X104485715Y-87263855D01*
X104866667Y-88063855D02*
X104866667Y-87263855D01*
X104866667Y-87263855D02*
X105323810Y-88063855D01*
X105323810Y-88063855D02*
X105323810Y-87263855D01*
X105704762Y-88063855D02*
X105704762Y-87263855D01*
X105704762Y-87263855D02*
X106009524Y-87263855D01*
X106009524Y-87263855D02*
X106085714Y-87301950D01*
X106085714Y-87301950D02*
X106123809Y-87340045D01*
X106123809Y-87340045D02*
X106161905Y-87416236D01*
X106161905Y-87416236D02*
X106161905Y-87530521D01*
X106161905Y-87530521D02*
X106123809Y-87606712D01*
X106123809Y-87606712D02*
X106085714Y-87644807D01*
X106085714Y-87644807D02*
X106009524Y-87682902D01*
X106009524Y-87682902D02*
X105704762Y-87682902D01*
X106504762Y-87263855D02*
X106504762Y-87911474D01*
X106504762Y-87911474D02*
X106542857Y-87987664D01*
X106542857Y-87987664D02*
X106580952Y-88025760D01*
X106580952Y-88025760D02*
X106657143Y-88063855D01*
X106657143Y-88063855D02*
X106809524Y-88063855D01*
X106809524Y-88063855D02*
X106885714Y-88025760D01*
X106885714Y-88025760D02*
X106923809Y-87987664D01*
X106923809Y-87987664D02*
X106961905Y-87911474D01*
X106961905Y-87911474D02*
X106961905Y-87263855D01*
X107228571Y-87263855D02*
X107685714Y-87263855D01*
X107457142Y-88063855D02*
X107457142Y-87263855D01*
X107057142Y-57344807D02*
X107171428Y-57382902D01*
X107171428Y-57382902D02*
X107209523Y-57420998D01*
X107209523Y-57420998D02*
X107247619Y-57497188D01*
X107247619Y-57497188D02*
X107247619Y-57611474D01*
X107247619Y-57611474D02*
X107209523Y-57687664D01*
X107209523Y-57687664D02*
X107171428Y-57725760D01*
X107171428Y-57725760D02*
X107095238Y-57763855D01*
X107095238Y-57763855D02*
X106790476Y-57763855D01*
X106790476Y-57763855D02*
X106790476Y-56963855D01*
X106790476Y-56963855D02*
X107057142Y-56963855D01*
X107057142Y-56963855D02*
X107133333Y-57001950D01*
X107133333Y-57001950D02*
X107171428Y-57040045D01*
X107171428Y-57040045D02*
X107209523Y-57116236D01*
X107209523Y-57116236D02*
X107209523Y-57192426D01*
X107209523Y-57192426D02*
X107171428Y-57268617D01*
X107171428Y-57268617D02*
X107133333Y-57306712D01*
X107133333Y-57306712D02*
X107057142Y-57344807D01*
X107057142Y-57344807D02*
X106790476Y-57344807D01*
X106621429Y-89613855D02*
X106621429Y-88813855D01*
X106621429Y-88813855D02*
X107078572Y-89613855D01*
X107078572Y-89613855D02*
X107078572Y-88813855D01*
X107916667Y-89537664D02*
X107878571Y-89575760D01*
X107878571Y-89575760D02*
X107764286Y-89613855D01*
X107764286Y-89613855D02*
X107688095Y-89613855D01*
X107688095Y-89613855D02*
X107573809Y-89575760D01*
X107573809Y-89575760D02*
X107497619Y-89499569D01*
X107497619Y-89499569D02*
X107459524Y-89423379D01*
X107459524Y-89423379D02*
X107421428Y-89270998D01*
X107421428Y-89270998D02*
X107421428Y-89156712D01*
X107421428Y-89156712D02*
X107459524Y-89004331D01*
X107459524Y-89004331D02*
X107497619Y-88928140D01*
X107497619Y-88928140D02*
X107573809Y-88851950D01*
X107573809Y-88851950D02*
X107688095Y-88813855D01*
X107688095Y-88813855D02*
X107764286Y-88813855D01*
X107764286Y-88813855D02*
X107878571Y-88851950D01*
X107878571Y-88851950D02*
X107916667Y-88890045D01*
X110195238Y-57459093D02*
X110804762Y-57459093D01*
X110500000Y-57763855D02*
X110500000Y-57154331D01*
X110616667Y-89613855D02*
X110350000Y-89232902D01*
X110159524Y-89613855D02*
X110159524Y-88813855D01*
X110159524Y-88813855D02*
X110464286Y-88813855D01*
X110464286Y-88813855D02*
X110540476Y-88851950D01*
X110540476Y-88851950D02*
X110578571Y-88890045D01*
X110578571Y-88890045D02*
X110616667Y-88966236D01*
X110616667Y-88966236D02*
X110616667Y-89080521D01*
X110616667Y-89080521D02*
X110578571Y-89156712D01*
X110578571Y-89156712D02*
X110540476Y-89194807D01*
X110540476Y-89194807D02*
X110464286Y-89232902D01*
X110464286Y-89232902D02*
X110159524Y-89232902D01*
X110883333Y-88813855D02*
X111416667Y-89613855D01*
X111416667Y-88813855D02*
X110883333Y-89613855D01*
X108438095Y-84287664D02*
X108399999Y-84325760D01*
X108399999Y-84325760D02*
X108285714Y-84363855D01*
X108285714Y-84363855D02*
X108209523Y-84363855D01*
X108209523Y-84363855D02*
X108095237Y-84325760D01*
X108095237Y-84325760D02*
X108019047Y-84249569D01*
X108019047Y-84249569D02*
X107980952Y-84173379D01*
X107980952Y-84173379D02*
X107942856Y-84020998D01*
X107942856Y-84020998D02*
X107942856Y-83906712D01*
X107942856Y-83906712D02*
X107980952Y-83754331D01*
X107980952Y-83754331D02*
X108019047Y-83678140D01*
X108019047Y-83678140D02*
X108095237Y-83601950D01*
X108095237Y-83601950D02*
X108209523Y-83563855D01*
X108209523Y-83563855D02*
X108285714Y-83563855D01*
X108285714Y-83563855D02*
X108399999Y-83601950D01*
X108399999Y-83601950D02*
X108438095Y-83640045D01*
X108780952Y-83563855D02*
X108780952Y-84211474D01*
X108780952Y-84211474D02*
X108819047Y-84287664D01*
X108819047Y-84287664D02*
X108857142Y-84325760D01*
X108857142Y-84325760D02*
X108933333Y-84363855D01*
X108933333Y-84363855D02*
X109085714Y-84363855D01*
X109085714Y-84363855D02*
X109161904Y-84325760D01*
X109161904Y-84325760D02*
X109199999Y-84287664D01*
X109199999Y-84287664D02*
X109238095Y-84211474D01*
X109238095Y-84211474D02*
X109238095Y-83563855D01*
X109580951Y-84325760D02*
X109695237Y-84363855D01*
X109695237Y-84363855D02*
X109885713Y-84363855D01*
X109885713Y-84363855D02*
X109961904Y-84325760D01*
X109961904Y-84325760D02*
X109999999Y-84287664D01*
X109999999Y-84287664D02*
X110038094Y-84211474D01*
X110038094Y-84211474D02*
X110038094Y-84135283D01*
X110038094Y-84135283D02*
X109999999Y-84059093D01*
X109999999Y-84059093D02*
X109961904Y-84020998D01*
X109961904Y-84020998D02*
X109885713Y-83982902D01*
X109885713Y-83982902D02*
X109733332Y-83944807D01*
X109733332Y-83944807D02*
X109657142Y-83906712D01*
X109657142Y-83906712D02*
X109619047Y-83868617D01*
X109619047Y-83868617D02*
X109580951Y-83792426D01*
X109580951Y-83792426D02*
X109580951Y-83716236D01*
X109580951Y-83716236D02*
X109619047Y-83640045D01*
X109619047Y-83640045D02*
X109657142Y-83601950D01*
X109657142Y-83601950D02*
X109733332Y-83563855D01*
X109733332Y-83563855D02*
X109923809Y-83563855D01*
X109923809Y-83563855D02*
X110038094Y-83601950D01*
X110266666Y-83563855D02*
X110723809Y-83563855D01*
X110495237Y-84363855D02*
X110495237Y-83563855D01*
X111142857Y-83563855D02*
X111295238Y-83563855D01*
X111295238Y-83563855D02*
X111371428Y-83601950D01*
X111371428Y-83601950D02*
X111447619Y-83678140D01*
X111447619Y-83678140D02*
X111485714Y-83830521D01*
X111485714Y-83830521D02*
X111485714Y-84097188D01*
X111485714Y-84097188D02*
X111447619Y-84249569D01*
X111447619Y-84249569D02*
X111371428Y-84325760D01*
X111371428Y-84325760D02*
X111295238Y-84363855D01*
X111295238Y-84363855D02*
X111142857Y-84363855D01*
X111142857Y-84363855D02*
X111066666Y-84325760D01*
X111066666Y-84325760D02*
X110990476Y-84249569D01*
X110990476Y-84249569D02*
X110952380Y-84097188D01*
X110952380Y-84097188D02*
X110952380Y-83830521D01*
X110952380Y-83830521D02*
X110990476Y-83678140D01*
X110990476Y-83678140D02*
X111066666Y-83601950D01*
X111066666Y-83601950D02*
X111142857Y-83563855D01*
X111828571Y-84363855D02*
X111828571Y-83563855D01*
X111828571Y-83563855D02*
X112095237Y-84135283D01*
X112095237Y-84135283D02*
X112361904Y-83563855D01*
X112361904Y-83563855D02*
X112361904Y-84363855D01*
X113352381Y-84363855D02*
X113352381Y-83563855D01*
X113352381Y-83563855D02*
X113657143Y-83563855D01*
X113657143Y-83563855D02*
X113733333Y-83601950D01*
X113733333Y-83601950D02*
X113771428Y-83640045D01*
X113771428Y-83640045D02*
X113809524Y-83716236D01*
X113809524Y-83716236D02*
X113809524Y-83830521D01*
X113809524Y-83830521D02*
X113771428Y-83906712D01*
X113771428Y-83906712D02*
X113733333Y-83944807D01*
X113733333Y-83944807D02*
X113657143Y-83982902D01*
X113657143Y-83982902D02*
X113352381Y-83982902D01*
X114304762Y-83563855D02*
X114457143Y-83563855D01*
X114457143Y-83563855D02*
X114533333Y-83601950D01*
X114533333Y-83601950D02*
X114609524Y-83678140D01*
X114609524Y-83678140D02*
X114647619Y-83830521D01*
X114647619Y-83830521D02*
X114647619Y-84097188D01*
X114647619Y-84097188D02*
X114609524Y-84249569D01*
X114609524Y-84249569D02*
X114533333Y-84325760D01*
X114533333Y-84325760D02*
X114457143Y-84363855D01*
X114457143Y-84363855D02*
X114304762Y-84363855D01*
X114304762Y-84363855D02*
X114228571Y-84325760D01*
X114228571Y-84325760D02*
X114152381Y-84249569D01*
X114152381Y-84249569D02*
X114114285Y-84097188D01*
X114114285Y-84097188D02*
X114114285Y-83830521D01*
X114114285Y-83830521D02*
X114152381Y-83678140D01*
X114152381Y-83678140D02*
X114228571Y-83601950D01*
X114228571Y-83601950D02*
X114304762Y-83563855D01*
X115447619Y-84363855D02*
X115180952Y-83982902D01*
X114990476Y-84363855D02*
X114990476Y-83563855D01*
X114990476Y-83563855D02*
X115295238Y-83563855D01*
X115295238Y-83563855D02*
X115371428Y-83601950D01*
X115371428Y-83601950D02*
X115409523Y-83640045D01*
X115409523Y-83640045D02*
X115447619Y-83716236D01*
X115447619Y-83716236D02*
X115447619Y-83830521D01*
X115447619Y-83830521D02*
X115409523Y-83906712D01*
X115409523Y-83906712D02*
X115371428Y-83944807D01*
X115371428Y-83944807D02*
X115295238Y-83982902D01*
X115295238Y-83982902D02*
X114990476Y-83982902D01*
X115676190Y-83563855D02*
X116133333Y-83563855D01*
X115904761Y-84363855D02*
X115904761Y-83563855D01*
X113640476Y-88813855D02*
X114097619Y-88813855D01*
X113869047Y-89613855D02*
X113869047Y-88813855D01*
X114288095Y-88813855D02*
X114821429Y-89613855D01*
X114821429Y-88813855D02*
X114288095Y-89613855D01*
X55601950Y-83590476D02*
X55563855Y-83666666D01*
X55563855Y-83666666D02*
X55563855Y-83780952D01*
X55563855Y-83780952D02*
X55601950Y-83895238D01*
X55601950Y-83895238D02*
X55678140Y-83971428D01*
X55678140Y-83971428D02*
X55754331Y-84009523D01*
X55754331Y-84009523D02*
X55906712Y-84047619D01*
X55906712Y-84047619D02*
X56020998Y-84047619D01*
X56020998Y-84047619D02*
X56173379Y-84009523D01*
X56173379Y-84009523D02*
X56249569Y-83971428D01*
X56249569Y-83971428D02*
X56325760Y-83895238D01*
X56325760Y-83895238D02*
X56363855Y-83780952D01*
X56363855Y-83780952D02*
X56363855Y-83704761D01*
X56363855Y-83704761D02*
X56325760Y-83590476D01*
X56325760Y-83590476D02*
X56287664Y-83552380D01*
X56287664Y-83552380D02*
X56020998Y-83552380D01*
X56020998Y-83552380D02*
X56020998Y-83704761D01*
X58103855Y-84790476D02*
X58103855Y-84295238D01*
X58103855Y-84295238D02*
X58408617Y-84561904D01*
X58408617Y-84561904D02*
X58408617Y-84447619D01*
X58408617Y-84447619D02*
X58446712Y-84371428D01*
X58446712Y-84371428D02*
X58484807Y-84333333D01*
X58484807Y-84333333D02*
X58560998Y-84295238D01*
X58560998Y-84295238D02*
X58751474Y-84295238D01*
X58751474Y-84295238D02*
X58827664Y-84333333D01*
X58827664Y-84333333D02*
X58865760Y-84371428D01*
X58865760Y-84371428D02*
X58903855Y-84447619D01*
X58903855Y-84447619D02*
X58903855Y-84676190D01*
X58903855Y-84676190D02*
X58865760Y-84752381D01*
X58865760Y-84752381D02*
X58827664Y-84790476D01*
X58103855Y-84066666D02*
X58903855Y-83799999D01*
X58903855Y-83799999D02*
X58103855Y-83533333D01*
X58103855Y-83342857D02*
X58103855Y-82847619D01*
X58103855Y-82847619D02*
X58408617Y-83114285D01*
X58408617Y-83114285D02*
X58408617Y-83000000D01*
X58408617Y-83000000D02*
X58446712Y-82923809D01*
X58446712Y-82923809D02*
X58484807Y-82885714D01*
X58484807Y-82885714D02*
X58560998Y-82847619D01*
X58560998Y-82847619D02*
X58751474Y-82847619D01*
X58751474Y-82847619D02*
X58827664Y-82885714D01*
X58827664Y-82885714D02*
X58865760Y-82923809D01*
X58865760Y-82923809D02*
X58903855Y-83000000D01*
X58903855Y-83000000D02*
X58903855Y-83228571D01*
X58903855Y-83228571D02*
X58865760Y-83304762D01*
X58865760Y-83304762D02*
X58827664Y-83342857D01*
X61405760Y-84771428D02*
X61443855Y-84657142D01*
X61443855Y-84657142D02*
X61443855Y-84466666D01*
X61443855Y-84466666D02*
X61405760Y-84390475D01*
X61405760Y-84390475D02*
X61367664Y-84352380D01*
X61367664Y-84352380D02*
X61291474Y-84314285D01*
X61291474Y-84314285D02*
X61215283Y-84314285D01*
X61215283Y-84314285D02*
X61139093Y-84352380D01*
X61139093Y-84352380D02*
X61100998Y-84390475D01*
X61100998Y-84390475D02*
X61062902Y-84466666D01*
X61062902Y-84466666D02*
X61024807Y-84619047D01*
X61024807Y-84619047D02*
X60986712Y-84695237D01*
X60986712Y-84695237D02*
X60948617Y-84733332D01*
X60948617Y-84733332D02*
X60872426Y-84771428D01*
X60872426Y-84771428D02*
X60796236Y-84771428D01*
X60796236Y-84771428D02*
X60720045Y-84733332D01*
X60720045Y-84733332D02*
X60681950Y-84695237D01*
X60681950Y-84695237D02*
X60643855Y-84619047D01*
X60643855Y-84619047D02*
X60643855Y-84428570D01*
X60643855Y-84428570D02*
X60681950Y-84314285D01*
X61443855Y-83971427D02*
X60643855Y-83971427D01*
X60643855Y-83971427D02*
X60643855Y-83780951D01*
X60643855Y-83780951D02*
X60681950Y-83666665D01*
X60681950Y-83666665D02*
X60758140Y-83590475D01*
X60758140Y-83590475D02*
X60834331Y-83552380D01*
X60834331Y-83552380D02*
X60986712Y-83514284D01*
X60986712Y-83514284D02*
X61100998Y-83514284D01*
X61100998Y-83514284D02*
X61253379Y-83552380D01*
X61253379Y-83552380D02*
X61329569Y-83590475D01*
X61329569Y-83590475D02*
X61405760Y-83666665D01*
X61405760Y-83666665D02*
X61443855Y-83780951D01*
X61443855Y-83780951D02*
X61443855Y-83971427D01*
X61215283Y-83209523D02*
X61215283Y-82828570D01*
X61443855Y-83285713D02*
X60643855Y-83019046D01*
X60643855Y-83019046D02*
X61443855Y-82752380D01*
X63945760Y-84752381D02*
X63983855Y-84638095D01*
X63983855Y-84638095D02*
X63983855Y-84447619D01*
X63983855Y-84447619D02*
X63945760Y-84371428D01*
X63945760Y-84371428D02*
X63907664Y-84333333D01*
X63907664Y-84333333D02*
X63831474Y-84295238D01*
X63831474Y-84295238D02*
X63755283Y-84295238D01*
X63755283Y-84295238D02*
X63679093Y-84333333D01*
X63679093Y-84333333D02*
X63640998Y-84371428D01*
X63640998Y-84371428D02*
X63602902Y-84447619D01*
X63602902Y-84447619D02*
X63564807Y-84600000D01*
X63564807Y-84600000D02*
X63526712Y-84676190D01*
X63526712Y-84676190D02*
X63488617Y-84714285D01*
X63488617Y-84714285D02*
X63412426Y-84752381D01*
X63412426Y-84752381D02*
X63336236Y-84752381D01*
X63336236Y-84752381D02*
X63260045Y-84714285D01*
X63260045Y-84714285D02*
X63221950Y-84676190D01*
X63221950Y-84676190D02*
X63183855Y-84600000D01*
X63183855Y-84600000D02*
X63183855Y-84409523D01*
X63183855Y-84409523D02*
X63221950Y-84295238D01*
X63907664Y-83495237D02*
X63945760Y-83533333D01*
X63945760Y-83533333D02*
X63983855Y-83647618D01*
X63983855Y-83647618D02*
X63983855Y-83723809D01*
X63983855Y-83723809D02*
X63945760Y-83838095D01*
X63945760Y-83838095D02*
X63869569Y-83914285D01*
X63869569Y-83914285D02*
X63793379Y-83952380D01*
X63793379Y-83952380D02*
X63640998Y-83990476D01*
X63640998Y-83990476D02*
X63526712Y-83990476D01*
X63526712Y-83990476D02*
X63374331Y-83952380D01*
X63374331Y-83952380D02*
X63298140Y-83914285D01*
X63298140Y-83914285D02*
X63221950Y-83838095D01*
X63221950Y-83838095D02*
X63183855Y-83723809D01*
X63183855Y-83723809D02*
X63183855Y-83647618D01*
X63183855Y-83647618D02*
X63221950Y-83533333D01*
X63221950Y-83533333D02*
X63260045Y-83495237D01*
X63983855Y-82771428D02*
X63983855Y-83152380D01*
X63983855Y-83152380D02*
X63183855Y-83152380D01*
X79442857Y-71502640D02*
X79442857Y-70402640D01*
X79442857Y-70402640D02*
X79704762Y-70402640D01*
X79704762Y-70402640D02*
X79861905Y-70455021D01*
X79861905Y-70455021D02*
X79966667Y-70559783D01*
X79966667Y-70559783D02*
X80019048Y-70664545D01*
X80019048Y-70664545D02*
X80071429Y-70874069D01*
X80071429Y-70874069D02*
X80071429Y-71031212D01*
X80071429Y-71031212D02*
X80019048Y-71240736D01*
X80019048Y-71240736D02*
X79966667Y-71345498D01*
X79966667Y-71345498D02*
X79861905Y-71450260D01*
X79861905Y-71450260D02*
X79704762Y-71502640D01*
X79704762Y-71502640D02*
X79442857Y-71502640D01*
X80490476Y-71188355D02*
X81014286Y-71188355D01*
X80385714Y-71502640D02*
X80752381Y-70402640D01*
X80752381Y-70402640D02*
X81119048Y-71502640D01*
X81433333Y-71450260D02*
X81590476Y-71502640D01*
X81590476Y-71502640D02*
X81852381Y-71502640D01*
X81852381Y-71502640D02*
X81957143Y-71450260D01*
X81957143Y-71450260D02*
X82009524Y-71397879D01*
X82009524Y-71397879D02*
X82061905Y-71293117D01*
X82061905Y-71293117D02*
X82061905Y-71188355D01*
X82061905Y-71188355D02*
X82009524Y-71083593D01*
X82009524Y-71083593D02*
X81957143Y-71031212D01*
X81957143Y-71031212D02*
X81852381Y-70978831D01*
X81852381Y-70978831D02*
X81642857Y-70926450D01*
X81642857Y-70926450D02*
X81538095Y-70874069D01*
X81538095Y-70874069D02*
X81485714Y-70821688D01*
X81485714Y-70821688D02*
X81433333Y-70716926D01*
X81433333Y-70716926D02*
X81433333Y-70612164D01*
X81433333Y-70612164D02*
X81485714Y-70507402D01*
X81485714Y-70507402D02*
X81538095Y-70455021D01*
X81538095Y-70455021D02*
X81642857Y-70402640D01*
X81642857Y-70402640D02*
X81904762Y-70402640D01*
X81904762Y-70402640D02*
X82061905Y-70455021D01*
X82533333Y-71502640D02*
X82533333Y-70402640D01*
X82533333Y-70926450D02*
X83161905Y-70926450D01*
X83161905Y-71502640D02*
X83161905Y-70402640D01*
X84052381Y-70926450D02*
X84209524Y-70978831D01*
X84209524Y-70978831D02*
X84261905Y-71031212D01*
X84261905Y-71031212D02*
X84314286Y-71135974D01*
X84314286Y-71135974D02*
X84314286Y-71293117D01*
X84314286Y-71293117D02*
X84261905Y-71397879D01*
X84261905Y-71397879D02*
X84209524Y-71450260D01*
X84209524Y-71450260D02*
X84104762Y-71502640D01*
X84104762Y-71502640D02*
X83685714Y-71502640D01*
X83685714Y-71502640D02*
X83685714Y-70402640D01*
X83685714Y-70402640D02*
X84052381Y-70402640D01*
X84052381Y-70402640D02*
X84157143Y-70455021D01*
X84157143Y-70455021D02*
X84209524Y-70507402D01*
X84209524Y-70507402D02*
X84261905Y-70612164D01*
X84261905Y-70612164D02*
X84261905Y-70716926D01*
X84261905Y-70716926D02*
X84209524Y-70821688D01*
X84209524Y-70821688D02*
X84157143Y-70874069D01*
X84157143Y-70874069D02*
X84052381Y-70926450D01*
X84052381Y-70926450D02*
X83685714Y-70926450D01*
X84995238Y-70402640D02*
X85204762Y-70402640D01*
X85204762Y-70402640D02*
X85309524Y-70455021D01*
X85309524Y-70455021D02*
X85414286Y-70559783D01*
X85414286Y-70559783D02*
X85466667Y-70769307D01*
X85466667Y-70769307D02*
X85466667Y-71135974D01*
X85466667Y-71135974D02*
X85414286Y-71345498D01*
X85414286Y-71345498D02*
X85309524Y-71450260D01*
X85309524Y-71450260D02*
X85204762Y-71502640D01*
X85204762Y-71502640D02*
X84995238Y-71502640D01*
X84995238Y-71502640D02*
X84890476Y-71450260D01*
X84890476Y-71450260D02*
X84785714Y-71345498D01*
X84785714Y-71345498D02*
X84733333Y-71135974D01*
X84733333Y-71135974D02*
X84733333Y-70769307D01*
X84733333Y-70769307D02*
X84785714Y-70559783D01*
X84785714Y-70559783D02*
X84890476Y-70455021D01*
X84890476Y-70455021D02*
X84995238Y-70402640D01*
X85885714Y-71188355D02*
X86409524Y-71188355D01*
X85780952Y-71502640D02*
X86147619Y-70402640D01*
X86147619Y-70402640D02*
X86514286Y-71502640D01*
X87509524Y-71502640D02*
X87142857Y-70978831D01*
X86880952Y-71502640D02*
X86880952Y-70402640D01*
X86880952Y-70402640D02*
X87300000Y-70402640D01*
X87300000Y-70402640D02*
X87404762Y-70455021D01*
X87404762Y-70455021D02*
X87457143Y-70507402D01*
X87457143Y-70507402D02*
X87509524Y-70612164D01*
X87509524Y-70612164D02*
X87509524Y-70769307D01*
X87509524Y-70769307D02*
X87457143Y-70874069D01*
X87457143Y-70874069D02*
X87404762Y-70926450D01*
X87404762Y-70926450D02*
X87300000Y-70978831D01*
X87300000Y-70978831D02*
X86880952Y-70978831D01*
X87980952Y-71502640D02*
X87980952Y-70402640D01*
X87980952Y-70402640D02*
X88242857Y-70402640D01*
X88242857Y-70402640D02*
X88400000Y-70455021D01*
X88400000Y-70455021D02*
X88504762Y-70559783D01*
X88504762Y-70559783D02*
X88557143Y-70664545D01*
X88557143Y-70664545D02*
X88609524Y-70874069D01*
X88609524Y-70874069D02*
X88609524Y-71031212D01*
X88609524Y-71031212D02*
X88557143Y-71240736D01*
X88557143Y-71240736D02*
X88504762Y-71345498D01*
X88504762Y-71345498D02*
X88400000Y-71450260D01*
X88400000Y-71450260D02*
X88242857Y-71502640D01*
X88242857Y-71502640D02*
X87980952Y-71502640D01*
X108150000Y-81602640D02*
X108830953Y-81602640D01*
X108830953Y-81602640D02*
X108464286Y-82021688D01*
X108464286Y-82021688D02*
X108621429Y-82021688D01*
X108621429Y-82021688D02*
X108726191Y-82074069D01*
X108726191Y-82074069D02*
X108778572Y-82126450D01*
X108778572Y-82126450D02*
X108830953Y-82231212D01*
X108830953Y-82231212D02*
X108830953Y-82493117D01*
X108830953Y-82493117D02*
X108778572Y-82597879D01*
X108778572Y-82597879D02*
X108726191Y-82650260D01*
X108726191Y-82650260D02*
X108621429Y-82702640D01*
X108621429Y-82702640D02*
X108307143Y-82702640D01*
X108307143Y-82702640D02*
X108202381Y-82650260D01*
X108202381Y-82650260D02*
X108150000Y-82597879D01*
X109145238Y-81602640D02*
X109511905Y-82702640D01*
X109511905Y-82702640D02*
X109878572Y-81602640D01*
X110140476Y-81602640D02*
X110821429Y-81602640D01*
X110821429Y-81602640D02*
X110454762Y-82021688D01*
X110454762Y-82021688D02*
X110611905Y-82021688D01*
X110611905Y-82021688D02*
X110716667Y-82074069D01*
X110716667Y-82074069D02*
X110769048Y-82126450D01*
X110769048Y-82126450D02*
X110821429Y-82231212D01*
X110821429Y-82231212D02*
X110821429Y-82493117D01*
X110821429Y-82493117D02*
X110769048Y-82597879D01*
X110769048Y-82597879D02*
X110716667Y-82650260D01*
X110716667Y-82650260D02*
X110611905Y-82702640D01*
X110611905Y-82702640D02*
X110297619Y-82702640D01*
X110297619Y-82702640D02*
X110192857Y-82650260D01*
X110192857Y-82650260D02*
X110140476Y-82597879D01*
X112340476Y-81602640D02*
X112550000Y-81602640D01*
X112550000Y-81602640D02*
X112654762Y-81655021D01*
X112654762Y-81655021D02*
X112759524Y-81759783D01*
X112759524Y-81759783D02*
X112811905Y-81969307D01*
X112811905Y-81969307D02*
X112811905Y-82335974D01*
X112811905Y-82335974D02*
X112759524Y-82545498D01*
X112759524Y-82545498D02*
X112654762Y-82650260D01*
X112654762Y-82650260D02*
X112550000Y-82702640D01*
X112550000Y-82702640D02*
X112340476Y-82702640D01*
X112340476Y-82702640D02*
X112235714Y-82650260D01*
X112235714Y-82650260D02*
X112130952Y-82545498D01*
X112130952Y-82545498D02*
X112078571Y-82335974D01*
X112078571Y-82335974D02*
X112078571Y-81969307D01*
X112078571Y-81969307D02*
X112130952Y-81759783D01*
X112130952Y-81759783D02*
X112235714Y-81655021D01*
X112235714Y-81655021D02*
X112340476Y-81602640D01*
X113283333Y-82702640D02*
X113283333Y-81602640D01*
X113283333Y-81602640D02*
X113911905Y-82702640D01*
X113911905Y-82702640D02*
X113911905Y-81602640D01*
X114959524Y-82702640D02*
X114435714Y-82702640D01*
X114435714Y-82702640D02*
X114435714Y-81602640D01*
X115535714Y-82178831D02*
X115535714Y-82702640D01*
X115169047Y-81602640D02*
X115535714Y-82178831D01*
X115535714Y-82178831D02*
X115902381Y-81602640D01*
X78909524Y-53663855D02*
X78909524Y-52863855D01*
X78909524Y-52863855D02*
X79100000Y-52863855D01*
X79100000Y-52863855D02*
X79214286Y-52901950D01*
X79214286Y-52901950D02*
X79290476Y-52978140D01*
X79290476Y-52978140D02*
X79328571Y-53054331D01*
X79328571Y-53054331D02*
X79366667Y-53206712D01*
X79366667Y-53206712D02*
X79366667Y-53320998D01*
X79366667Y-53320998D02*
X79328571Y-53473379D01*
X79328571Y-53473379D02*
X79290476Y-53549569D01*
X79290476Y-53549569D02*
X79214286Y-53625760D01*
X79214286Y-53625760D02*
X79100000Y-53663855D01*
X79100000Y-53663855D02*
X78909524Y-53663855D01*
X79671428Y-52940045D02*
X79709524Y-52901950D01*
X79709524Y-52901950D02*
X79785714Y-52863855D01*
X79785714Y-52863855D02*
X79976190Y-52863855D01*
X79976190Y-52863855D02*
X80052381Y-52901950D01*
X80052381Y-52901950D02*
X80090476Y-52940045D01*
X80090476Y-52940045D02*
X80128571Y-53016236D01*
X80128571Y-53016236D02*
X80128571Y-53092426D01*
X80128571Y-53092426D02*
X80090476Y-53206712D01*
X80090476Y-53206712D02*
X79633333Y-53663855D01*
X79633333Y-53663855D02*
X80128571Y-53663855D01*
X97513855Y-61014285D02*
X97132902Y-61280952D01*
X97513855Y-61471428D02*
X96713855Y-61471428D01*
X96713855Y-61471428D02*
X96713855Y-61166666D01*
X96713855Y-61166666D02*
X96751950Y-61090476D01*
X96751950Y-61090476D02*
X96790045Y-61052381D01*
X96790045Y-61052381D02*
X96866236Y-61014285D01*
X96866236Y-61014285D02*
X96980521Y-61014285D01*
X96980521Y-61014285D02*
X97056712Y-61052381D01*
X97056712Y-61052381D02*
X97094807Y-61090476D01*
X97094807Y-61090476D02*
X97132902Y-61166666D01*
X97132902Y-61166666D02*
X97132902Y-61471428D01*
X97513855Y-60252381D02*
X97513855Y-60709524D01*
X97513855Y-60480952D02*
X96713855Y-60480952D01*
X96713855Y-60480952D02*
X96828140Y-60557143D01*
X96828140Y-60557143D02*
X96904331Y-60633333D01*
X96904331Y-60633333D02*
X96942426Y-60709524D01*
X96713855Y-59985714D02*
X96713855Y-59490476D01*
X96713855Y-59490476D02*
X97018617Y-59757142D01*
X97018617Y-59757142D02*
X97018617Y-59642857D01*
X97018617Y-59642857D02*
X97056712Y-59566666D01*
X97056712Y-59566666D02*
X97094807Y-59528571D01*
X97094807Y-59528571D02*
X97170998Y-59490476D01*
X97170998Y-59490476D02*
X97361474Y-59490476D01*
X97361474Y-59490476D02*
X97437664Y-59528571D01*
X97437664Y-59528571D02*
X97475760Y-59566666D01*
X97475760Y-59566666D02*
X97513855Y-59642857D01*
X97513855Y-59642857D02*
X97513855Y-59871428D01*
X97513855Y-59871428D02*
X97475760Y-59947619D01*
X97475760Y-59947619D02*
X97437664Y-59985714D01*
X82013855Y-61014285D02*
X81632902Y-61280952D01*
X82013855Y-61471428D02*
X81213855Y-61471428D01*
X81213855Y-61471428D02*
X81213855Y-61166666D01*
X81213855Y-61166666D02*
X81251950Y-61090476D01*
X81251950Y-61090476D02*
X81290045Y-61052381D01*
X81290045Y-61052381D02*
X81366236Y-61014285D01*
X81366236Y-61014285D02*
X81480521Y-61014285D01*
X81480521Y-61014285D02*
X81556712Y-61052381D01*
X81556712Y-61052381D02*
X81594807Y-61090476D01*
X81594807Y-61090476D02*
X81632902Y-61166666D01*
X81632902Y-61166666D02*
X81632902Y-61471428D01*
X82013855Y-60252381D02*
X82013855Y-60709524D01*
X82013855Y-60480952D02*
X81213855Y-60480952D01*
X81213855Y-60480952D02*
X81328140Y-60557143D01*
X81328140Y-60557143D02*
X81404331Y-60633333D01*
X81404331Y-60633333D02*
X81442426Y-60709524D01*
X81290045Y-59947619D02*
X81251950Y-59909523D01*
X81251950Y-59909523D02*
X81213855Y-59833333D01*
X81213855Y-59833333D02*
X81213855Y-59642857D01*
X81213855Y-59642857D02*
X81251950Y-59566666D01*
X81251950Y-59566666D02*
X81290045Y-59528571D01*
X81290045Y-59528571D02*
X81366236Y-59490476D01*
X81366236Y-59490476D02*
X81442426Y-59490476D01*
X81442426Y-59490476D02*
X81556712Y-59528571D01*
X81556712Y-59528571D02*
X82013855Y-59985714D01*
X82013855Y-59985714D02*
X82013855Y-59490476D01*
X61013855Y-89914285D02*
X60632902Y-90180952D01*
X61013855Y-90371428D02*
X60213855Y-90371428D01*
X60213855Y-90371428D02*
X60213855Y-90066666D01*
X60213855Y-90066666D02*
X60251950Y-89990476D01*
X60251950Y-89990476D02*
X60290045Y-89952381D01*
X60290045Y-89952381D02*
X60366236Y-89914285D01*
X60366236Y-89914285D02*
X60480521Y-89914285D01*
X60480521Y-89914285D02*
X60556712Y-89952381D01*
X60556712Y-89952381D02*
X60594807Y-89990476D01*
X60594807Y-89990476D02*
X60632902Y-90066666D01*
X60632902Y-90066666D02*
X60632902Y-90371428D01*
X61013855Y-89152381D02*
X61013855Y-89609524D01*
X61013855Y-89380952D02*
X60213855Y-89380952D01*
X60213855Y-89380952D02*
X60328140Y-89457143D01*
X60328140Y-89457143D02*
X60404331Y-89533333D01*
X60404331Y-89533333D02*
X60442426Y-89609524D01*
X60213855Y-88657142D02*
X60213855Y-88580952D01*
X60213855Y-88580952D02*
X60251950Y-88504761D01*
X60251950Y-88504761D02*
X60290045Y-88466666D01*
X60290045Y-88466666D02*
X60366236Y-88428571D01*
X60366236Y-88428571D02*
X60518617Y-88390476D01*
X60518617Y-88390476D02*
X60709093Y-88390476D01*
X60709093Y-88390476D02*
X60861474Y-88428571D01*
X60861474Y-88428571D02*
X60937664Y-88466666D01*
X60937664Y-88466666D02*
X60975760Y-88504761D01*
X60975760Y-88504761D02*
X61013855Y-88580952D01*
X61013855Y-88580952D02*
X61013855Y-88657142D01*
X61013855Y-88657142D02*
X60975760Y-88733333D01*
X60975760Y-88733333D02*
X60937664Y-88771428D01*
X60937664Y-88771428D02*
X60861474Y-88809523D01*
X60861474Y-88809523D02*
X60709093Y-88847619D01*
X60709093Y-88847619D02*
X60518617Y-88847619D01*
X60518617Y-88847619D02*
X60366236Y-88809523D01*
X60366236Y-88809523D02*
X60290045Y-88771428D01*
X60290045Y-88771428D02*
X60251950Y-88733333D01*
X60251950Y-88733333D02*
X60213855Y-88657142D01*
X71513855Y-89914285D02*
X71132902Y-90180952D01*
X71513855Y-90371428D02*
X70713855Y-90371428D01*
X70713855Y-90371428D02*
X70713855Y-90066666D01*
X70713855Y-90066666D02*
X70751950Y-89990476D01*
X70751950Y-89990476D02*
X70790045Y-89952381D01*
X70790045Y-89952381D02*
X70866236Y-89914285D01*
X70866236Y-89914285D02*
X70980521Y-89914285D01*
X70980521Y-89914285D02*
X71056712Y-89952381D01*
X71056712Y-89952381D02*
X71094807Y-89990476D01*
X71094807Y-89990476D02*
X71132902Y-90066666D01*
X71132902Y-90066666D02*
X71132902Y-90371428D01*
X71513855Y-89152381D02*
X71513855Y-89609524D01*
X71513855Y-89380952D02*
X70713855Y-89380952D01*
X70713855Y-89380952D02*
X70828140Y-89457143D01*
X70828140Y-89457143D02*
X70904331Y-89533333D01*
X70904331Y-89533333D02*
X70942426Y-89609524D01*
X70713855Y-88466666D02*
X70713855Y-88619047D01*
X70713855Y-88619047D02*
X70751950Y-88695238D01*
X70751950Y-88695238D02*
X70790045Y-88733333D01*
X70790045Y-88733333D02*
X70904331Y-88809523D01*
X70904331Y-88809523D02*
X71056712Y-88847619D01*
X71056712Y-88847619D02*
X71361474Y-88847619D01*
X71361474Y-88847619D02*
X71437664Y-88809523D01*
X71437664Y-88809523D02*
X71475760Y-88771428D01*
X71475760Y-88771428D02*
X71513855Y-88695238D01*
X71513855Y-88695238D02*
X71513855Y-88542857D01*
X71513855Y-88542857D02*
X71475760Y-88466666D01*
X71475760Y-88466666D02*
X71437664Y-88428571D01*
X71437664Y-88428571D02*
X71361474Y-88390476D01*
X71361474Y-88390476D02*
X71170998Y-88390476D01*
X71170998Y-88390476D02*
X71094807Y-88428571D01*
X71094807Y-88428571D02*
X71056712Y-88466666D01*
X71056712Y-88466666D02*
X71018617Y-88542857D01*
X71018617Y-88542857D02*
X71018617Y-88695238D01*
X71018617Y-88695238D02*
X71056712Y-88771428D01*
X71056712Y-88771428D02*
X71094807Y-88809523D01*
X71094807Y-88809523D02*
X71170998Y-88847619D01*
X109909524Y-53663855D02*
X109909524Y-52863855D01*
X109909524Y-52863855D02*
X110100000Y-52863855D01*
X110100000Y-52863855D02*
X110214286Y-52901950D01*
X110214286Y-52901950D02*
X110290476Y-52978140D01*
X110290476Y-52978140D02*
X110328571Y-53054331D01*
X110328571Y-53054331D02*
X110366667Y-53206712D01*
X110366667Y-53206712D02*
X110366667Y-53320998D01*
X110366667Y-53320998D02*
X110328571Y-53473379D01*
X110328571Y-53473379D02*
X110290476Y-53549569D01*
X110290476Y-53549569D02*
X110214286Y-53625760D01*
X110214286Y-53625760D02*
X110100000Y-53663855D01*
X110100000Y-53663855D02*
X109909524Y-53663855D01*
X111052381Y-53130521D02*
X111052381Y-53663855D01*
X110861905Y-52825760D02*
X110671428Y-53397188D01*
X110671428Y-53397188D02*
X111166667Y-53397188D01*
X94409524Y-53663855D02*
X94409524Y-52863855D01*
X94409524Y-52863855D02*
X94600000Y-52863855D01*
X94600000Y-52863855D02*
X94714286Y-52901950D01*
X94714286Y-52901950D02*
X94790476Y-52978140D01*
X94790476Y-52978140D02*
X94828571Y-53054331D01*
X94828571Y-53054331D02*
X94866667Y-53206712D01*
X94866667Y-53206712D02*
X94866667Y-53320998D01*
X94866667Y-53320998D02*
X94828571Y-53473379D01*
X94828571Y-53473379D02*
X94790476Y-53549569D01*
X94790476Y-53549569D02*
X94714286Y-53625760D01*
X94714286Y-53625760D02*
X94600000Y-53663855D01*
X94600000Y-53663855D02*
X94409524Y-53663855D01*
X95133333Y-52863855D02*
X95628571Y-52863855D01*
X95628571Y-52863855D02*
X95361905Y-53168617D01*
X95361905Y-53168617D02*
X95476190Y-53168617D01*
X95476190Y-53168617D02*
X95552381Y-53206712D01*
X95552381Y-53206712D02*
X95590476Y-53244807D01*
X95590476Y-53244807D02*
X95628571Y-53320998D01*
X95628571Y-53320998D02*
X95628571Y-53511474D01*
X95628571Y-53511474D02*
X95590476Y-53587664D01*
X95590476Y-53587664D02*
X95552381Y-53625760D01*
X95552381Y-53625760D02*
X95476190Y-53663855D01*
X95476190Y-53663855D02*
X95247619Y-53663855D01*
X95247619Y-53663855D02*
X95171428Y-53625760D01*
X95171428Y-53625760D02*
X95133333Y-53587664D01*
X109513855Y-60633332D02*
X109132902Y-60899999D01*
X109513855Y-61090475D02*
X108713855Y-61090475D01*
X108713855Y-61090475D02*
X108713855Y-60785713D01*
X108713855Y-60785713D02*
X108751950Y-60709523D01*
X108751950Y-60709523D02*
X108790045Y-60671428D01*
X108790045Y-60671428D02*
X108866236Y-60633332D01*
X108866236Y-60633332D02*
X108980521Y-60633332D01*
X108980521Y-60633332D02*
X109056712Y-60671428D01*
X109056712Y-60671428D02*
X109094807Y-60709523D01*
X109094807Y-60709523D02*
X109132902Y-60785713D01*
X109132902Y-60785713D02*
X109132902Y-61090475D01*
X109513855Y-60252380D02*
X109513855Y-60099999D01*
X109513855Y-60099999D02*
X109475760Y-60023809D01*
X109475760Y-60023809D02*
X109437664Y-59985713D01*
X109437664Y-59985713D02*
X109323379Y-59909523D01*
X109323379Y-59909523D02*
X109170998Y-59871428D01*
X109170998Y-59871428D02*
X108866236Y-59871428D01*
X108866236Y-59871428D02*
X108790045Y-59909523D01*
X108790045Y-59909523D02*
X108751950Y-59947618D01*
X108751950Y-59947618D02*
X108713855Y-60023809D01*
X108713855Y-60023809D02*
X108713855Y-60176190D01*
X108713855Y-60176190D02*
X108751950Y-60252380D01*
X108751950Y-60252380D02*
X108790045Y-60290475D01*
X108790045Y-60290475D02*
X108866236Y-60328571D01*
X108866236Y-60328571D02*
X109056712Y-60328571D01*
X109056712Y-60328571D02*
X109132902Y-60290475D01*
X109132902Y-60290475D02*
X109170998Y-60252380D01*
X109170998Y-60252380D02*
X109209093Y-60176190D01*
X109209093Y-60176190D02*
X109209093Y-60023809D01*
X109209093Y-60023809D02*
X109170998Y-59947618D01*
X109170998Y-59947618D02*
X109132902Y-59909523D01*
X109132902Y-59909523D02*
X109056712Y-59871428D01*
X52409524Y-93063855D02*
X52409524Y-92263855D01*
X52409524Y-92263855D02*
X52600000Y-92263855D01*
X52600000Y-92263855D02*
X52714286Y-92301950D01*
X52714286Y-92301950D02*
X52790476Y-92378140D01*
X52790476Y-92378140D02*
X52828571Y-92454331D01*
X52828571Y-92454331D02*
X52866667Y-92606712D01*
X52866667Y-92606712D02*
X52866667Y-92720998D01*
X52866667Y-92720998D02*
X52828571Y-92873379D01*
X52828571Y-92873379D02*
X52790476Y-92949569D01*
X52790476Y-92949569D02*
X52714286Y-93025760D01*
X52714286Y-93025760D02*
X52600000Y-93063855D01*
X52600000Y-93063855D02*
X52409524Y-93063855D01*
X53590476Y-92263855D02*
X53209524Y-92263855D01*
X53209524Y-92263855D02*
X53171428Y-92644807D01*
X53171428Y-92644807D02*
X53209524Y-92606712D01*
X53209524Y-92606712D02*
X53285714Y-92568617D01*
X53285714Y-92568617D02*
X53476190Y-92568617D01*
X53476190Y-92568617D02*
X53552381Y-92606712D01*
X53552381Y-92606712D02*
X53590476Y-92644807D01*
X53590476Y-92644807D02*
X53628571Y-92720998D01*
X53628571Y-92720998D02*
X53628571Y-92911474D01*
X53628571Y-92911474D02*
X53590476Y-92987664D01*
X53590476Y-92987664D02*
X53552381Y-93025760D01*
X53552381Y-93025760D02*
X53476190Y-93063855D01*
X53476190Y-93063855D02*
X53285714Y-93063855D01*
X53285714Y-93063855D02*
X53209524Y-93025760D01*
X53209524Y-93025760D02*
X53171428Y-92987664D01*
X57513855Y-89533332D02*
X57132902Y-89799999D01*
X57513855Y-89990475D02*
X56713855Y-89990475D01*
X56713855Y-89990475D02*
X56713855Y-89685713D01*
X56713855Y-89685713D02*
X56751950Y-89609523D01*
X56751950Y-89609523D02*
X56790045Y-89571428D01*
X56790045Y-89571428D02*
X56866236Y-89533332D01*
X56866236Y-89533332D02*
X56980521Y-89533332D01*
X56980521Y-89533332D02*
X57056712Y-89571428D01*
X57056712Y-89571428D02*
X57094807Y-89609523D01*
X57094807Y-89609523D02*
X57132902Y-89685713D01*
X57132902Y-89685713D02*
X57132902Y-89990475D01*
X56713855Y-88809523D02*
X56713855Y-89190475D01*
X56713855Y-89190475D02*
X57094807Y-89228571D01*
X57094807Y-89228571D02*
X57056712Y-89190475D01*
X57056712Y-89190475D02*
X57018617Y-89114285D01*
X57018617Y-89114285D02*
X57018617Y-88923809D01*
X57018617Y-88923809D02*
X57056712Y-88847618D01*
X57056712Y-88847618D02*
X57094807Y-88809523D01*
X57094807Y-88809523D02*
X57170998Y-88771428D01*
X57170998Y-88771428D02*
X57361474Y-88771428D01*
X57361474Y-88771428D02*
X57437664Y-88809523D01*
X57437664Y-88809523D02*
X57475760Y-88847618D01*
X57475760Y-88847618D02*
X57513855Y-88923809D01*
X57513855Y-88923809D02*
X57513855Y-89114285D01*
X57513855Y-89114285D02*
X57475760Y-89190475D01*
X57475760Y-89190475D02*
X57437664Y-89228571D01*
X73369423Y-78095855D02*
X73369423Y-78743474D01*
X73369423Y-78743474D02*
X73407518Y-78819664D01*
X73407518Y-78819664D02*
X73445613Y-78857760D01*
X73445613Y-78857760D02*
X73521804Y-78895855D01*
X73521804Y-78895855D02*
X73674185Y-78895855D01*
X73674185Y-78895855D02*
X73750375Y-78857760D01*
X73750375Y-78857760D02*
X73788470Y-78819664D01*
X73788470Y-78819664D02*
X73826566Y-78743474D01*
X73826566Y-78743474D02*
X73826566Y-78095855D01*
X74131327Y-78095855D02*
X74626565Y-78095855D01*
X74626565Y-78095855D02*
X74359899Y-78400617D01*
X74359899Y-78400617D02*
X74474184Y-78400617D01*
X74474184Y-78400617D02*
X74550375Y-78438712D01*
X74550375Y-78438712D02*
X74588470Y-78476807D01*
X74588470Y-78476807D02*
X74626565Y-78552998D01*
X74626565Y-78552998D02*
X74626565Y-78743474D01*
X74626565Y-78743474D02*
X74588470Y-78819664D01*
X74588470Y-78819664D02*
X74550375Y-78857760D01*
X74550375Y-78857760D02*
X74474184Y-78895855D01*
X74474184Y-78895855D02*
X74245613Y-78895855D01*
X74245613Y-78895855D02*
X74169422Y-78857760D01*
X74169422Y-78857760D02*
X74131327Y-78819664D01*
X90513855Y-60633332D02*
X90132902Y-60899999D01*
X90513855Y-61090475D02*
X89713855Y-61090475D01*
X89713855Y-61090475D02*
X89713855Y-60785713D01*
X89713855Y-60785713D02*
X89751950Y-60709523D01*
X89751950Y-60709523D02*
X89790045Y-60671428D01*
X89790045Y-60671428D02*
X89866236Y-60633332D01*
X89866236Y-60633332D02*
X89980521Y-60633332D01*
X89980521Y-60633332D02*
X90056712Y-60671428D01*
X90056712Y-60671428D02*
X90094807Y-60709523D01*
X90094807Y-60709523D02*
X90132902Y-60785713D01*
X90132902Y-60785713D02*
X90132902Y-61090475D01*
X89713855Y-60366666D02*
X89713855Y-59871428D01*
X89713855Y-59871428D02*
X90018617Y-60138094D01*
X90018617Y-60138094D02*
X90018617Y-60023809D01*
X90018617Y-60023809D02*
X90056712Y-59947618D01*
X90056712Y-59947618D02*
X90094807Y-59909523D01*
X90094807Y-59909523D02*
X90170998Y-59871428D01*
X90170998Y-59871428D02*
X90361474Y-59871428D01*
X90361474Y-59871428D02*
X90437664Y-59909523D01*
X90437664Y-59909523D02*
X90475760Y-59947618D01*
X90475760Y-59947618D02*
X90513855Y-60023809D01*
X90513855Y-60023809D02*
X90513855Y-60252380D01*
X90513855Y-60252380D02*
X90475760Y-60328571D01*
X90475760Y-60328571D02*
X90437664Y-60366666D01*
X75013855Y-60633332D02*
X74632902Y-60899999D01*
X75013855Y-61090475D02*
X74213855Y-61090475D01*
X74213855Y-61090475D02*
X74213855Y-60785713D01*
X74213855Y-60785713D02*
X74251950Y-60709523D01*
X74251950Y-60709523D02*
X74290045Y-60671428D01*
X74290045Y-60671428D02*
X74366236Y-60633332D01*
X74366236Y-60633332D02*
X74480521Y-60633332D01*
X74480521Y-60633332D02*
X74556712Y-60671428D01*
X74556712Y-60671428D02*
X74594807Y-60709523D01*
X74594807Y-60709523D02*
X74632902Y-60785713D01*
X74632902Y-60785713D02*
X74632902Y-61090475D01*
X74290045Y-60328571D02*
X74251950Y-60290475D01*
X74251950Y-60290475D02*
X74213855Y-60214285D01*
X74213855Y-60214285D02*
X74213855Y-60023809D01*
X74213855Y-60023809D02*
X74251950Y-59947618D01*
X74251950Y-59947618D02*
X74290045Y-59909523D01*
X74290045Y-59909523D02*
X74366236Y-59871428D01*
X74366236Y-59871428D02*
X74442426Y-59871428D01*
X74442426Y-59871428D02*
X74556712Y-59909523D01*
X74556712Y-59909523D02*
X75013855Y-60366666D01*
X75013855Y-60366666D02*
X75013855Y-59871428D01*
X64513855Y-89914285D02*
X64132902Y-90180952D01*
X64513855Y-90371428D02*
X63713855Y-90371428D01*
X63713855Y-90371428D02*
X63713855Y-90066666D01*
X63713855Y-90066666D02*
X63751950Y-89990476D01*
X63751950Y-89990476D02*
X63790045Y-89952381D01*
X63790045Y-89952381D02*
X63866236Y-89914285D01*
X63866236Y-89914285D02*
X63980521Y-89914285D01*
X63980521Y-89914285D02*
X64056712Y-89952381D01*
X64056712Y-89952381D02*
X64094807Y-89990476D01*
X64094807Y-89990476D02*
X64132902Y-90066666D01*
X64132902Y-90066666D02*
X64132902Y-90371428D01*
X64513855Y-89152381D02*
X64513855Y-89609524D01*
X64513855Y-89380952D02*
X63713855Y-89380952D01*
X63713855Y-89380952D02*
X63828140Y-89457143D01*
X63828140Y-89457143D02*
X63904331Y-89533333D01*
X63904331Y-89533333D02*
X63942426Y-89609524D01*
X63713855Y-88428571D02*
X63713855Y-88809523D01*
X63713855Y-88809523D02*
X64094807Y-88847619D01*
X64094807Y-88847619D02*
X64056712Y-88809523D01*
X64056712Y-88809523D02*
X64018617Y-88733333D01*
X64018617Y-88733333D02*
X64018617Y-88542857D01*
X64018617Y-88542857D02*
X64056712Y-88466666D01*
X64056712Y-88466666D02*
X64094807Y-88428571D01*
X64094807Y-88428571D02*
X64170998Y-88390476D01*
X64170998Y-88390476D02*
X64361474Y-88390476D01*
X64361474Y-88390476D02*
X64437664Y-88428571D01*
X64437664Y-88428571D02*
X64475760Y-88466666D01*
X64475760Y-88466666D02*
X64513855Y-88542857D01*
X64513855Y-88542857D02*
X64513855Y-88733333D01*
X64513855Y-88733333D02*
X64475760Y-88809523D01*
X64475760Y-88809523D02*
X64437664Y-88847619D01*
X94013855Y-60633332D02*
X93632902Y-60899999D01*
X94013855Y-61090475D02*
X93213855Y-61090475D01*
X93213855Y-61090475D02*
X93213855Y-60785713D01*
X93213855Y-60785713D02*
X93251950Y-60709523D01*
X93251950Y-60709523D02*
X93290045Y-60671428D01*
X93290045Y-60671428D02*
X93366236Y-60633332D01*
X93366236Y-60633332D02*
X93480521Y-60633332D01*
X93480521Y-60633332D02*
X93556712Y-60671428D01*
X93556712Y-60671428D02*
X93594807Y-60709523D01*
X93594807Y-60709523D02*
X93632902Y-60785713D01*
X93632902Y-60785713D02*
X93632902Y-61090475D01*
X93556712Y-60176190D02*
X93518617Y-60252380D01*
X93518617Y-60252380D02*
X93480521Y-60290475D01*
X93480521Y-60290475D02*
X93404331Y-60328571D01*
X93404331Y-60328571D02*
X93366236Y-60328571D01*
X93366236Y-60328571D02*
X93290045Y-60290475D01*
X93290045Y-60290475D02*
X93251950Y-60252380D01*
X93251950Y-60252380D02*
X93213855Y-60176190D01*
X93213855Y-60176190D02*
X93213855Y-60023809D01*
X93213855Y-60023809D02*
X93251950Y-59947618D01*
X93251950Y-59947618D02*
X93290045Y-59909523D01*
X93290045Y-59909523D02*
X93366236Y-59871428D01*
X93366236Y-59871428D02*
X93404331Y-59871428D01*
X93404331Y-59871428D02*
X93480521Y-59909523D01*
X93480521Y-59909523D02*
X93518617Y-59947618D01*
X93518617Y-59947618D02*
X93556712Y-60023809D01*
X93556712Y-60023809D02*
X93556712Y-60176190D01*
X93556712Y-60176190D02*
X93594807Y-60252380D01*
X93594807Y-60252380D02*
X93632902Y-60290475D01*
X93632902Y-60290475D02*
X93709093Y-60328571D01*
X93709093Y-60328571D02*
X93861474Y-60328571D01*
X93861474Y-60328571D02*
X93937664Y-60290475D01*
X93937664Y-60290475D02*
X93975760Y-60252380D01*
X93975760Y-60252380D02*
X94013855Y-60176190D01*
X94013855Y-60176190D02*
X94013855Y-60023809D01*
X94013855Y-60023809D02*
X93975760Y-59947618D01*
X93975760Y-59947618D02*
X93937664Y-59909523D01*
X93937664Y-59909523D02*
X93861474Y-59871428D01*
X93861474Y-59871428D02*
X93709093Y-59871428D01*
X93709093Y-59871428D02*
X93632902Y-59909523D01*
X93632902Y-59909523D02*
X93594807Y-59947618D01*
X93594807Y-59947618D02*
X93556712Y-60023809D01*
X60513855Y-60633332D02*
X60132902Y-60899999D01*
X60513855Y-61090475D02*
X59713855Y-61090475D01*
X59713855Y-61090475D02*
X59713855Y-60785713D01*
X59713855Y-60785713D02*
X59751950Y-60709523D01*
X59751950Y-60709523D02*
X59790045Y-60671428D01*
X59790045Y-60671428D02*
X59866236Y-60633332D01*
X59866236Y-60633332D02*
X59980521Y-60633332D01*
X59980521Y-60633332D02*
X60056712Y-60671428D01*
X60056712Y-60671428D02*
X60094807Y-60709523D01*
X60094807Y-60709523D02*
X60132902Y-60785713D01*
X60132902Y-60785713D02*
X60132902Y-61090475D01*
X60513855Y-59871428D02*
X60513855Y-60328571D01*
X60513855Y-60099999D02*
X59713855Y-60099999D01*
X59713855Y-60099999D02*
X59828140Y-60176190D01*
X59828140Y-60176190D02*
X59904331Y-60252380D01*
X59904331Y-60252380D02*
X59942426Y-60328571D01*
X68409524Y-93063855D02*
X68409524Y-92263855D01*
X68409524Y-92263855D02*
X68600000Y-92263855D01*
X68600000Y-92263855D02*
X68714286Y-92301950D01*
X68714286Y-92301950D02*
X68790476Y-92378140D01*
X68790476Y-92378140D02*
X68828571Y-92454331D01*
X68828571Y-92454331D02*
X68866667Y-92606712D01*
X68866667Y-92606712D02*
X68866667Y-92720998D01*
X68866667Y-92720998D02*
X68828571Y-92873379D01*
X68828571Y-92873379D02*
X68790476Y-92949569D01*
X68790476Y-92949569D02*
X68714286Y-93025760D01*
X68714286Y-93025760D02*
X68600000Y-93063855D01*
X68600000Y-93063855D02*
X68409524Y-93063855D01*
X69552381Y-92263855D02*
X69400000Y-92263855D01*
X69400000Y-92263855D02*
X69323809Y-92301950D01*
X69323809Y-92301950D02*
X69285714Y-92340045D01*
X69285714Y-92340045D02*
X69209524Y-92454331D01*
X69209524Y-92454331D02*
X69171428Y-92606712D01*
X69171428Y-92606712D02*
X69171428Y-92911474D01*
X69171428Y-92911474D02*
X69209524Y-92987664D01*
X69209524Y-92987664D02*
X69247619Y-93025760D01*
X69247619Y-93025760D02*
X69323809Y-93063855D01*
X69323809Y-93063855D02*
X69476190Y-93063855D01*
X69476190Y-93063855D02*
X69552381Y-93025760D01*
X69552381Y-93025760D02*
X69590476Y-92987664D01*
X69590476Y-92987664D02*
X69628571Y-92911474D01*
X69628571Y-92911474D02*
X69628571Y-92720998D01*
X69628571Y-92720998D02*
X69590476Y-92644807D01*
X69590476Y-92644807D02*
X69552381Y-92606712D01*
X69552381Y-92606712D02*
X69476190Y-92568617D01*
X69476190Y-92568617D02*
X69323809Y-92568617D01*
X69323809Y-92568617D02*
X69247619Y-92606712D01*
X69247619Y-92606712D02*
X69209524Y-92644807D01*
X69209524Y-92644807D02*
X69171428Y-92720998D01*
X89295237Y-76944807D02*
X89409523Y-76982902D01*
X89409523Y-76982902D02*
X89447618Y-77020998D01*
X89447618Y-77020998D02*
X89485714Y-77097188D01*
X89485714Y-77097188D02*
X89485714Y-77211474D01*
X89485714Y-77211474D02*
X89447618Y-77287664D01*
X89447618Y-77287664D02*
X89409523Y-77325760D01*
X89409523Y-77325760D02*
X89333333Y-77363855D01*
X89333333Y-77363855D02*
X89028571Y-77363855D01*
X89028571Y-77363855D02*
X89028571Y-76563855D01*
X89028571Y-76563855D02*
X89295237Y-76563855D01*
X89295237Y-76563855D02*
X89371428Y-76601950D01*
X89371428Y-76601950D02*
X89409523Y-76640045D01*
X89409523Y-76640045D02*
X89447618Y-76716236D01*
X89447618Y-76716236D02*
X89447618Y-76792426D01*
X89447618Y-76792426D02*
X89409523Y-76868617D01*
X89409523Y-76868617D02*
X89371428Y-76906712D01*
X89371428Y-76906712D02*
X89295237Y-76944807D01*
X89295237Y-76944807D02*
X89028571Y-76944807D01*
X89752380Y-76563855D02*
X90285714Y-76563855D01*
X90285714Y-76563855D02*
X89752380Y-77363855D01*
X89752380Y-77363855D02*
X90285714Y-77363855D01*
X91009523Y-77363855D02*
X90552380Y-77363855D01*
X90780952Y-77363855D02*
X90780952Y-76563855D01*
X90780952Y-76563855D02*
X90704761Y-76678140D01*
X90704761Y-76678140D02*
X90628571Y-76754331D01*
X90628571Y-76754331D02*
X90552380Y-76792426D01*
D11*
X84609048Y-77533866D02*
X85370953Y-77533866D01*
X84990000Y-77914819D02*
X84990000Y-77152914D01*
D10*
X78513855Y-60633332D02*
X78132902Y-60899999D01*
X78513855Y-61090475D02*
X77713855Y-61090475D01*
X77713855Y-61090475D02*
X77713855Y-60785713D01*
X77713855Y-60785713D02*
X77751950Y-60709523D01*
X77751950Y-60709523D02*
X77790045Y-60671428D01*
X77790045Y-60671428D02*
X77866236Y-60633332D01*
X77866236Y-60633332D02*
X77980521Y-60633332D01*
X77980521Y-60633332D02*
X78056712Y-60671428D01*
X78056712Y-60671428D02*
X78094807Y-60709523D01*
X78094807Y-60709523D02*
X78132902Y-60785713D01*
X78132902Y-60785713D02*
X78132902Y-61090475D01*
X77713855Y-60366666D02*
X77713855Y-59833332D01*
X77713855Y-59833332D02*
X78513855Y-60176190D01*
X63409524Y-53663855D02*
X63409524Y-52863855D01*
X63409524Y-52863855D02*
X63600000Y-52863855D01*
X63600000Y-52863855D02*
X63714286Y-52901950D01*
X63714286Y-52901950D02*
X63790476Y-52978140D01*
X63790476Y-52978140D02*
X63828571Y-53054331D01*
X63828571Y-53054331D02*
X63866667Y-53206712D01*
X63866667Y-53206712D02*
X63866667Y-53320998D01*
X63866667Y-53320998D02*
X63828571Y-53473379D01*
X63828571Y-53473379D02*
X63790476Y-53549569D01*
X63790476Y-53549569D02*
X63714286Y-53625760D01*
X63714286Y-53625760D02*
X63600000Y-53663855D01*
X63600000Y-53663855D02*
X63409524Y-53663855D01*
X64628571Y-53663855D02*
X64171428Y-53663855D01*
X64400000Y-53663855D02*
X64400000Y-52863855D01*
X64400000Y-52863855D02*
X64323809Y-52978140D01*
X64323809Y-52978140D02*
X64247619Y-53054331D01*
X64247619Y-53054331D02*
X64171428Y-53092426D01*
X67513855Y-61014285D02*
X67132902Y-61280952D01*
X67513855Y-61471428D02*
X66713855Y-61471428D01*
X66713855Y-61471428D02*
X66713855Y-61166666D01*
X66713855Y-61166666D02*
X66751950Y-61090476D01*
X66751950Y-61090476D02*
X66790045Y-61052381D01*
X66790045Y-61052381D02*
X66866236Y-61014285D01*
X66866236Y-61014285D02*
X66980521Y-61014285D01*
X66980521Y-61014285D02*
X67056712Y-61052381D01*
X67056712Y-61052381D02*
X67094807Y-61090476D01*
X67094807Y-61090476D02*
X67132902Y-61166666D01*
X67132902Y-61166666D02*
X67132902Y-61471428D01*
X67513855Y-60252381D02*
X67513855Y-60709524D01*
X67513855Y-60480952D02*
X66713855Y-60480952D01*
X66713855Y-60480952D02*
X66828140Y-60557143D01*
X66828140Y-60557143D02*
X66904331Y-60633333D01*
X66904331Y-60633333D02*
X66942426Y-60709524D01*
X67513855Y-59490476D02*
X67513855Y-59947619D01*
X67513855Y-59719047D02*
X66713855Y-59719047D01*
X66713855Y-59719047D02*
X66828140Y-59795238D01*
X66828140Y-59795238D02*
X66904331Y-59871428D01*
X66904331Y-59871428D02*
X66942426Y-59947619D01*
X64013855Y-60633332D02*
X63632902Y-60899999D01*
X64013855Y-61090475D02*
X63213855Y-61090475D01*
X63213855Y-61090475D02*
X63213855Y-60785713D01*
X63213855Y-60785713D02*
X63251950Y-60709523D01*
X63251950Y-60709523D02*
X63290045Y-60671428D01*
X63290045Y-60671428D02*
X63366236Y-60633332D01*
X63366236Y-60633332D02*
X63480521Y-60633332D01*
X63480521Y-60633332D02*
X63556712Y-60671428D01*
X63556712Y-60671428D02*
X63594807Y-60709523D01*
X63594807Y-60709523D02*
X63632902Y-60785713D01*
X63632902Y-60785713D02*
X63632902Y-61090475D01*
X63213855Y-59947618D02*
X63213855Y-60099999D01*
X63213855Y-60099999D02*
X63251950Y-60176190D01*
X63251950Y-60176190D02*
X63290045Y-60214285D01*
X63290045Y-60214285D02*
X63404331Y-60290475D01*
X63404331Y-60290475D02*
X63556712Y-60328571D01*
X63556712Y-60328571D02*
X63861474Y-60328571D01*
X63861474Y-60328571D02*
X63937664Y-60290475D01*
X63937664Y-60290475D02*
X63975760Y-60252380D01*
X63975760Y-60252380D02*
X64013855Y-60176190D01*
X64013855Y-60176190D02*
X64013855Y-60023809D01*
X64013855Y-60023809D02*
X63975760Y-59947618D01*
X63975760Y-59947618D02*
X63937664Y-59909523D01*
X63937664Y-59909523D02*
X63861474Y-59871428D01*
X63861474Y-59871428D02*
X63670998Y-59871428D01*
X63670998Y-59871428D02*
X63594807Y-59909523D01*
X63594807Y-59909523D02*
X63556712Y-59947618D01*
X63556712Y-59947618D02*
X63518617Y-60023809D01*
X63518617Y-60023809D02*
X63518617Y-60176190D01*
X63518617Y-60176190D02*
X63556712Y-60252380D01*
X63556712Y-60252380D02*
X63594807Y-60290475D01*
X63594807Y-60290475D02*
X63670998Y-60328571D01*
X106013855Y-60633332D02*
X105632902Y-60899999D01*
X106013855Y-61090475D02*
X105213855Y-61090475D01*
X105213855Y-61090475D02*
X105213855Y-60785713D01*
X105213855Y-60785713D02*
X105251950Y-60709523D01*
X105251950Y-60709523D02*
X105290045Y-60671428D01*
X105290045Y-60671428D02*
X105366236Y-60633332D01*
X105366236Y-60633332D02*
X105480521Y-60633332D01*
X105480521Y-60633332D02*
X105556712Y-60671428D01*
X105556712Y-60671428D02*
X105594807Y-60709523D01*
X105594807Y-60709523D02*
X105632902Y-60785713D01*
X105632902Y-60785713D02*
X105632902Y-61090475D01*
X105480521Y-59947618D02*
X106013855Y-59947618D01*
X105175760Y-60138094D02*
X105747188Y-60328571D01*
X105747188Y-60328571D02*
X105747188Y-59833332D01*
X113013855Y-61014285D02*
X112632902Y-61280952D01*
X113013855Y-61471428D02*
X112213855Y-61471428D01*
X112213855Y-61471428D02*
X112213855Y-61166666D01*
X112213855Y-61166666D02*
X112251950Y-61090476D01*
X112251950Y-61090476D02*
X112290045Y-61052381D01*
X112290045Y-61052381D02*
X112366236Y-61014285D01*
X112366236Y-61014285D02*
X112480521Y-61014285D01*
X112480521Y-61014285D02*
X112556712Y-61052381D01*
X112556712Y-61052381D02*
X112594807Y-61090476D01*
X112594807Y-61090476D02*
X112632902Y-61166666D01*
X112632902Y-61166666D02*
X112632902Y-61471428D01*
X113013855Y-60252381D02*
X113013855Y-60709524D01*
X113013855Y-60480952D02*
X112213855Y-60480952D01*
X112213855Y-60480952D02*
X112328140Y-60557143D01*
X112328140Y-60557143D02*
X112404331Y-60633333D01*
X112404331Y-60633333D02*
X112442426Y-60709524D01*
X112480521Y-59566666D02*
X113013855Y-59566666D01*
X112175760Y-59757142D02*
X112747188Y-59947619D01*
X112747188Y-59947619D02*
X112747188Y-59452380D01*
%TO.C,D2*%
X67130000Y-50680000D02*
X79200000Y-50680000D01*
X67130000Y-58520000D02*
X67130000Y-50680000D01*
X79800000Y-50680000D02*
X81370000Y-50680000D01*
X81370000Y-50680000D02*
X81370000Y-58520000D01*
X81370000Y-51200000D02*
X67130000Y-51200000D01*
X81370000Y-52300000D02*
X67130000Y-52300000D01*
X81370000Y-58520000D02*
X67130000Y-58520000D01*
X79500000Y-50680000D02*
X79060000Y-50070000D01*
X79940000Y-50070000D01*
X79500000Y-50680000D01*
G36*
X79500000Y-50680000D02*
G01*
X79060000Y-50070000D01*
X79940000Y-50070000D01*
X79500000Y-50680000D01*
G37*
%TO.C,R13*%
X94977500Y-60737258D02*
X94977500Y-60262742D01*
X96022500Y-60737258D02*
X96022500Y-60262742D01*
%TO.C,R12*%
X79477500Y-60737258D02*
X79477500Y-60262742D01*
X80522500Y-60737258D02*
X80522500Y-60262742D01*
%TO.C,J3*%
D12*
X80350000Y-90500000D02*
X80350000Y-97200000D01*
X81400000Y-90500000D02*
X80350000Y-90500000D01*
X84900000Y-90500000D02*
X84100000Y-90500000D01*
X88400000Y-90500000D02*
X87600000Y-90500000D01*
X91900000Y-90500000D02*
X91100000Y-90500000D01*
X95400000Y-90500000D02*
X94600000Y-90500000D01*
X98900000Y-90500000D02*
X98100000Y-90500000D01*
X102400000Y-90500000D02*
X101600000Y-90500000D01*
X105900000Y-90500000D02*
X105100000Y-90500000D01*
X109400000Y-90500000D02*
X108600000Y-90500000D01*
X112900000Y-90500000D02*
X112100000Y-90500000D01*
X116650000Y-90500000D02*
X115600000Y-90500000D01*
X116650000Y-97200000D02*
X116650000Y-90500000D01*
%TO.C,R10*%
D10*
X58620000Y-89553641D02*
X58620000Y-89246359D01*
X59380000Y-89553641D02*
X59380000Y-89246359D01*
%TO.C,R16*%
X68977500Y-89637258D02*
X68977500Y-89162742D01*
X70022500Y-89637258D02*
X70022500Y-89162742D01*
%TO.C,D4*%
X98130000Y-50680000D02*
X110200000Y-50680000D01*
X98130000Y-58520000D02*
X98130000Y-50680000D01*
X110800000Y-50680000D02*
X112370000Y-50680000D01*
X112370000Y-50680000D02*
X112370000Y-58520000D01*
X112370000Y-51200000D02*
X98130000Y-51200000D01*
X112370000Y-52300000D02*
X98130000Y-52300000D01*
X112370000Y-58520000D02*
X98130000Y-58520000D01*
X110500000Y-50680000D02*
X110060000Y-50070000D01*
X110940000Y-50070000D01*
X110500000Y-50680000D01*
G36*
X110500000Y-50680000D02*
G01*
X110060000Y-50070000D01*
X110940000Y-50070000D01*
X110500000Y-50680000D01*
G37*
%TO.C,D3*%
X82630000Y-50680000D02*
X94700000Y-50680000D01*
X82630000Y-58520000D02*
X82630000Y-50680000D01*
X95300000Y-50680000D02*
X96870000Y-50680000D01*
X96870000Y-50680000D02*
X96870000Y-58520000D01*
X96870000Y-51200000D02*
X82630000Y-51200000D01*
X96870000Y-52300000D02*
X82630000Y-52300000D01*
X96870000Y-58520000D02*
X82630000Y-58520000D01*
X95000000Y-50680000D02*
X94560000Y-50070000D01*
X95440000Y-50070000D01*
X95000000Y-50680000D01*
G36*
X95000000Y-50680000D02*
G01*
X94560000Y-50070000D01*
X95440000Y-50070000D01*
X95000000Y-50680000D01*
G37*
%TO.C,R9*%
X107120000Y-60653641D02*
X107120000Y-60346359D01*
X107880000Y-60653641D02*
X107880000Y-60346359D01*
%TO.C,D5*%
X51130000Y-91480000D02*
X65370000Y-91480000D01*
X51130000Y-97700000D02*
X65370000Y-97700000D01*
X51130000Y-98800000D02*
X65370000Y-98800000D01*
X51130000Y-99320000D02*
X51130000Y-91480000D01*
X52700000Y-99320000D02*
X51130000Y-99320000D01*
X65370000Y-91480000D02*
X65370000Y-99320000D01*
X65370000Y-99320000D02*
X53300000Y-99320000D01*
X53000000Y-99320000D02*
X53440000Y-99930000D01*
X52560000Y-99930000D01*
X53000000Y-99320000D01*
G36*
X53440000Y-99930000D02*
G01*
X52560000Y-99930000D01*
X53000000Y-99320000D01*
X53440000Y-99930000D01*
G37*
%TO.C,R5*%
X55120000Y-89553641D02*
X55120000Y-89246359D01*
X55880000Y-89553641D02*
X55880000Y-89246359D01*
%TO.C,R3*%
X88120000Y-60653641D02*
X88120000Y-60346359D01*
X88880000Y-60653641D02*
X88880000Y-60346359D01*
%TO.C,R2*%
X72620000Y-60653641D02*
X72620000Y-60346359D01*
X73380000Y-60653641D02*
X73380000Y-60346359D01*
%TO.C,R15*%
X61977500Y-89637258D02*
X61977500Y-89162742D01*
X63022500Y-89637258D02*
X63022500Y-89162742D01*
%TO.C,R8*%
X91620000Y-60653641D02*
X91620000Y-60346359D01*
X92380000Y-60653641D02*
X92380000Y-60346359D01*
%TO.C,R1*%
X58120000Y-60653641D02*
X58120000Y-60346359D01*
X58880000Y-60653641D02*
X58880000Y-60346359D01*
%TO.C,D6*%
X67130000Y-91480000D02*
X74370000Y-91480000D01*
X67130000Y-97700000D02*
X74370000Y-97700000D01*
X67130000Y-98800000D02*
X74370000Y-98800000D01*
X67130000Y-99320000D02*
X67130000Y-91480000D01*
X68700000Y-99320000D02*
X67130000Y-99320000D01*
X74370000Y-91480000D02*
X74370000Y-99320000D01*
X74370000Y-99320000D02*
X69300000Y-99320000D01*
X69000000Y-99320000D02*
X69440000Y-99930000D01*
X68560000Y-99930000D01*
X69000000Y-99320000D01*
G36*
X69440000Y-99930000D02*
G01*
X68560000Y-99930000D01*
X69000000Y-99320000D01*
X69440000Y-99930000D01*
G37*
%TO.C,BZ1*%
X97100000Y-80000000D02*
G75*
G02*
X82900000Y-80000000I-7100000J0D01*
G01*
X82900000Y-80000000D02*
G75*
G02*
X97100000Y-80000000I7100000J0D01*
G01*
%TO.C,R7*%
X76120000Y-60653641D02*
X76120000Y-60346359D01*
X76880000Y-60653641D02*
X76880000Y-60346359D01*
%TO.C,D1*%
X51630000Y-50680000D02*
X63700000Y-50680000D01*
X51630000Y-58520000D02*
X51630000Y-50680000D01*
X64300000Y-50680000D02*
X65870000Y-50680000D01*
X65870000Y-50680000D02*
X65870000Y-58520000D01*
X65870000Y-51200000D02*
X51630000Y-51200000D01*
X65870000Y-52300000D02*
X51630000Y-52300000D01*
X65870000Y-58520000D02*
X51630000Y-58520000D01*
X64000000Y-50680000D02*
X63560000Y-50070000D01*
X64440000Y-50070000D01*
X64000000Y-50680000D01*
G36*
X64000000Y-50680000D02*
G01*
X63560000Y-50070000D01*
X64440000Y-50070000D01*
X64000000Y-50680000D01*
G37*
%TO.C,R11*%
X64977500Y-60737258D02*
X64977500Y-60262742D01*
X66022500Y-60737258D02*
X66022500Y-60262742D01*
%TO.C,R6*%
X61620000Y-60653641D02*
X61620000Y-60346359D01*
X62380000Y-60653641D02*
X62380000Y-60346359D01*
%TO.C,R4*%
X103620000Y-60653641D02*
X103620000Y-60346359D01*
X104380000Y-60653641D02*
X104380000Y-60346359D01*
%TO.C,R14*%
X110477500Y-60737258D02*
X110477500Y-60262742D01*
X111522500Y-60737258D02*
X111522500Y-60262742D01*
%TD*%
%LPC*%
D13*
%TO.C,D2*%
X79500000Y-55300000D03*
D14*
X76000000Y-55300000D03*
X72500000Y-55300000D03*
X69000000Y-55300000D03*
%TD*%
D15*
%TO.C,R13*%
X95500000Y-61325000D03*
X95500000Y-59675000D03*
%TD*%
%TO.C,R12*%
X80000000Y-61325000D03*
X80000000Y-59675000D03*
%TD*%
D16*
%TO.C,J3*%
X82750000Y-91900000D03*
X86250000Y-91900000D03*
X89750000Y-91900000D03*
X93250000Y-91900000D03*
X96750000Y-91900000D03*
X100250000Y-91900000D03*
X103750000Y-91900000D03*
X107250000Y-91900000D03*
X110750000Y-91900000D03*
X114250000Y-91900000D03*
%TD*%
D17*
%TO.C,R10*%
X59000000Y-89910000D03*
X59000000Y-88890000D03*
%TD*%
D15*
%TO.C,R16*%
X69500000Y-90225000D03*
X69500000Y-88575000D03*
%TD*%
D13*
%TO.C,D4*%
X110500000Y-55300000D03*
D14*
X107000000Y-55300000D03*
X103500000Y-55300000D03*
X100000000Y-55300000D03*
%TD*%
D13*
%TO.C,D3*%
X95000000Y-55300000D03*
D14*
X91500000Y-55300000D03*
X88000000Y-55300000D03*
X84500000Y-55300000D03*
%TD*%
D18*
%TO.C,J1*%
X56000000Y-85800000D03*
X58540000Y-85800000D03*
X61080000Y-85800000D03*
X63620000Y-85800000D03*
%TD*%
D17*
%TO.C,R9*%
X107500000Y-61010000D03*
X107500000Y-59990000D03*
%TD*%
D19*
%TO.C,D5*%
X53000000Y-94700000D03*
D14*
X56500000Y-94700000D03*
X60000000Y-94700000D03*
X63500000Y-94700000D03*
%TD*%
D17*
%TO.C,R5*%
X55500000Y-89910000D03*
X55500000Y-88890000D03*
%TD*%
D20*
%TO.C,J2*%
X105388000Y-74000000D03*
X105388000Y-71500000D03*
X105388000Y-69500000D03*
X105388000Y-67000000D03*
D21*
X109600000Y-77065900D03*
X109600000Y-63934100D03*
%TD*%
D22*
%TO.C,U3*%
X54980000Y-80165000D03*
X57520000Y-80165000D03*
X60060000Y-80165000D03*
X62600000Y-80165000D03*
X65140000Y-80165000D03*
X67680000Y-80165000D03*
X70220000Y-80165000D03*
X70220000Y-64000000D03*
X67680000Y-64000000D03*
X65140000Y-64000000D03*
X62600000Y-64000000D03*
X60060000Y-64000000D03*
X57520000Y-64000000D03*
X54980000Y-64000000D03*
D23*
X53968000Y-73380000D03*
X53968000Y-70840000D03*
X56508000Y-73380000D03*
X56508000Y-70840000D03*
X59048000Y-73380000D03*
X59048000Y-70840000D03*
D24*
X62218000Y-76555000D03*
X60313000Y-76555000D03*
%TD*%
D17*
%TO.C,R3*%
X88500000Y-61010000D03*
X88500000Y-59990000D03*
%TD*%
%TO.C,R2*%
X73000000Y-61010000D03*
X73000000Y-59990000D03*
%TD*%
D15*
%TO.C,R15*%
X62500000Y-90225000D03*
X62500000Y-88575000D03*
%TD*%
D17*
%TO.C,R8*%
X92000000Y-61010000D03*
X92000000Y-59990000D03*
%TD*%
%TO.C,R1*%
X58500000Y-61010000D03*
X58500000Y-59990000D03*
%TD*%
D19*
%TO.C,D6*%
X69000000Y-94700000D03*
D14*
X72500000Y-94700000D03*
%TD*%
D25*
%TO.C,BZ1*%
X85000000Y-80000000D03*
D26*
X95000000Y-80000000D03*
%TD*%
D17*
%TO.C,R7*%
X76500000Y-61010000D03*
X76500000Y-59990000D03*
%TD*%
D13*
%TO.C,D1*%
X64000000Y-55300000D03*
D14*
X60500000Y-55300000D03*
X57000000Y-55300000D03*
X53500000Y-55300000D03*
%TD*%
D15*
%TO.C,R11*%
X65500000Y-61325000D03*
X65500000Y-59675000D03*
%TD*%
D17*
%TO.C,R6*%
X62000000Y-61010000D03*
X62000000Y-59990000D03*
%TD*%
%TO.C,R4*%
X104000000Y-61010000D03*
X104000000Y-59990000D03*
%TD*%
D15*
%TO.C,R14*%
X111000000Y-61325000D03*
X111000000Y-59675000D03*
%TD*%
D27*
%TO.C,C4*%
X54000000Y-60500000D03*
D28*
X56500000Y-60500000D03*
%TD*%
D27*
%TO.C,C3*%
X77000000Y-79500000D03*
D28*
X80500000Y-79500000D03*
%TD*%
%LPD*%
M02*
