M48
; DRILL file KiCad 10.0.6 date 2026-09-26T15:19:38
; FORMAT={-:-/ absolute / metric / decimal}
; #@! TF.CreationDate,2026-09-26T15:19:38+07:00
; #@! TF.GenerationSoftware,Kicad,Pcbnew,10.0.6
; #@! TF.FileFunction,Plated,1,2,PTH
FMAT,2
METRIC
; #@! TA.AperFunction,Plated,PTH,ViaDrill
T1C0.300
; #@! TA.AperFunction,Plated,PTH,ComponentDrill
T2C0.800
; #@! TA.AperFunction,Plated,PTH,ComponentDrill
T3C1.000
; #@! TA.AperFunction,Plated,PTH,ComponentDrill
T4C1.016
; #@! TA.AperFunction,Plated,PTH,ComponentDrill
T5C1.200
; #@! TA.AperFunction,Plated,PTH,ComponentDrill
T6C1.400
; #@! TA.AperFunction,Plated,PTH,ComponentDrill
T7C2.311
%
G90
G05
T1
X56.5Y-59.0
X57.078Y-89.017
X57.52Y-65.7
X59.072Y-65.794
X61.347Y-81.638
X63.213Y-89.512
X63.537Y-61.261
X68.823Y-78.296
X69.0Y-83.1
X71.7Y-83.1
X72.057Y-63.777
X73.578Y-61.586
X76.697Y-56.948
X78.387Y-83.933
X79.797Y-87.699
X85.0Y-65.0
X85.0Y-69.0
X85.0Y-73.0
X85.9Y-64.825
X87.45Y-65.565
X87.695Y-60.328
X88.1Y-64.825
X88.211Y-63.866
X88.417Y-77.032
X88.698Y-77.807
X89.183Y-86.807
X90.225Y-79.567
X90.775Y-60.5
X91.775Y-79.5
X92.218Y-66.616
X92.456Y-87.775
X92.57Y-64.654
X93.45Y-65.51
X93.8Y-67.418
X93.904Y-88.12
X93.917Y-87.047
X94.512Y-70.092
X94.928Y-62.159
X95.608Y-85.974
X95.987Y-69.495
X96.035Y-85.324
X96.056Y-86.743
X97.754Y-64.473
X98.121Y-63.751
X98.749Y-64.185
X99.977Y-66.141
X101.135Y-62.468
X103.8Y-74.0
X106.922Y-61.588
X107.58Y-58.953
X107.748Y-74.665
X108.518Y-62.02
T2
X54.0Y-60.5
X56.5Y-60.5
X77.0Y-79.5
X80.5Y-79.5
T3
X85.0Y-80.0
X95.0Y-80.0
T4
X56.0Y-85.8
X58.54Y-85.8
X61.08Y-85.8
X63.62Y-85.8
T5
X53.0Y-94.7
X53.5Y-55.3
X56.5Y-94.7
X57.0Y-55.3
X60.0Y-94.7
X60.5Y-55.3
X63.5Y-94.7
X64.0Y-55.3
X69.0Y-55.3
X69.0Y-94.7
X72.5Y-55.3
X72.5Y-94.7
X76.0Y-55.3
X79.5Y-55.3
X84.5Y-55.3
X88.0Y-55.3
X91.5Y-55.3
X95.0Y-55.3
X100.0Y-55.3
X103.5Y-55.3
X107.0Y-55.3
X110.5Y-55.3
T6
X82.75Y-91.9
X86.25Y-91.9
X89.75Y-91.9
X93.25Y-91.9
X96.75Y-91.9
X100.25Y-91.9
X103.75Y-91.9
X107.25Y-91.9
X110.75Y-91.9
X114.25Y-91.9
T7
X109.6Y-63.934
X109.6Y-77.066
M30
