%TF.GenerationSoftware,KiCad,Pcbnew,10.0.6*%
%TF.CreationDate,2026-09-26T15:22:29+07:00*%
%TF.ProjectId,dashboard,64617368-626f-4617-9264-2e6b69636164,rev?*%
%TF.SameCoordinates,Original*%
%TF.FileFunction,Paste,Top*%
%TF.FilePolarity,Positive*%
%FSLAX46Y46*%
G04 Gerber Fmt 4.6, Leading zero omitted, Abs format (unit mm)*
G04 Created by KiCad (PCBNEW 10.0.6) date 2026-09-26 15:22:29*
%MOMM*%
%LPD*%
G01*
G04 APERTURE LIST*
G04 Aperture macros list*
%AMRoundRect*
0 Rectangle with rounded corners*
0 $1 Rounding radius*
0 $2 $3 $4 $5 $6 $7 $8 $9 X,Y pos of 4 corners*
0 Add a 4 corners polygon primitive as box body*
4,1,4,$2,$3,$4,$5,$6,$7,$8,$9,$2,$3,0*
0 Add four circle primitives for the rounded corners*
1,1,$1+$1,$2,$3*
1,1,$1+$1,$4,$5*
1,1,$1+$1,$6,$7*
1,1,$1+$1,$8,$9*
0 Add four rect primitives between the rounded corners*
20,1,$1+$1,$2,$3,$4,$5,0*
20,1,$1+$1,$4,$5,$6,$7,0*
20,1,$1+$1,$6,$7,$8,$9,0*
20,1,$1+$1,$8,$9,$2,$3,0*%
G04 Aperture macros list end*
%ADD10RoundRect,0.200000X0.275000X-0.200000X0.275000X0.200000X-0.275000X0.200000X-0.275000X-0.200000X0*%
%ADD11RoundRect,0.135000X0.185000X-0.135000X0.185000X0.135000X-0.185000X0.135000X-0.185000X-0.135000X0*%
%ADD12R,3.000000X0.900000*%
%ADD13RoundRect,0.500000X0.500000X-0.875000X0.500000X0.875000X-0.500000X0.875000X-0.500000X-0.875000X0*%
%ADD14C,1.700000*%
%ADD15RoundRect,0.275000X-0.275000X0.975000X-0.275000X-0.975000X0.275000X-0.975000X0.275000X0.975000X0*%
G04 APERTURE END LIST*
D10*
%TO.C,R13*%
X95500000Y-61325000D03*
X95500000Y-59675000D03*
%TD*%
%TO.C,R12*%
X80000000Y-61325000D03*
X80000000Y-59675000D03*
%TD*%
D11*
%TO.C,R10*%
X59000000Y-89910000D03*
X59000000Y-88890000D03*
%TD*%
D10*
%TO.C,R16*%
X69500000Y-90225000D03*
X69500000Y-88575000D03*
%TD*%
D11*
%TO.C,R9*%
X107500000Y-61010000D03*
X107500000Y-59990000D03*
%TD*%
%TO.C,R5*%
X55500000Y-89910000D03*
X55500000Y-88890000D03*
%TD*%
D12*
%TO.C,J2*%
X105388000Y-74000000D03*
X105388000Y-71500000D03*
X105388000Y-69500000D03*
X105388000Y-67000000D03*
%TD*%
D13*
%TO.C,U3*%
X54980000Y-80165000D03*
X57520000Y-80165000D03*
X60060000Y-80165000D03*
X62600000Y-80165000D03*
X65140000Y-80165000D03*
X67680000Y-80165000D03*
X70220000Y-80165000D03*
X70220000Y-64000000D03*
X67680000Y-64000000D03*
X65140000Y-64000000D03*
X62600000Y-64000000D03*
X60060000Y-64000000D03*
X57520000Y-64000000D03*
X54980000Y-64000000D03*
D14*
X53968000Y-73380000D03*
X53968000Y-70840000D03*
X56508000Y-73380000D03*
X56508000Y-70840000D03*
X59048000Y-73380000D03*
X59048000Y-70840000D03*
D15*
X62218000Y-76555000D03*
X60313000Y-76555000D03*
%TD*%
D11*
%TO.C,R3*%
X88500000Y-61010000D03*
X88500000Y-59990000D03*
%TD*%
%TO.C,R2*%
X73000000Y-61010000D03*
X73000000Y-59990000D03*
%TD*%
D10*
%TO.C,R15*%
X62500000Y-90225000D03*
X62500000Y-88575000D03*
%TD*%
D11*
%TO.C,R8*%
X92000000Y-61010000D03*
X92000000Y-59990000D03*
%TD*%
%TO.C,R1*%
X58500000Y-61010000D03*
X58500000Y-59990000D03*
%TD*%
%TO.C,R7*%
X76500000Y-61010000D03*
X76500000Y-59990000D03*
%TD*%
D10*
%TO.C,R11*%
X65500000Y-61325000D03*
X65500000Y-59675000D03*
%TD*%
D11*
%TO.C,R6*%
X62000000Y-61010000D03*
X62000000Y-59990000D03*
%TD*%
%TO.C,R4*%
X104000000Y-61010000D03*
X104000000Y-59990000D03*
%TD*%
D10*
%TO.C,R14*%
X111000000Y-61325000D03*
X111000000Y-59675000D03*
%TD*%
M02*
